<svg version="1.1" id="a8897f4c-2937-4134-8b3a-fee1040aeff6" xmlns="http://www.w3.org/2000/svg" x="0" y="0" viewBox="0 0 1066.1 824.2" style="enable-background:new 0 0 1066.1 824.2" xml:space="preserve"><style>.st0{fill:#007cff}.st1{fill:#1a2e35}.st2,.st3{enable-background:new}.st2{opacity:.4;fill:#fff}.st3{opacity:.6}.st3,.st4{fill:#fff}.st4,.st5{opacity:.2;enable-background:new}.st6{fill:#fcc1bb}.st7{opacity:.1;fill:#fff;enable-background:new}.st9{fill:#cc7a63}.st11{fill:none;stroke:#1a2e35;stroke-width:.708;stroke-linecap:round;stroke-linejoin:round;stroke-miterlimit:10}.st16{fill:#fd897b}</style><path class="st0" d="m157.1 639.1-18-4.5c-4.5-1.1-9.5.8-10.6 5.3l-3 11.9c-1.1 4.5 2.4 8.3 6.9 9.4l7.1 1.8v8.1l3.8-7.2 7.1 1.8c4.5 1.1 9.4-.5 10.6-5.1l3-11.9c1.1-4.5-2.4-8.4-6.9-9.6zm20.2-43.3c-9.3-4-14.7 7.5-14.7 7.5s-11.3-5.8-16.3 3c-7.1 12.6 13.2 23.9 25.2 23.5 9.8-7 19.1-28.3 5.8-34zm31.1 67.4-9.1-12.6-14.8 4.8 10.9-33.6 24 7.8z"/><path class="st1" d="M97.1 682h144.2v81.4H97.1z"/><path class="st2" d="M97.1 682h144.2v81.4H97.1z"/><path class="st2" d="M183.9 682h57.4v81.4h-57.4z"/><path class="st3" d="m157.1 639.1-18-4.5c-4.5-1.1-9.5.8-10.6 5.3l-3 11.9c-1.1 4.5 2.4 8.3 6.9 9.4l7.1 1.8v8.1l3.8-7.2 7.1 1.8c4.5 1.1 9.4-.5 10.6-5.1l3-11.9c1.1-4.5-2.4-8.4-6.9-9.6z"/><path class="st2" d="m208.4 663.2-9.1-12.6-14.8 4.8 10.9-33.6 24 7.8z"/><g id="_x3C_Group_x3E__66_"><path class="st1" d="M623.2 109.1c-.1-1-1-1.8-2-1.9l-53.8-5.9c-.7-.1-3.3 1.6-3.2 2.5l6.3 50.8c.1 1.1 1 1.9 2 2l54.5 4.3c.7.1 3.2-1.6 3.1-2.5l-6.9-49.3z"/><path class="st4" d="m567.4 101.3 53.8 5.9c1 .1 1.8.9 2 1.9l7 49.1c.1.9-.6 1.7-1.5 1.6l-54.5-4.3c-1.1-.1-1.9-.9-2-2l-6.3-50.8c-.2-.7.6-1.5 1.5-1.4z"/><path class="st0" d="m574.3 153.3-6.1-49.6 52.8 5.8 6.8 48z"/><path class="st3" d="m574.3 153.3-6.1-49.6 52.8 5.8 6.8 48z"/><path class="st5" d="M583.3 113.1c.7 3.4-1 6.6-3.8 7.2-2.8.5-5.5-1.8-6.2-5.2-.7-3.4 1-6.6 3.8-7.2 2.7-.5 5.5 1.8 6.2 5.2zm9.6 25.8 14.4 1.4-1.6-13.8-14.6-1.5zm14.6 3.4-14.3-1.4 1.4 11.1 14.2 1.1zm1.9.2 1.4 10.8 13.6 1.1-1.7-10.5zm-.3-2 13.3 1.3-2.1-13.7-13-1.4zm-17.8.2-14.3-1.5 1.3 11.5 14.3 1.2zm-.2-2-1.6-13.9-14.3-1.5 1.6 14zm18.4-19.4 7.4.9-.8-3.4-7.3-.9zm-13.7-4.9-8.2-1 .5 3.2 8.2 1zm2.8 3.5 8.1 1-.6-3.3-7.8-.9z"/><path class="st6" d="M650.1 139.4s-19.1-10.7-21.9-12.9c-2.8-2.1-28.2-2.5-27.7 0s10 17.7 12.2 19.2c2.3 1.4 17.5 0 17.5 0l17.4 7 2.5-13.3z"/><path class="st1" d="M746.8 137.6c16.2 7.8 7.7 74.5-30.4 89.8-38 15.3-76.2-44.9-76.2-44.9l11.9-31s34.9 28.8 48.5 22.2c13.6-6.7 33.9-42 46.2-36.1z"/><path class="st7" d="M746.8 137.6c16.2 7.8 7.7 74.5-30.4 89.8-38 15.3-76.2-44.9-76.2-44.9l11.9-31s34.9 28.8 48.5 22.2c13.6-6.7 33.9-42 46.2-36.1z"/><path class="st6" d="m644.6 727-20.8 2.2-1.1-12.1-2.8-32.9 20.8-2.2 3.2 36.4zm104.1-2.6h-20.2l-.2-4.6v-.6l-1-29.3v-.6l-.5-11.2h20.3z"/><path class="st5" d="m640.7 682 3.2 36.4-21.2-1.3-2.8-32.9zm107.9 39.8-20.3-2.6-1-28.3 20.2 1.7 1.1 28.3z"/><path class="st0" d="M725.7 723.2h24.6c.8 0 1.5.6 1.7 1.4l4 18c.3 1.6-.7 3.2-2.3 3.5-.2 0-.4.1-.7.1-7.9-.1-13.7-.6-23.7-.6-6.1 0-24.7.6-33.2.6-8.5 0-9.6-8.4-6.1-9.2 15.6-3.4 27.3-8.1 32.3-12.6.9-.8 2.2-1.3 3.4-1.2zm-104.2-.7h24.6c.8 0 1.5.6 1.7 1.4l4 18c.3 1.6-.7 3.2-2.3 3.5-.2 0-.4.1-.7.1-7.9-.1-13.7-.6-23.7-.6-6.1 0-24.7.6-33.2.6-8.5 0-9.6-8.4-6.1-9.2 15.6-3.4 27.3-8.1 32.3-12.6 1-.7 2.2-1.2 3.4-1.2z"/><path class="st1" d="M617.9 714.1h29.7s-2.4-220.8 29.7-307c2.3 28.5 4.8 58.1 7.3 82.7 1.6 15.3 3.1 21.1 4.6 31.1 9.3 64.3 32.9 195.8 32.9 195.8h29.3s-3.5-124.8-6.9-188c-3.8-68.6-5.5-212.1-5.6-225H631.4c-10.2 53.9-36.4 235.5-13.5 410.4z"/><path class="st6" d="M670.4 84.2c.3 1 .5 1.9.9 2.9 2 5.6 5.6 10.1 10 13.3 1.2.8 2.4 1.6 3.7 2.3 6.7 3.5 14.7 4.1 21.9 1 2.9-1.2 5.8-3.2 8.4-5.8 10.1-10.2 9.9-22 11-42 .3-4.3-.4-8.6-2-12.6-5.8-14-21.8-20.6-35.8-14.8-19.7 7.9-22.4 37.7-18.1 55.7z"/><path class="st5" d="M681.3 100.4c1.2.8 2.4 1.6 3.7 2.3 6.7 3.5 14.7 4.1 21.9 1-1.4-3.9-3.6-6.8-3.6-6.8s-12-1.9-22 3.5z"/><path class="st6" d="M721.5 126.3c-9.8 9-34 5.6-34 5.6s-15.1-4.1-11.9-8.8c8.9-1.5 13.2-5.6 14.9-10.9 1-3.1 1.2-6.6.9-10.1-.1-1.9-.4-3.8-.7-5.7l29.8-22.1c-3.8 14.6-8.6 41.5 1 52z"/><path class="st1" d="m681.3 66-4.3 1.6 2.2-8.8s-6.3-9.5 0-18c0 0-16-7.1-3.9-24.9 0 0 4.5 10.5 16.6 5.2 6.5-2.8 26.9-3.1 27.9 5.2 0 0 14.7-.1 16.3 25 1.6 25.1-15.6 39.5-15.6 39.5s-17.7 4.2-26.4-2.9c-8.7-7-12.8-21.9-12.8-21.9z"/><path class="st6" d="M692.6 67.4c-1.2 4.4-3.6 7.5-6.7 8.9-4.1 1.7-6.7-4-6.2-10 .6-5.3 3.3-12.8 7.7-11.8 4.5.9 6.7 7.5 5.2 12.9z"/><path class="st5" d="M677.2 407c2.3 28.5 4.8 58.1 7.3 82.8 3.7-35.6 8.1-60.9 8.1-60.9s4.2-3.4 15.7-21.8c11.5-18.4 0-52.7 0-52.7.4 31.7-31.1 52.6-31.1 52.6z"/><path class="st0" d="m614.6 705.7 1.5 8.4h35v-7.7zm104.1 3.2 3.3 7.8h29.4l1.9-7.8z"/><path class="st1" d="M650.1 124.9s26.7-6.4 55.9-1.1c29.2 5.3 40.7 13.8 40.7 13.8l15.1 229.7s-78.2 19-143.9 0c.1 0 6.3-212.9 32.2-242.4z"/><path class="st4" d="M761.9 367.3s-78.2 19-143.9 0c0 0 .1-2.5.3-7.1.6-17.1 2.5-62.6 6.7-109.4.2-2 .4-4.1.5-6.1 4.9-53 12.7-106.1 24.7-119.8 0 0 26.7-6.3 55.9-1.1 29.2 5.3 40.7 13.7 40.7 13.7l6.9 105.7.5 8.1 7.1 108 .6 8z"/><path class="st5" d="M754.2 251.3c-14.4-4.1-51.2-10.3-129.3-.5.2-2 .4-4.1.5-6.1 18.4-3 83.5-12.4 128.3-1.4l.5 8zm7.7 116s-78.2 19-143.9 0c0 0 .1-2.5.3-7.1 32.8 4.9 96.9 8.8 143.1-.9l.5 8z"/><path class="st0" d="M668.5 121.8s11.7-16 45-16.1c33.3-.1 33 25.7 22.6 43-10.5 17.3-67.6-26.9-67.6-26.9z"/><path class="st6" d="m571.5 173.6-3.3-18.5s7.7-11.8 6-14.4c-1.8-2.6-8.4-24.2-8.4-24.2s-16.4 16.6-15.3 21.1c1.1 4.5 5.6 12.5 5.6 12.5l.5 37.2 14.9-13.7z"/><path class="st0" d="m574.2 173.6-3.6-13.7-22.7 19.4 8.6 19.4z"/><path class="st1" d="M650.1 124.9c-7.9 2.4-48.7 76.3-57.8 76.3-7.1 0-20.2-38.1-20.2-38.1l-21.7 25.5s2.9 63.7 38.4 65.5c35.6 1.7 68.9-58.6 68.9-58.6s5.6-17.5 2.2-43.4c-2.5-20.4-9.8-27.2-9.8-27.2z"/><path class="st7" d="M650.1 124.9c-7.9 2.4-48.7 76.3-57.8 76.3-7.1 0-20.2-38.1-20.2-38.1l-21.7 25.5s2.9 63.7 38.4 65.5c35.6 1.7 68.9-58.6 68.9-58.6s5.6-17.5 2.2-43.4c-2.5-20.4-9.8-27.2-9.8-27.2z"/><path class="st0" d="M605.6 38.3h-26.5c-4 0-7.2 3.2-7.2 7.2v20.7c0 4 3.2 7.2 7.2 7.2h9.8l3.5 8.5 3.5-8.5h9.8c4 0 7.2-3.2 7.2-7.2V45.6c0-4-3.3-7.3-7.3-7.3z"/><path class="st3" d="M582.3 48.8c2.6-4.2 7.5-2.5 10 .8 2.6-3.2 7.5-4.8 10.1-.6 4.3 7.1-4.8 13.6-9 16.1-.5.3-.9.5-1.2.7-.3-.2-.7-.4-1.2-.7-4.2-2.7-13.1-9.3-8.7-16.3z"/><path class="st0" d="M549.3 85.6H536c-2 0-3.6 1.6-3.6 3.6v10.4c0 2 1.6 3.6 3.6 3.6h4.9l1.8 4.3 1.8-4.3h4.9c2 0 3.6-1.6 3.6-3.6V89.2c0-2-1.7-3.6-3.7-3.6z"/><path class="st3" d="M537.7 90.8c1.3-2.1 3.8-1.2 5 .4 1.3-1.6 3.8-2.4 5-.3 2.1 3.6-2.4 6.8-4.5 8-.2.1-.4.3-.6.4-.2-.1-.4-.2-.6-.4-2.1-1.3-6.5-4.6-4.3-8.1z"/><path d="M725.7 723.2h24.6c.8 0 1.5.6 1.7 1.4l4 18c.3 1.6-.7 3.2-2.3 3.5-.2 0-.4.1-.7.1-7.9-.1-13.7-.6-23.7-.6-6.1 0-24.7.6-33.2.6-8.5 0-9.6-8.4-6.1-9.2 15.6-3.4 27.3-8.1 32.3-12.6.9-.8 2.2-1.3 3.4-1.2zm-104.2-.7h24.6c.8 0 1.5.6 1.7 1.4l4 18c.3 1.6-.7 3.2-2.3 3.5-.2 0-.4.1-.7.1-7.9-.1-13.7-.6-23.7-.6-6.1 0-24.7.6-33.2.6-8.5 0-9.6-8.4-6.1-9.2 15.6-3.4 27.3-8.1 32.3-12.6 1-.7 2.2-1.2 3.4-1.2z" style="opacity:.3;fill:#fff;enable-background:new"/></g><path class="st9" d="M927.5 550.4c-11.2 27.7-41.1 68.6-68.8 103.5-2.4 3-4.8 6-7.1 8.9-7.9 9.9-15.5 19.1-22.5 27.1-3.5 4-6.9 7.8-10.1 11.2-11.4 12.3-16.8 19.9-16.8 19.9l-11.1-6.5s10.6-16.6 24.8-39.4c3-4.8 6.2-9.9 9.4-15.2 8.3-13.4 17.3-28 26-42.2 1.6-2.7 3.3-5.4 4.9-8.1 16.1-26.6 30.3-50.7 35.4-61.3.4-.8.7-1.6 1-2.2 2.8-6.5-4.8-31.6-13.3-55.2-.6-1.8-1.3-3.6-1.9-5.3-8.1-22-16.2-41.4-16.2-41.4l22.6-38.3 8.3-14.1s4.5 12.3 10.4 30.1c4.1 12 8.8 26.6 13.3 41.5.5 1.5.9 3 1.4 4.6 6.8 22.6 12.5 45.4 14.7 60.9.8 5.6-.9 12.9-4.4 21.5z"/><path class="st5" d="M859.4 653.9c-14.6 18.4-28.6 35-39.1 47.2-1.5-7.5-3-16.3-4.2-25.9 12.1-19.4 26.8-43.3 40.3-65.4-.2 11.6.3 29 3 44.1z"/><path class="st9" d="m852.1 747.7-13.2 1.7s-5.1-24.9-9.9-59.6c-1.3-9.4-2.6-19.4-3.7-29.9-2.8-25.7-4.9-53.9-4.7-80.2 0 0-1.4-5-3.6-13.4-3.5-14.1-9-37.7-12.8-63.8 0-.2 0-.3-.1-.5-4.6-31.3-6.8-66.1-.7-92.1l45.8 20.6.8 55.3.2 13.4.6 46.6.1 10.7.4 61.3.3 45 .5 84.9z"/><path class="st5" d="m849.2 430.6.8 55.3c-14 9.4-33.2 14-45.8 16.2-4.6-31.3-6.8-66.1-.7-92.1l45.7 20.6zm68.1 37.5c-11.8 13.1-31.1 16.6-39.8 17.5-8.1-22-16.2-41.4-16.2-41.4l22.6-38.3c6.2 4.9 12.7 10.3 18.7 16.1 4.1 12 8.8 26.6 13.3 41.5.5 1.6.9 3.1 1.4 4.6z"/><path class="st0" d="M881.5 221.6c8.7.4 45.1 49.3 45.1 49.3l13.5-17.6s20.8 40.5 10.5 59.7-64.6-33.4-64.6-33.4l-4.5-58z"/><path class="st5" d="m881.5 221.6 3.6 39 .9 19.1s8.9 8.7 20.2 17.7c16.6 13.2 38.3 27.2 44.4 15.8 10.3-19.3-10.5-59.7-10.5-59.7l-13.5 17.6-.1-.1c-2-3.2-36.6-49-45-49.4z"/><path class="st5" d="m885.1 260.6.9 19.1s8.9 8.7 20.2 17.7c1.1-22.9-20.2-56.2-20.2-56.2l-.9 19.4zm41.5 10.3-1.9 3.7 5.7 22s-15.6-14.2-5.7-28.1l1.9 2.4z"/><path class="st0" d="m883.1 343.8-73.3 5.7s-1-43.8-6.8-66.6c-1.9-7.4-4.3-15.7-7.3-25.3-1.3-4.1-2.7-8.4-4.2-13-1.4-4.3-2.9-8.8-4.6-13.6 10-3.2 20.2-5.7 30.6-7.4 10.9-1.9 22-3.1 33.2-3.5 14.4-.1 30.9 1.5 30.9 1.5s2.3.6 3.8 15.8c1.3 14.3.7 54.4-2.3 106.4z"/><path class="st5" d="m883.1 343.8-73.3 5.7s0-.9-.1-2.5c-.3-9.6-1.8-44.5-6.8-64-1.4-5.3-3-11-4.9-17.4-.8-2.5-1.6-5.2-2.4-7.9-1.3-4.1-2.7-8.4-4.2-13-1.4-4.3-2.9-8.8-4.6-13.6 4-1.3 8-2.4 12.1-3.5 6.1-1.6 12.3-2.9 18.6-3.9 10.9-1.9 22-3.1 33.2-3.5 9.3-.1 19.4.6 25.4 1.1 3.3.3 5.4.5 5.4.5s2.3.6 3.8 15.8c1.4 14.1.8 54.2-2.2 106.2z"/><path class="st1" d="M792.1 707.3c1.3-1 12.8 16.1 12.8 16.1s-2.5 17.8 2.6 29.3-4.9 10.5-13.2-.4c-8.3-10.9-14.7-19.2-20.6-26.9-5.8-7.7 4.5-7.9 18.4-18.1z"/><path class="st0" d="M808.8 736.3c-2.6-.6-4.3-8-4.6-9.5v-.2c0-.1 0-.1.1-.2 0-.1.1-.1.1-.1.1 0 .1-.1.2-.1.2-.1 5.1-1.6 7.7-.1.8.5 1.4 1.2 1.6 2.1.2 1 0 1.7-.6 2.1-.9.6-2.6.1-4.4-.7 1.2 1.3 2.2 2.7 2.4 4 .1.7-.1 1.2-.4 1.7-.6.8-1.2 1-1.7 1h-.4zm.2-1.1c.1 0 .4.1.9-.6.2-.2.3-.5.2-.9-.2-1.7-2.8-4.2-4.6-5.7.9 3.3 2.3 6.9 3.5 7.2zm-3-8.3c2.8 1.7 5.8 3.1 6.6 2.6.2-.2.2-.7.1-1-.1-.6-.5-1.1-1-1.4-.7-.4-1.6-.5-2.5-.5-1.2-.1-2.3.1-3.2.3z"/><path class="st1" d="M834.3 741c0-1.7 20.5-.4 20.5-.4s12.6 12.8 24.9 15.7c12.2 2.9 5.4 10.2-8.3 10.2h-33.9c-9.7.1-3.6-8.2-3.2-25.5z"/><path class="st0" d="M857.1 743.3c-.1 0-.1-.1-.2-.1l-.1-.1v-.4c.1-.2 1.8-5 4.6-6.1.9-.4 1.8-.3 2.7.1.9.4 1.4 1 1.3 1.7-.1 1.1-1.5 2.2-3.2 3 1.7-.2 3.5-.1 4.6.5.6.3.9.8 1.1 1.4.3 1.2-.1 1.9-.5 2.2-.4.3-1.1.5-1.8.5-2.9-.1-7.4-2.2-8.5-2.7zm1.9-.3c3 1.3 6.8 2.4 7.7 1.6.1-.1.3-.3.1-1.1-.1-.3-.3-.5-.6-.7-.6-.3-1.4-.4-2.4-.4-1.5 0-3.4.3-4.8.6zm2.8-5.5c-1.6.7-2.9 3-3.5 4.4 3-1.2 6-2.7 6-3.7 0-.3-.5-.6-.7-.7-.3-.2-.6-.2-.9-.2-.3 0-.6.1-.9.2z"/><path class="st9" d="M844.6 236.4c-18.2-2.3-23.7-10.1-23.7-10.1 7.4-7 6.1-17.4 4.2-23.8-1-3.6-2.2-6-2.2-6l21.9 4.1c-.6 3.6-.8 6.7-.8 9.2 0 2.8.2 5 .6 6.8 1.5 6.5 5.2 6.6 5.2 6.6 3.8 7.3-5.2 13.2-5.2 13.2z"/><path class="st5" d="M843.9 209.9c0 2.8.2 5 .6 6.8-8.7-1.1-15.3-8.1-19.4-14.2-1-3.6-2.2-6-2.2-6l21.9 4.1c-.6 3.7-.9 6.7-.9 9.3z"/><path class="st1" d="M870.7 159.2s9.1-2.5 7.1-8.9c-2-6.3-5.2-6.6-5.2-6.6s5.4-7.7 1.8-16.3c-3.6-8.6-13.6-6.1-13.6-6.1s.8-9.3-8-11.8-13.3 5.5-13.3 5.5-5.4-8.5-14.5-7.1c-9.1 1.4-12 13.6-12 13.6s-7.9-3.7-12.9 4.8 0 15.8 0 15.8-5.4-3.2-8.2 5.7c-2.7 8.9 6.1 17.9 6.1 17.9s-5.2.2-3.2 7.2 10.4 7.9 10.4 7.9-3.4 1.4 2.3 7.5c5.7 6.1 26.2 0 26.2 0l37-29.1z"/><path class="st9" d="M847.7 142.4c18.9 2.7 23.5 13.7 22.1 33.4-1.8 24.6-9.7 41-32.5 32.4-31-11.7-20.9-70.3 10.4-65.8z"/><path d="M857.8 173s1.9 5.3 4.4 8.6c0 0-2 2.3-5.3 1.4l.9-10z" style="fill:#b84d3c"/><path class="st1" d="M846.4 169.7c-.2 1.6-1.2 2.7-2.2 2.6-1-.1-1.7-1.5-1.5-3 .2-1.6 1.2-2.7 2.2-2.6 1 .1 1.7 1.5 1.5 3z"/><path class="st1" d="m844.5 166.7 3.5-.9s-2 2.6-3.5.9zm21.3 5.1c-.2 1.6-1.2 2.7-2.2 2.6-1-.1-1.7-1.5-1.5-3 .2-1.6 1.2-2.7 2.2-2.6 1 0 1.7 1.4 1.5 3z"/><path class="st1" d="m863.8 168.7 3.5-.9c.1 0-2 2.7-3.5.9z"/><path class="st11" d="M848.1 156.7s-5.2-1.5-8.6 1.7m22.5-.5s3.5-.8 7.3 2.6"/><path class="st1" d="M822.5 171.2s11.1-14.2 11.5-26.4c0 0 39.6-9.9 36 28.4 0 0 8.5-33.2-23.8-38.6-32.3-5.4-39.1 42-24.3 58.6-.1 0-6.2-13 .6-22z"/><path class="st9" d="M825 175.7c.3-3.1-2.1-8.7-7.8-8.9-5.9-.2-10.5 11.4 3.7 16.4 2 .7 3.5-1.1 4.1-7.5z"/><path class="st11" d="M852.8 192.9s-8.2.7-10.4-6.9"/><path class="st0" d="M816.2 163.7c6.7-23.1 43.3-39.7 53.9-11.1 0 0-1.8-10.4-10.6-18.4 0 0-34.4-13.3-44.3 26.4l1 3.1z"/><path class="st1" d="M894.8 253.9c-.1 1.2.7 2.1 1.9 2.1h20.9c1.2 0 2.2-.9 2.4-2.1l4.7-41.3c.1-1.2-.7-2.4-1.9-2.4h-20.9c-1.2 0-2.2 1.2-2.4 2.4l-4.7 41.3z"/><path d="m901.8 212.3-4.7 41.7c-.1 1.2.5 2 1.6 2h17.7c1.2 0 3.4-.7 3.5-1.8l4.7-41.8c.1-1.2-1.9-2.1-3.1-2.1h-17.7c-1.1-.1-1.9.8-2 2z" style="opacity:.5;fill:#fff"/><path class="st3" d="M854.2 353.2c0 2 1.7 3.7 3.7 3.7s3.7-1.7 3.7-3.7-1.7-3.7-3.7-3.7c-2-.1-3.7 1.6-3.7 3.7z"/><path class="st9" d="m938.6 257.3-10.9-18.5s0-9.7-.9-12c-1-2.3-11.6-7.5-13.7-6.7-2.1.8-2.9 19.9-1 22.4 1.9 2.6 8.6 5.4 8.6 5.4l-.5 3.6 6.4 19.3 12-13.5z"/><path class="st0" d="m943 255.2-3.6-3.6-17.2 19.3 2.5 7.6z"/><path class="st5" d="M856 286s-20.2 46-46.3 60.9c-.3-9.6-1.8-44.5-6.8-64-1.4-5.3-3-11-4.9-17.4l7.9-9.5s5.5 17 3.1 31.8l30.4-18.6L856 286z"/><path class="st9" d="m836.5 275.4 24.8-19.5s3.8-10.4 5.3-12.3c1.5-1.8 23.3-9.8 25.1-10.1 1.8-.2.1 17.8-2.7 20.9-2.8 3.1-20.2 9.1-20.2 9.1l-26 24.5-6.3-12.6z"/><path class="st0" d="M786.9 231c-14.6 7.3-21 89.5 4.2 103.7s63.1-50 63.1-50l-14.7-15.6s-30.8 25.8-34.5 23.4c-3.7-2.4.5-27.6.5-27.6s4.3-7.6-4.8-19.6c-9.1-11.8-13.8-14.3-13.8-14.3z"/><path class="st5" d="M786.9 231c-14.6 7.3-21 89.5 4.2 103.7s63.1-50 63.1-50l-14.7-15.6s-30.8 25.8-34.5 23.4c-3.7-2.4.5-27.6.5-27.6s4.3-7.6-4.8-19.6c-9.1-11.8-13.8-14.3-13.8-14.3z"/><path class="st0" d="m854.5 290.5 4.4-2.7-16.5-24.1-6.1 3.3zm67.1 167.6c0 .1.1.2.1.4-4 .6-7.3 7.9-11.1 10.4-4.6 3-10.1 4.8-15.5 5.6-10.3 1.6-21 .4-31.2 2.3-12.8 2.3-24.3 8.9-36.6 13-8.7 2.9-23.1 5.9-31.4.1-6-4.1-5.1-11.5-5.2-18-.5-20.7.1-41.3 3-61.8 2.6-18.2 7-37.8 14.5-56.3l1.8-4.2 73.3-5.7.6 3.5 4.6 26.3 8.7 22.1 21.6 54.6c.9 2.5 2 5.1 2.8 7.7z"/><path class="st3" d="M921.6 458.1c0 .1.1.2.1.4-4 .6-7.3 7.9-11.1 10.4-4.6 3-10.1 4.8-15.5 5.6-10.3 1.6-21 .4-31.2 2.3-12.8 2.3-24.3 8.9-36.6 13-8.7 2.9-23.1 5.9-31.4.1-6-4.1-5.1-11.5-5.2-18-.5-20.7.1-41.3 3-61.8 2.6-18.2 7-37.8 14.5-56.3l1.8-4.2 73.3-5.7.6 3.5 4.6 26.3 8.7 22.1 21.6 54.6c.9 2.5 2 5.1 2.8 7.7z"/><path style="enable-background:new" d="m809.8 349.4-3 7.7 78-3.9-1.7-9.4z"/><path class="st0" d="m831.9 347.6-.9 10.1h-2.9l.5-10.1z"/><path class="st3" d="m831.9 347.6-.9 10.1h-2.9l.5-10.1z"/><path class="st0" d="m873 344.6 1.1 10.5h2.6l-.9-11z"/><path class="st3" d="m873 344.6 1.1 10.5h2.6l-.9-11z"/><path class="st0" d="m851 346.6.9 8.6c.1.9.9 1.6 1.9 1.6l11.4-.9c1-.1 1.7-.9 1.6-1.9l-.8-8.4c-.1-.9-.9-1.6-1.9-1.6l-11.5.8c-1 0-1.7.8-1.6 1.8z"/><path class="st9" d="M876.1 221.2c-.1 2.4-.8 5.3-3 8.2-1.2 1.5-2.7 3-4.9 4.4-4.7 3.1-12.1 5.8-23.4 7.4-7.2.9-13.4.9-18.8.2-3-.4-5.6-1-8.1-1.8-9.3-2.8-15.3-7.8-18.9-12 4-1 8.1-1.9 12.2-2.7 1.1-.2 2.1-.4 3.2-.6 1.1-.2 2.1-.4 3.2-.6 10.9-1.9 22-3.1 33.2-3.5 4 0 8.2.1 12.1.2 1.7.1 3.4.2 5 .3 3.1.1 5.9.3 8.2.5z"/><path class="st1" d="M826 241.3c-3-.4-5.6-1-8.1-1.8-1.2-7.7-4.5-12.4-6.7-14.7 1.1-.2 2.1-.4 3.2-.6 6.2 4.4 9.9 12.5 11.6 17.1zm47.1-11.9c-1.2 1.5-2.7 3-4.9 4.4.1-5.6-2.8-10.3-5.4-13.4 1.7.1 3.4.2 5 .3 2.3 2.4 4.1 5.6 5.3 8.7z"/><path class="st0" d="M961.7 136.5h-26.5c-4 0-7.2 3.2-7.2 7.2v20.7c0 4 3.2 7.2 7.2 7.2h9.8l3.5 8.5 3.5-8.5h9.8c4 0 7.2-3.2 7.2-7.2v-20.7c0-4-3.3-7.2-7.3-7.2z"/><path class="st3" d="M938.4 146.9c2.6-4.2 7.5-2.5 10 .8 2.6-3.2 7.5-4.8 10.1-.6 4.3 7.1-4.8 13.6-9 16.1-.5.3-.9.5-1.2.7-.3-.2-.7-.4-1.2-.7-4.2-2.6-13.1-9.3-8.7-16.3z"/><path class="st0" d="M901.4 176.3h-13.3c-2 0-3.6 1.6-3.6 3.6v10.4c0 2 1.6 3.6 3.6 3.6h4.9l1.8 4.3 1.8-4.3h4.9c2 0 3.6-1.6 3.6-3.6V180c-.1-2-1.7-3.7-3.7-3.7z"/><path class="st3" d="M889.8 181.6c1.3-2.1 3.8-1.2 5 .4 1.3-1.6 3.8-2.4 5-.3 2.1 3.6-2.4 6.8-4.5 8-.2.1-.4.3-.6.4-.2-.1-.4-.2-.6-.4-2.1-1.3-6.5-4.6-4.3-8.1z"/><g id="_x3C_Group_x3E__65_"><path class="st0" d="M596.3 602.3c-15.2 32.6-35.2 36.1-35.2 36.1l-24-28.1s17.2-10.4 21.2-22.9-3.4-94.5 17.9-111.6c0 0 2.5 6.5 5.8 16.7 6.5 19.9 16.3 53.7 17.9 80.6.7 11.6-.2 21.9-3.6 29.2z"/><path d="M599.9 573c-20.9-37.3-23.1-64.3-17.9-80.6 6.5 20 16.3 53.8 17.9 80.6z" style="opacity:.1;enable-background:new"/><path class="st1" d="M598.8 655.5s-153.4-42.8-172.6 11c-19.3 53.8 120 96.7 197 99.4s108.5-51.4 85.8-102.8l-110.2-7.6z"/><path class="st5" d="M598.8 655.5s-153.4-42.8-172.6 11c-19.3 53.8 120 96.7 197 99.4s108.5-51.4 85.8-102.8l-110.2-7.6z"/><path class="st0" d="m723.4 694.2-142.5-24.4c25-48.1 17-121.2-4.7-194 15.1-12.6 75.4-21.1 121.5-7.8 0 0 2.7 10.1 6.4 27.5 4.4 20.8 10.2 52.1 14.3 89 3.7 33.2 6.1 70.9 5 109.7z"/><path class="st3" d="m723.4 694.2-142.5-24.4c21.2-40.8 18.7-99.6 4.2-161 12.1-23.1 27.6-26.1 27.6-26.1 15.7 22.1 48 0 48 0 30 18.1 47.9 55.9 53.6 69.7 5.8 39.8 10.6 89.8 9.1 141.8z"/><path d="M718.4 584.6c-10.6-8.7-20.4-20.3-25.2-35.5-11.6-36.8 6.5-50.7 10.8-53.5 4.5 20.8 10.3 52.1 14.4 89z" style="opacity:.1"/><path class="st0" d="M443.8 739.5c-1.2-.9-2-2.1-2.4-3.5-.2-.9.2-1.9.9-2.5.4-.4 1-.6 1.5-.5 2.6.8 5.1 8.2 5.4 9 .1.2 0 .4-.1.5-.2.1-.4.1-.6 0-1.6-.7-3.2-1.8-4.7-3zm.4-5.1c-.2-.2-.4-.3-.6-.3-.2-.1-.5 0-.6.2-.5.4-.8 1.1-.7 1.7 1.1 2.4 3.1 4.2 5.5 5.3-.7-2.6-1.9-4.9-3.6-6.9z"/><path class="st0" d="m448.4 742.6-.1-.2c-.9-2.3-1.1-8.3.7-9.6.6-.4 1.5-.3 2.1.2.6.4 1.1 1.1 1.2 1.9.6 3-3 7.5-3.2 7.7-.1.1-.3.2-.5.1 0 0-.1 0-.2-.1zm2.3-8.7-.2-.1c-.6-.4-.8-.2-.9-.1-1.1.8-1.3 5-.7 7.5 1-1.4 2.8-4.3 2.4-6.2-.1-.4-.3-.8-.6-1.1zm155.2 41.6c.2 1.4-.1 2.9-.8 4.2-.6.8-1.5 1.2-2.4 1.1-.6 0-1.1-.3-1.4-.8-1.3-2.4 2.3-9.4 2.7-10.2.1-.2.3-.3.4-.2.2 0 .4.2.4.4.6 1.7 1 3.6 1.1 5.5zm-3.9 3.2c0 .2.1.5.2.7.1.2.3.3.5.3.6.1 1.3-.2 1.7-.7.9-2.5.9-5.2-.1-7.6-1.2 2.2-2 4.7-2.3 7.3z"/><path class="st16" d="m567.7 718.1 27.1 19.9 13.1 9.5-8.5 14.9-13.3-7.3-32.3-17.6z"/><path class="st1" d="m595.2 761.9 8.2-18.1c.5-1 1.7-1.4 2.6-1l8.8 4.3s12.3 5 13.8 9c4.5 11.7-12.6 52.1-17.9 52.1-2 0-3.1-3-3.4-4.9-.9-6.1-1-21.5-1.8-26.6-.9-6-6.9-10.5-9.7-12.4-.8-.5-1-1.5-.6-2.4z"/><path class="st0" d="m604.9 770-.1.2c-1 2.2-5.1 6.6-7.4 6.2-.8-.2-1.3-.8-1.3-1.6-.1-.8 0-1.5.5-2.2 1.8-2.5 7.5-3.1 7.8-3.1.2 0 .4.1.4.2.1.1.1.2.1.3zm-7.8 4.4v.2c.1.7.4.7.5.7 1.3.3 4.4-2.6 5.9-4.8-1.7.3-5 1-6.1 2.6-.2.5-.3.9-.3 1.3z"/><path class="st5" d="m567.7 718.1 27.1 19.9-8.7 17.1-32.3-17.6z"/><path class="st0" d="m579.9 756.3-8.9-2 14.8-28.3 8.3 8.4z"/><path class="st3" d="m579.9 756.3-8.9-2 14.8-28.3 8.3 8.4z"/><path class="st16" d="m511.5 752.3-33.2 5.5-15.9 2.6-4.7-16.4 14.5-4.4 35.2-10.7z"/><path class="st1" d="m461 741.3 7.2 18.5c.4 1-.1 2.2-1.2 2.6l-9.3 3.3s-12.2 5.3-16.1 3.6c-11.5-4.9-28.4-45.4-24.7-49.3 1.4-1.4 4.3-.1 5.9 1 5 3.7 16.1 14.3 20.3 17.3 4.9 3.5 12.4 2.4 15.6 1.7 1-.1 2 .4 2.3 1.3z"/><path class="st5" d="m511.5 752.3-33.2 5.5-6.1-18.2 35.2-10.7z"/><path class="st1" d="M477.9 736.1s138-81.4 184.7-79.2c46.7 2.2 50.8 48.7 31.5 74.4-19.3 25.8-54.9 32.1-54.9 32.1s24.2-34.2 20.7-43.9c-3.5-9.6-16.9 22.8-16.9 22.8s-85.5 11.2-160 17.5l-5.1-23.7z"/><path class="st0" d="m475.7 734 7.7-5.1 9.8 30.2h-11.8z"/><path class="st3" d="m475.7 734 7.7-5.1 9.8 30.2h-11.8z"/><path class="st16" d="M633.9 487.6c20.1 0 33.2-21.1 33.2-21.1-26.3-9.2-26.4-37-26.4-37l-10.1 9.9-14.6 14.2c12 8.5 6.3 15.9 2.5 19.2-1.4 1.2-2.5 1.9-2.5 1.9s-2.2 12.9 17.9 12.9z"/><path class="st5" d="M618.5 472.7c24.6 2.8 23-34.1 23-34.1-3.9 0-7.6.2-11 .8L616 453.6c12 8.5 6.4 15.9 2.5 19.1z"/><path class="st0" d="M669.6 421.1c3 2.9-9.3 10.8-29 4.1-19.6-6.8-23-26.6-23-26.6s32.5 3.6 52 22.5z"/><path d="M669.6 421.1c3 2.9-9.3 10.8-29 4.1-19.6-6.8-23-26.6-23-26.6s32.5 3.6 52 22.5z" style="opacity:.4;enable-background:new"/><path class="st1" d="M599.3 401.8c9.3 3.9 7.5 14.1-7.9 32.6-9.5-8.2-14.7-26.9-9.7-32.9 5-5.9 9.5-3 17.6.3z"/><path class="st16" d="M585.5 443.1s0 .1 0 0c.9 2.7 1.9 5.1 3 7.4 9.2 18.8 35.7 22.4 47.4 3.8 0-.1.1-.1.1-.2 7.7-12.5 4.8-24.1 1.6-44.3-.6-4.3-2.3-8.3-4.8-11.9-8.8-12.6-26.2-15.7-38.8-6.8-15.3 10.7-14.4 34.8-8.5 52z"/><path class="st1" d="M609.1 422c.4 1.6-.2 3.1-1.3 3.4-1.1.2-2.2-.9-2.6-2.5-.4-1.6.2-3.1 1.2-3.4 1.2-.3 2.3.9 2.7 2.5zm-18.4 4.1c.4 1.6-.2 3.1-1.3 3.4-1.1.2-2.2-.9-2.6-2.5-.4-1.6.2-3.1 1.3-3.4 1.1-.2 2.2.9 2.6 2.5z"/><path d="M596.9 425.5c-.8 5.4-2.4 10.6-4.6 15.6 3.5 2 8.1-.3 8.1-.3l-3.5-15.3z" style="fill:#fd5652"/><path class="st1" d="M612.9 415c.2 0 .4-.1.6-.3.4-.4.3-1-.1-1.4-2.3-2.1-5.6-2.9-8.6-2.2-.5.1-.8.6-.7 1.1v.1c.2.5.7.8 1.2.7 2.4-.5 5 .1 6.8 1.8.2.2.5.3.8.2zm-32 6.8c.4-.1.7-.4.7-.7.5-2.4 2.1-4.5 4.4-5.5.5-.2.8-.7.6-1.3-.2-.5-.7-.8-1.2-.6-2.9 1.3-5 3.8-5.6 6.9-.1.5.2 1 .7 1.2h.4zm44.9-27.8c-8.6 5.3-5.2 15.1 13 30.9 8.1-9.6 10.2-28.9 4.3-34-5.9-5.1-9.8-1.5-17.3 3.1z"/><path class="st16" d="M650.7 423.6c-.3 5.1-2.6 9.9-6.5 13.4-5.1 4.5-10.6.6-11.6-5.8-.9-5.7.6-15 7-17 6.3-2 11.5 3.1 11.1 9.4z"/><path d="M616 441.1s-2.1 7.3-11.9 9" style="fill:none;stroke:#1a2e35;stroke-width:.5572;stroke-linecap:round;stroke-linejoin:round;stroke-miterlimit:10"/><path class="st1" d="M618.1 398.1s-5.5 2-8 5.6c0 0-.9-1.4 0-4.1 0 0-5.9 3.1-8.6 7 0 0-1.7-3.4-1.4-6.5 0 0-2.9 4.8-3.8 8.4 0 0-6.9-2.5-7.5-7.9 0 0-.5 2.9 0 7 0 0-4.6-1.4-5.5-6.1 0 0-1.5 3.9-1.2 8.5 0 0-5.1-2.4-3.6-9.4 1.5-7 21.3-17.9 32.9-14.5 11.4 3.3 6.7 12 6.7 12z"/><path class="st0" d="M577.8 403.4s.2-20.3 8.5-28 37.7-10.1 52.2-2.5c14.6 7.6 9.3 35.1 9.3 35.1s-29.9-15.2-70-4.6z"/><path class="st1" d="M588 396.9s7.9-2.7 18.4-1.5c0 0 5.2-9.1-7.7-9.6-9.4-.4-11.2 4.5-10.7 11.1z"/><path class="st0" d="m632.2 402.7 16.2.1s12.9 7.4 21.2 18.3c0 0-12.5-10.8-37.4-18.4z"/><path class="st5" d="m632.2 402.7 16.2.1s12.9 7.4 21.2 18.3c0 0-12.5-10.8-37.4-18.4zm56.3 224.8L641 680.1s-52.5-1.2-116.2 30c0 0-68.4-28.3-74.7-51.7-6.3-23.5 143.6-6.9 143.6-6.9l94.8-24z"/><path class="st16" d="m675 612-76.1 24.9s-27.2-6-32.1-6c-4.9 0-23.6 15.3-13 20.6 10.6 5.3 39.6 6 42.8 4.3s87.6-21.5 87.6-21.5L675 612z"/><path class="st0" d="M697.6 468c-17.2-3.3 12.7 101.6 5.3 117.1S667 610.3 667 610.3l13.2 29.1s38.9-7.3 60.1-34.3c21.2-26.9-14.6-131.6-42.7-137.1z"/><path class="st0" d="m667 608 16.1 31.4-13.8 3-12.6-29z"/><path class="st4" d="m667 608 16.1 31.4-13.8 3-12.6-29z"/><path class="st1" d="M635.5 651.5v5c0 3.4-2.8 6.5-6.2 6.5h-184c-3.4 0-6.7-3.1-6.7-6.5v-5h196.9z"/><path class="st4" d="M635.5 651.5v5c0 3.4-2.8 6.5-6.2 6.5h-184c-3.4 0-6.7-3.1-6.7-6.5v-5h196.9z"/><path class="st4" d="M566.9 651.5v5c0 3.4-2.8 6.5-6.2 6.5H445.3c-3.4 0-6.7-3.1-6.7-6.5v-5h128.3z"/><path class="st1" d="M560.6 658.4H439c-3.7 0-7.7-2.9-8.8-6.5l-27.9-87.5c-1.1-3.6.9-6.7 4.7-6.7h121.6c3.7 0 7.7 3.1 8.8 6.7l27.9 87.4c1.2 3.5-.9 6.6-4.7 6.6z"/><path class="st4" d="M560.6 658.4H439c-3.7 0-7.7-2.9-8.8-6.5l-27.9-87.5c-1.1-3.6.9-6.7 4.7-6.7h121.6c3.7 0 7.7 3.1 8.8 6.7l27.9 87.4c1.2 3.5-.9 6.6-4.7 6.6z"/><path class="st4" d="M556.1 658.4H439c-3.7 0-7.7-2.9-8.8-6.5l-27.9-87.5c-1.1-3.6.9-6.7 4.7-6.7h117c3.7 0 7.7 3.1 8.8 6.7l27.9 87.4c1.2 3.5-.9 6.6-4.6 6.6z"/><path class="st4" d="M484.9 612c1.5 5.8-1.4 10.6-6.5 10.6s-10.4-4.7-11.9-10.6c-1.5-5.8 1.4-10.6 6.5-10.6 5.1.1 10.4 4.8 11.9 10.6z"/><path class="st0" d="M474.3 506.1h-26.5c-4 0-7.2 3.2-7.2 7.2V534c0 4 3.2 7.2 7.2 7.2h9.8l3.5 8.5 3.5-8.5h9.8c4 0 7.2-3.2 7.2-7.2v-20.7c-.1-4-3.3-7.2-7.3-7.2z"/><path class="st3" d="M451 516.5c2.6-4.2 7.5-2.5 10 .8 2.6-3.2 7.5-4.8 10.1-.6 4.3 7.1-4.8 13.6-9 16.1-.5.3-.9.5-1.2.7-.3-.2-.7-.4-1.2-.7-4.3-2.6-13.1-9.3-8.7-16.3z"/><path class="st0" d="M543.7 525.3h-13.3c-2 0-3.6 1.6-3.6 3.6v10.4c0 2 1.6 3.6 3.6 3.6h4.9l1.8 4.3 1.8-4.3h4.9c2 0 3.6-1.6 3.6-3.6v-10.4c-.1-2-1.7-3.6-3.7-3.6z"/><path class="st3" d="M532.1 530.5c1.3-2.1 3.8-1.2 5 .4 1.3-1.6 3.8-2.4 5-.3 2.1 3.6-2.4 6.8-4.5 8-.2.1-.4.3-.6.4-.2-.1-.4-.2-.6-.4-2.1-1.2-6.5-4.6-4.3-8.1z"/><path class="st0" d="M511.6 458.4h-17.8c-2.7 0-4.9 2.2-4.9 4.9v13.9c0 2.7 2.2 4.9 4.9 4.9h6.5l2.4 5.7 2.4-5.7h6.5c2.7 0 4.9-2.2 4.9-4.9v-13.9c0-2.7-2.2-4.9-4.9-4.9z"/><path class="st3" d="M496 465.4c1.8-2.8 5.1-1.7 6.7.5 1.7-2.2 5.1-3.2 6.8-.4 2.9 4.8-3.2 9.1-6.1 10.8-.3.2-.6.4-.8.5-.2-.1-.5-.3-.8-.5-2.8-1.7-8.8-6.2-5.8-10.9z"/><path class="st4" d="m595.2 761.9 8.2-18.1c.5-1 1.7-1.4 2.6-1l8.8 4.3s12.3 5 13.8 9c4.5 11.7-12.6 52.1-17.9 52.1-2 0-3.1-3-3.4-4.9-.9-6.1-1-21.5-1.8-26.6-.9-6-6.9-10.5-9.7-12.4-.8-.5-1-1.5-.6-2.4zM461 741.3l7.2 18.5c.4 1-.1 2.2-1.2 2.6l-9.3 3.3s-12.2 5.3-16.1 3.6c-11.5-4.9-28.4-45.4-24.7-49.3 1.4-1.4 4.3-.1 5.9 1 5 3.7 16.1 14.3 20.3 17.3 4.9 3.5 12.4 2.4 15.6 1.7 1-.1 2 .4 2.3 1.3z"/></g></svg>