<svg version="1.1" id="a8897f4c-2937-4134-8b3a-fee1040aeff6" xmlns="http://www.w3.org/2000/svg" x="0" y="0" viewBox="0 0 1066.1 824.2" style="enable-background:new 0 0 1066.1 824.2" xml:space="preserve"><style>.st0{fill:#ebb376}.st1{fill:#1a2e35}.st2{opacity:5.000000e-02;fill:#fff;enable-background:new}.st3{fill:#007cff}.st4{opacity:.2;enable-background:new}.st6{fill:#fff}</style><path class="st0" d="M637.5 212.2s24.1-24.1 31.9-41.3c0 0-2.9-9.6-.2-14.6 2.8-5 18.8-19.2 23.1-16.2 4.3 3 10.5 15 7.9 20-2.6 5-18.3 15.3-18.3 15.3s-19.5 39.2-31.6 48c-12.1 8.9-12.8-11.2-12.8-11.2z"/><path class="st1" d="M576.5 139.7c14 1.8 30.1 69.9 41.3 76.3 11.2 6.4 40.3-31.2 40.3-31.2l13.4 15.2s-38.5 53.6-53.7 48.8c-15.2-4.8-43.9-57.6-43.9-57.6l2.6-51.5z"/><path class="st2" d="M576.5 139.7c14 1.8 30.1 69.9 41.3 76.3 11.2 6.4 40.3-31.2 40.3-31.2l13.4 15.2s-38.5 53.6-53.7 48.8c-15.2-4.8-43.9-57.6-43.9-57.6l2.6-51.5z"/><path class="st0" d="m661.8 767.9-18.5 3.3-7.5-25.2-6.9-23.1 21.2-7.4 6.2 27.7z"/><path class="st1" d="M639.2 770.7c-.3-2 25-4.9 25-4.9s18.1 12.9 33.7 13.8c15.6.9 8.8 11.3-7.9 14.3-16.7 2.9-29.4 5.2-41.3 7.3-11.9 2.1-6.3-9.3-9.5-30.5z"/><path class="st3" d="M676.5 770c-3.5 0-7.9-1.1-9.1-1.5-.1 0-.2-.1-.2-.1-.1 0-.1-.1-.2-.2 0 0-.1-.1-.1-.2v-.3c0-.3 1.1-6.5 4.3-8.5 1-.6 2.1-.8 3.2-.5 1.2.3 1.9.9 2 1.8.2 1.3-1.4 3-3.2 4.4 2.1-.6 4.2-.9 5.7-.4.8.3 1.3.8 1.6 1.5.6 1.4.3 2.3-.1 2.8-.6.9-2.1 1.2-3.9 1.2zm-6.8-2.3c4 .9 8.8 1.5 9.8.3.1-.1.4-.4-.1-1.3-.2-.3-.4-.6-.9-.7-1.9-.8-6.1.6-8.8 1.7zm3.7-7.7c-.5 0-1 .1-1.4.4-1.7 1.1-2.8 4.1-3.3 6.1 3.5-2.1 6.7-4.6 6.6-5.8 0-.4-.7-.6-1-.7-.4.1-.7 0-.9 0z"/><path class="st4" d="m656.4 743.8-20.5 2.7-7-23.3 21.3-7.6z"/><path class="st0" d="M538.6 775.8h-18.7l-3.1-26.1-2.8-23.9 22.2-3.6 1.3 28.4z"/><path class="st1" d="M515.8 774.6c0-2.1 25.4-.4 25.4-.4s15.6 15.9 30.8 19.4c15.2 3.6 6.7 12.7-10.3 12.7h-41.9c-12 0-4.5-10.3-4-31.7z"/><path class="st3" d="M554.6 780.7c-3.5 0-9.2-2.6-10.5-3.2-.1 0-.2-.1-.2-.2l-.1-.1c-.1-.2-.1-.3 0-.5.1-.3 2.2-6.2 5.7-7.6 1.1-.5 2.2-.4 3.3.1 1.2.5 1.7 1.3 1.7 2.1-.1 1.3-1.9 2.7-3.9 3.8 2.1-.2 4.3-.2 5.7.6.7.4 1.2 1 1.4 1.7.4 1.5-.1 2.3-.6 2.7-.8.4-1.5.6-2.5.6zm-8.2-3.7c3.7 1.6 8.4 3 9.6 2 .1-.1.4-.3.2-1.3-.1-.4-.3-.7-.7-.9-1.9-1.1-6.2-.4-9.1.2zm4.6-7c-.3 0-.7.1-1 .2-1.9.8-3.5 3.5-4.4 5.5 3.8-1.4 7.4-3.4 7.5-4.5 0-.4-.6-.7-.9-.8-.5-.3-.8-.4-1.2-.4z"/><path class="st4" d="m537.5 751.1-20.7-.9L514 726l22.2-3.7z"/><path class="st3" d="m658.1 729.2-30.3 5.3c-30.6-76.3-52.4-139.9-67.8-192.7-8.3-28.5-14.7-53.9-19.7-76.3l1.4 83V737h-30.8c-74.9-357.3-21.8-439-21.8-439l89.6-15.3c3.4 13.4 6 35.1 7.5 50.2l4 29.6 35 180.9 32.9 185.8z"/><path class="st3" d="m623.1 730.8 37.6-12.5-.5 16-31.1 9.9zm-116.2 1.7 39.2-5.7-3.2 15.6-32.4 4.4z"/><path class="st1" d="M570.7 102.5c-.1 0-.3 0-.4-.1-11.4-6.9-21.6-32.3-22.1-33.4-.2-.4 0-.8.4-1 .4-.1.8 0 1 .4.1.3 10.4 26 21.4 32.6.4.2.5.7.3 1-.1.3-.4.5-.6.5z"/><path class="st1" d="M478.7 35.8s4.5-15.2 34.2-17.7c29.8-2.6 44.6 26.7 37.6 48.5 0 0 6.3 29.7 18.3 38.4 0 0-57.3 25.9-86.2 26-6.4 0-20.2-31.9-22-54.9-1.7-22.2 5-39.6 18.1-40.3zm10.4 248.8V298l91.4-7v-15.8z"/><path style="opacity:.3;fill:#fff;enable-background:new" d="M489.1 284.6V298l91.4-7v-15.8z"/><path transform="rotate(-5.126 550.045 286.998)" class="st6" d="M540 279.3h20.1v15.2H540z"/><path transform="rotate(-2.927 518.125 290.67)" class="st3" d="M515.9 279.1h4.5v23.1h-4.5z"/><path transform="rotate(-2.922 573.96 284.562)" class="st3" d="M571.7 273h4.5v23.1h-4.5z"/><path class="st1" d="m580.9 276.8-91.4 7.9c-.9-13.8-1.8-25.7-3.9-38.9-1.3-8.5-3.2-17.6-5.9-28.2-2.1-8.3-4.6-17.5-7.9-28.1-.2-.6-.3-1.2-.5-1.7-1.9-6-15.3-1.4-16.5-8.7-5.3-32.3 29.6-34.7 42.4-36.8 13.5-2.4 27.3-3.9 41.1-4.3 17.8-.2 38.2 1.9 38.2 1.9s2.9.7 4.7 19.6c1.7 17.5 3.4 52.9-.3 117.3z"/><path class="st0" d="M530.8 158.1c-22.5-2.9-29.3-12.5-29.3-12.5 14.3-13.5 2.4-36.9 2.4-36.9l27.1 5.1c-.7 4.5-1 8.2-1.1 11.4-.2 16.5 7.2 16.6 7.2 16.6 4.8 8.9-6.3 16.3-6.3 16.3z"/><path class="st4" d="M531 113.7c-.7 4.5-1 8.2-1.1 11.4-18.3 0-26.1-16.5-26.1-16.5l27.2 5.1z"/><path class="st0" d="M510.2 37.8c23-5.2 33.2 5.4 40.3 28.8 8.8 29.2 7 51.7-23.2 51.9-41.1.3-55.3-72-17.1-80.7z"/><path d="M535.3 68.7s4.6 5.3 8.9 8c0 0-1.3 3.6-5.5 4l-3.4-12z" style="fill:#d58745"/><path class="st1" d="M520.8 70c.5 1.9-.2 3.7-1.4 4-1.3.3-2.7-1-3.1-2.8-.5-1.9.2-3.7 1.4-4 1.2-.3 2.6.9 3.1 2.8z"/><path class="st1" d="m517.2 67.4 3.7-2.6s-1.2 3.9-3.7 2.6zm26.9-3.7c.5 1.9-.2 3.7-1.4 4-1.3.3-2.7-1-3.1-2.8-.5-1.9.2-3.7 1.4-4 1.2-.3 2.6 1 3.1 2.8z"/><path class="st1" d="m540.5 61.1 3.7-2.6s-1.2 3.9-3.7 2.6zm-32.7-.1c-.2 0-.3 0-.5-.1-.5-.3-.8-.9-.5-1.5 2.8-5.6 9.8-6.3 10.1-6.4.6-.1 1.1.4 1.2 1 .1.6-.4 1.1-1 1.2-.1 0-6.1.6-8.3 5.1-.2.5-.6.7-1 .7zm25.7-10.5c-.4 0-.7-.2-.9-.5-.3-.5-.2-1.2.3-1.5.2-.1 4.3-2.7 10.6-.3.6.2.9.9.6 1.4-.2.6-.9.9-1.4.6-5.2-2-8.5 0-8.6.1-.2.1-.4.2-.6.2zm3.9 40c-.7 3.1-.9 8.6-.9 8.6-.5.1-1 .1-1.5.2-6.9.8-10.3-1-12.1-3.4-1-1.3-1.4-2.7-1.6-3.9-.2-1.4-.1-2.4-.1-2.4 3.9 1.7 10.4 1.4 13.8 1.1 1.5 0 2.4-.2 2.4-.2z"/><path class="st6" d="m535.1 90.8-.3 2.5c-6.5.8-11.1.5-13.4-1.3-.2-1.4-.1-2.4-.1-2.4 3.9 1.8 10.3 1.5 13.8 1.2z"/><path d="M535 99.3c-6.9.8-10.3-1-12.1-3.4 2.3-.2 5.2-.2 7.8.6 2 .6 3.4 1.7 4.3 2.8z" style="fill:#de5753"/><path class="st1" d="M493.8 82.3s6.5-21.4 1.5-35.6c0 0 41.4-29 54.2 16.8 0 0-4.9-42.1-44.7-34.1-39.7 8-26.5 65.9-2.2 78.6.1 0-12.8-12.3-8.8-25.7z"/><path class="st0" d="M498.7 86.4c-1-3.7-6.2-9.1-13-6.8-7 2.4-7 17.8 11.5 17.3 2.7-.1 3.6-2.9 1.5-10.5z"/><path class="st1" d="M495.4 46.7s23.9-8.8 37.3-2.2c0 0-14.5-13-39-.8l1.7 3z"/><path class="st0" d="M480.6 148s26.5 21.5 51.1 21.1c24.6-.3 33.3-28 33.3-28s-38.3-11.3-84.4 6.9z"/><path class="st4" d="M560.1 541.8c-8.3-28.5-14.7-53.9-19.7-76.3 0 0 .5-43.7 5.8-79.6 0-.1 13.1 102.6 13.9 155.9z"/><path class="st0" d="M406.5 195.6s-18.1-28.9-21.9-47.4c0 0 5-8.7 3.4-14.2s-14.1-23-18.9-21c-4.9 2-13.6 12.3-12.2 17.7 1.4 5.5 14.4 19 14.4 19s10.3 42.5 20.1 53.8c10 11.5 15.1-7.9 15.1-7.9z"/><path class="st1" d="M455.9 163.2c9.2-1.3 27.8 16.7 25 32.3-2.8 15.6-28.9 59.3-49 55.9-28.4-4.8-59.6-79.7-59.6-79.7l15.6-13.6s36.8 63.7 44 62.5c7.3-1.3 24-57.4 24-57.4z"/><path class="st2" d="M455.9 163.2c9.2-1.3 27.8 16.7 25 32.3-2.8 15.6-28.9 59.3-49 55.9-28.4-4.8-59.6-79.7-59.6-79.7l15.6-13.6s36.8 63.7 44 62.5c7.3-1.3 24-57.4 24-57.4z"/><path class="st1" d="m365.9 167.1 22.8-13.7 3.6 5.9-21.5 19zm287.2 17.3 18.4 22.8 3.2-7.1-16.6-19.3z"/><path class="st3" d="m662.3 153.6 29.1-35.5c1-1.2 2.8-1.3 4-.3l13 12.3c1 1 1.2 2.6.2 3.7L679 170.1c-1 1.3-3 1.4-4.1.2l-12.5-13.1c-.9-1-1-2.6-.1-3.6z"/><path d="m662.3 153.6 29.1-35.5c1-1.2 2.8-1.3 4-.3l13 12.3c1 1 1.2 2.6.2 3.7L679 170.1c-1 1.3-3 1.4-4.1.2l-12.5-13.1c-.9-1-1-2.6-.1-3.6z" style="opacity:.3;enable-background:new"/><path class="st3" d="m661.1 152.1 29.1-35.5c1-1.2 2.8-1.3 4-.3l13 12.3c1 1 1.2 2.6.2 3.7l-29.6 36.3c-1 1.3-3 1.4-4.1.2l-12.5-13.1c-.9-.9-1-2.5-.1-3.6z"/><path style="opacity:.6;fill:#fff;enable-background:new" d="m691.4 118.1 14.4 13.9-28.2 34.7-14-14.8z"/></svg>