<svg version="1.1" id="b092779a-c5a4-43c0-bfaf-70dac86c4f75" xmlns="http://www.w3.org/2000/svg" x="0" y="0" viewBox="0 0 827.8 662.5" style="enable-background:new 0 0 827.8 662.5" xml:space="preserve"><style>.st0{fill:#e6e6e6}.st1{fill:#2f2e41}.st2{fill:#575a89}.st3{fill:#ffb8b8}.st4{opacity:.2;enable-background:new}.st5{fill:#fff}</style><path class="st0" d="M827.8 644.2c-5.2 25.4-275.9 23.3-275.5 0 5.1-25.5 275.9-23.3 275.5 0zm-306.9-64.9c-1.2 5.7-61.8 5.2-61.8 0 1.2-5.7 61.9-5.2 61.8 0z"/><circle class="st1" cx="677.5" cy="189.9" r="18.9"/><path class="st1" d="m658.7 182.2 11.8-2.9c16.8 0 30.5-13.6 30.5-30.5 0-2-.2-4.1-.6-6.1 0-22-17.8-39.8-39.8-39.8-22 0-39.8 17.8-39.8 39.8-4.8 16.8 4.9 34.3 21.7 39.1 5.2 1.6 10.8 1.7 16.2.4z"/><path class="st2" d="m734.8 303.4-29.3-41.7-15.9 29.5 18.2 21.2z"/><path class="st2" d="M719.5 299.2s9.1-3.8 14.4 3 14.4 21.2 11.3 23.4-12.9-6.8-12.9-6.8l-12.8-19.6z"/><ellipse transform="rotate(-38.56 736.593 326.046)" class="st3" cx="736.5" cy="326" rx="6.8" ry="12.9"/><path class="st3" d="M749 404.3s-1.5 48.4-6.8 76.4 3 128.6 3 128.6l-16.6 7.6-10.6-11.4s3.8-20.4-1.5-34.8-7.6-76.4-7.6-76.4l-9.1-83.2 49.2-6.8zm-62 14.4-47.7 87-43.1 79.4v16.6l-21.9-6.8 7.6-17.4s3.8-68.1 31-94.5l23.4-67.3 50.7 3z"/><path class="st1" d="M715.4 301.8h8.3s45.4 62 43.1 99.8l-65 26.5-2.3-5.3s-53.7 9.8-67.3-1.5l18.9-96.8 1.5-13.6 62.8-9.1zm20.8 306.7s-10.6-13.6 2.3-14.4 12.9 7.6 12.9 7.6l28.7 19.7s47.7 17.4 13.6 22.7c0 0-14.4 3-32.5-3.8-10.9-4.1-22.4-6.4-34-6.8 0 0-16.6-.8-16.6-9.1s8.1-22.7 8.1-22.7 12.9 9.1 17.5 6.8zm-163.4-18.9s25.7-5.3 26.5 4.5 0 26.5 0 26.5-6.1 7.6-4.5 12.9-3.8 21.9-21.9 19.7-12.1-28-12.1-28l12.1-29.5-.1-6.1z"/><circle class="st3" cx="655.2" cy="146.4" r="25.3"/><path class="st3" d="m672.3 160.4.4 43.5-31-10.6s3.8-25 3-27.2l27.6-5.7z"/><path class="st2" d="M677.9 191s-32.5-11.3-36.3-9.8-5.3 9.8-5.3 9.8-18.2-3.8-20.4 8.3 14.4 65 14.4 65l16.6 31s-8.3 12.9 6.1 17.4 66.6-9.8 66.6-9.8 9.1-10.6 0-10.6c0 0-3-9.8-6.1-12.1s2.3-6.1-.8-6.8-3-2.3-3-2.3 15.1-20.4 1.5-37.1-15.5-32.1-22.3-34.4-11-8.6-11-8.6z"/><ellipse transform="rotate(-67.908 661.654 364.586)" class="st3" cx="661.7" cy="364.6" rx="6.8" ry="12.9"/><path class="st2" d="M627.2 197.1h-10.7s-30.9 74.9-21.9 98.3 42.4 64.3 42.4 64.3 10.6 18.9 18.2 18.9 15.9-27.2 15.9-27.2l-24.2-10.6-28.7-52.9 13.6-40.8-4.6-50z"/><path class="st4" d="m710.1 270.8 16.6 29.5-3 1.5z"/><path transform="rotate(-14.419 688.393 380.068)" class="st4" d="M687.8 336h1.5v88.2h-1.5z"/><path class="st1" d="m624.6 136.2 4.5-8.3 6.8 4.6c1.4 2 3.7 3.1 6.1 3.1l23.8-.5c2.2 0 4.2-1 5.6-2.6 3.8 1.4 6.7 4.6 7.7 8.5l2.9 11.2v-37.8h-45.4l-12 21.8z"/><path class="st0" d="M0 0h426.9v550H0z"/><path class="st5" d="M11.9 70.6h403.2v137.8H11.9zm0 161.5h403.2v137.8H11.9zm0 161.5h403.2v137.8H11.9z"/><circle class="st5" cx="404.3" cy="21.5" r="11.3"/><circle class="st0" cx="48.8" cy="301" r="11.3"/><path class="st0" d="M81.6 291.9h106.2V310H81.6z"/><circle class="st0" cx="249.6" cy="301.5" r="11.3"/><path class="st0" d="M282.3 292.5h106.2v18.1H282.3zM410.2 17.2l-1.6-1.6-4.3 4.3-4.3-4.3-1.6 1.6 4.3 4.3-4.3 4.2 1.6 1.6 4.3-4.2 4.3 4.2 1.6-1.6-4.3-4.2z"/><circle class="st0" cx="48.8" cy="139.5" r="11.3"/><path class="st0" d="M102.5 129.3h286.8v18.1H102.5z"/><path style="fill:#41d6c3" d="M85 129.3h257.5v18.1H85z"/><circle class="st0" cx="48.8" cy="462.4" r="11.3"/><path class="st0" d="M102.5 452.3h286.8v18.1H102.5z"/><path d="M85 452.3h161.2v18.1H85zm-3.4-160.4h33.6V310H81.6zm200.7.6h66.6v18.1h-66.6z" style="fill:#5596e6"/><path class="st0" d="M513.4 555.1c.2 17.8-10.3 24.1-23.4 24.2h-.9c-.6 0-1.2 0-1.8-.1-11.8-.7-21-7.2-21.2-23.7-.2-17.1 21.5-39 23.1-40.6l.1-.1s23.9 22.5 24.1 40.3z"/></svg>