<?xml version="1.0" encoding="UTF-8"?>
<svg xmlns="http://www.w3.org/2000/svg" xmlns:xlink="http://www.w3.org/1999/xlink" width="0" height="0">
<symbol id="account" width="24" height="24" viewBox="0 0 24 24" fill="none" stroke="currentColor" stroke-width="2" stroke-linecap="round" stroke-linejoin="round" class="feather feather-alert-triangle"><path d="M10.29 3.86L1.82 18a2 2 0 0 0 1.71 3h16.94a2 2 0 0 0 1.71-3L13.71 3.86a2 2 0 0 0-3.42 0z"></path><line x1="12" y1="9" x2="12" y2="13"></line><line x1="12" y1="17" x2="12.01" y2="17"></line></symbol><symbol id="help" width="24" height="24" viewBox="0 0 24 24" fill="none" stroke="currentColor" stroke-width="2" stroke-linecap="round" stroke-linejoin="round" class="feather feather-life-buoy"><circle cx="12" cy="12" r="10"></circle><circle cx="12" cy="12" r="4"></circle><line x1="4.93" y1="4.93" x2="9.17" y2="9.17"></line><line x1="14.83" y1="14.83" x2="19.07" y2="19.07"></line><line x1="14.83" y1="9.17" x2="19.07" y2="4.93"></line><line x1="14.83" y1="9.17" x2="18.36" y2="5.64"></line><line x1="4.93" y1="19.07" x2="9.17" y2="14.83"></line></symbol><symbol id="notifications" width="24" height="24" viewBox="0 0 24 24" fill="none" stroke="currentColor" stroke-width="2" stroke-linecap="round" stroke-linejoin="round" class="feather feather-bell"><path d="M18 8A6 6 0 0 0 6 8c0 7-3 9-3 9h18s-3-2-3-9"></path><path d="M13.73 21a2 2 0 0 1-3.46 0"></path></symbol><symbol id="preferences" width="24" height="24" viewBox="0 0 24 24" fill="none" stroke="currentColor" stroke-width="2" stroke-linecap="round" stroke-linejoin="round" class="feather feather-sliders"><line x1="4" y1="21" x2="4" y2="14"></line><line x1="4" y1="10" x2="4" y2="3"></line><line x1="12" y1="21" x2="12" y2="12"></line><line x1="12" y1="8" x2="12" y2="3"></line><line x1="20" y1="21" x2="20" y2="16"></line><line x1="20" y1="12" x2="20" y2="3"></line><line x1="1" y1="14" x2="7" y2="14"></line><line x1="9" y1="8" x2="15" y2="8"></line><line x1="17" y1="16" x2="23" y2="16"></line></symbol><symbol id="privacy" width="24" height="24" viewBox="0 0 24 24" fill="none" stroke="currentColor" stroke-width="2" stroke-linecap="round" stroke-linejoin="round" class="feather feather-lock"><rect x="3" y="11" width="18" height="11" rx="2" ry="2"></rect><path d="M7 11V7a5 5 0 0 1 10 0v4"></path></symbol><symbol id="security" width="24" height="24" viewBox="0 0 24 24" fill="none" stroke="currentColor" stroke-width="2" stroke-linecap="round" stroke-linejoin="round" class="feather feather-shield"><path d="M12 22s8-4 8-10V5l-8-3-8 3v7c0 6 8 10 8 10z"></path></symbol><symbol id="general" width="24" height="24" viewBox="0 0 24 24" fill="none" stroke="currentColor" stroke-width="2" stroke-linecap="round" stroke-linejoin="round" class="feather feather-general"><circle cx="12" cy="12" r="3"></circle><path d="M19.4 15a1.65 1.65 0 0 0 .33 1.82l.06.06a2 2 0 0 1 0 2.83 2 2 0 0 1-2.83 0l-.06-.06a1.65 1.65 0 0 0-1.82-.33 1.65 1.65 0 0 0-1 1.51V21a2 2 0 0 1-2 2 2 2 0 0 1-2-2v-.09A1.65 1.65 0 0 0 9 19.4a1.65 1.65 0 0 0-1.82.33l-.06.06a2 2 0 0 1-2.83 0 2 2 0 0 1 0-2.83l.06-.06a1.65 1.65 0 0 0 .33-1.82 1.65 1.65 0 0 0-1.51-1H3a2 2 0 0 1-2-2 2 2 0 0 1 2-2h.09A1.65 1.65 0 0 0 4.6 9a1.65 1.65 0 0 0-.33-1.82l-.06-.06a2 2 0 0 1 0-2.83 2 2 0 0 1 2.83 0l.06.06a1.65 1.65 0 0 0 1.82.33H9a1.65 1.65 0 0 0 1-1.51V3a2 2 0 0 1 2-2 2 2 0 0 1 2 2v.09a1.65 1.65 0 0 0 1 1.51 1.65 1.65 0 0 0 1.82-.33l.06-.06a2 2 0 0 1 2.83 0 2 2 0 0 1 0 2.83l-.06.06a1.65 1.65 0 0 0-.33 1.82V9a1.65 1.65 0 0 0 1.51 1H21a2 2 0 0 1 2 2 2 2 0 0 1-2 2h-.09a1.65 1.65 0 0 0-1.51 1z"></path></symbol></svg>