<svg xmlns="http://www.w3.org/2000/svg" version="1.1" id="Layer_1" x="0" y="0" viewBox="0 0 500 500" style="enable-background:new 0 0 500 500" xml:space="preserve"><style>.st1{fill:#ebebeb;opacity:.17}.st2,.st3{fill:#fafafa}.st3,.st4,.st5{opacity:.17}.st5{fill:#f5f5f5}.st6,.st7{opacity:.17;fill:#e0e0e0}.st7{fill:#e6e6e6}.st12{fill:#407bff}.st16{fill:#7fb8ef}.st17{fill:#3d94c4}.st18{enable-background:new}.st19{fill:#5596e6}.st20{fill:none;stroke:#3d94c4;strokeLmiterlimit:10}.st21{fill:#263238}.st22,.st23,.st24{enable-background:new}.st22{opacity:.3;fill:#fff}.st23{opacity:.2}.st24{opacity:.6;fill:#fff}.st25{fill:#ebb376}.st27,.st28{enable-background:new}.st27{opacity:.4;fill:#fff}.st28{opacity:.2}.st28,.st30{fill:#fff}.st31{fill:#de5753}.st32,.st33{enable-background:new}.st32{opacity:.7;fill:#fff}.st33{opacity:.4}.st34{fill:#e4897b}.st36{opacity:.5;fill:#fff;enable-background:new}</style><g id="Background_Complete"><path d="M0 382.4h500v.3H0zm50.1 16.1h33.1v.3H50.1zm118.7 2.7h8.7v.3h-8.7zm-84.6-12h19.2v.3H84.2zm320.1 1.7h43.2v.3h-43.2zm-15.2 0h6.3v.3h-6.3zm-114.2 4.2h93.7v.3h-93.7z" style="opacity:.25;fill:#ebebeb"/><path class="st1" d="M257.3 332.1V60.7c0-3.1 2.6-5.7 5.7-5.7h193.1c3.1 0 5.7 2.6 5.7 5.7v271.4c0 3.1-2.6 5.7-5.7 5.7H263c-3.2 0-5.7-2.6-5.7-5.7zM263 55.2c-3 0-5.5 2.4-5.5 5.5v271.4c0 3 2.4 5.5 5.5 5.5h193.1c3 0 5.5-2.4 5.5-5.5V60.7c0-3-2.4-5.5-5.5-5.5H263zM41 332.1V60.7c0-3.1 2.6-5.7 5.7-5.7h193.1c3.1 0 5.7 2.6 5.7 5.7v271.4c0 3.1-2.6 5.7-5.7 5.7H46.7c-3.2 0-5.7-2.6-5.7-5.7zm5.7-276.9c-3 0-5.5 2.4-5.5 5.5v271.4c0 3 2.4 5.5 5.5 5.5h193.1c3 0 5.5-2.4 5.5-5.5V60.7c0-3-2.4-5.5-5.5-5.5H46.7z"/><path class="st2" d="M157 219h25.5v10.8H157zm15.4 15.1h25.5v10.8h-25.5z"/><path class="st3" d="M95.4 249.1h25.5v10.8H95.4zm30.8 0h25.5v10.8h-25.5z"/><path class="st2" d="M157 249.1h25.5v10.8H157z"/><path class="st3" d="M187.8 249.1h25.5v10.8h-25.5zm30.8 0h25.5v10.8h-25.5zm-107.8 15.1h25.5V275h-25.5z"/><path class="st2" d="M141.6 264.2h25.5V275h-25.5z"/><path class="st3" d="M172.4 264.2h25.5V275h-25.5zm30.8 0h25.5V275h-25.5z"/><g class="st4"><path class="st2" d="M323.4 65.4h25.5v10.8h-25.5zm30.8 0h25.5v10.8h-25.5zm46.2 15h25.5v10.8h-25.5zm30.8 0h25.5v10.8h-25.5zm-77 15.1h25.5v10.8h-25.5zm61.6 0h25.5v10.8h-25.5zM55.1 65.8h25.5v10.8H55.1zm30.8 0h25.5v10.8H85.9zm-15.4 15H96v10.8H70.5z"/></g><g class="st4"><path class="st2" d="M193.1 66h25.5v10.8h-25.5zm30.8 0h25.5v10.8h-25.5zm-46.2 15.1h25.5v10.8h-25.5zm30.8 0H234v10.8h-25.5zm30.8 0h25.5v10.8h-25.5z"/></g><path class="st2" d="M296.3 216.3h25.5v10.8h-25.5z"/><path class="st3" d="M357.9 216.3h25.5v10.8h-25.5zm30.8 0h25.5v10.8h-25.5zm-107.8 15h25.5v10.8h-25.5z"/><path class="st2" d="M311.7 231.3h25.5v10.8h-25.5z"/><path class="st3" d="M373.3 231.3h25.5v10.8h-25.5zm30.8 0h25.5v10.8h-25.5zm-46.2 15.1h25.5v10.8h-25.5zm30.8 0h25.5v10.8h-25.5zm-132.3 55.4h25.5v10.8h-25.5z"/><path class="st2" d="M287.2 301.8h25.5v10.8h-25.5zm30.8 0h25.5v10.8H318zm30.8 0h25.5v10.8h-25.5z"/><path class="st3" d="M241 316.9h25.5v10.8H241zm30.8 0h25.5v10.8h-25.5z"/><path class="st2" d="M333.4 316.9h25.5v10.8h-25.5z"/><path class="st3" d="M225.6 332h25.5v10.8h-25.5zm30.8 0h25.5v10.8h-25.5zm30.8 0h25.5v10.8h-25.5zM241 347.1h25.5v10.8H241zm30.8 0h25.5v10.8h-25.5zm30.8 0h25.5v10.8h-25.5zM82.3 301.2h25.5V312H82.3zm30.8 0h25.5V312h-25.5z"/><path class="st2" d="M143.9 301.2h25.5V312h-25.5z"/><path class="st3" d="M66.8 316.2h25.5V327H66.8zm30.9 0h25.5V327H97.7zm30.8 0H154V327h-25.5z"/><path class="st2" d="M159.3 316.2h25.5V327h-25.5z"/><path class="st3" d="M51.4 331.3h25.5v10.8H51.4zm30.9 0h25.5v10.8H82.3zm30.8 0h25.5v10.8h-25.5zm30.8 0h25.5v10.8h-25.5zm-77.1 15.1h25.5v10.8H66.8zm30.9 0h25.5v10.8H97.7zm30.8 0H154v10.8h-25.5zm30.8 0h25.5v10.8h-25.5z"/><path class="st5" d="M279.2 79.7h72.1v95.1h-72.1z"/><path class="st1" d="M326.8 89.9v41.8l-16.7-.9-1.9-40.9z"/><path class="st6" d="M313.3 98h-25.7l.3 36.6 13.2.2z"/><path class="st7" d="M338.2 92.6h-6.7l2.3 32.6 8.5 2.1zm35.1 23.5h71.8v87.4h-71.8z"/><path class="st6" d="m428.7 181.8-37.8-37.1 40.8-6.7z"/><circle class="st3" cx="429" cy="133" r="11.5"/><path class="st5" d="m391.3 193 16.1-9.8-13.6-11.1z"/><path class="st1" d="M380 127.2h4.1v66.7H380zm37 46.1h20.9v20.9H417z"/><path class="st7" d="M53 98.6h164.4v145.9H53z"/><path style="opacity:.17;fill:#f0f0f0" d="M57.3 102.5h156v138h-156z"/><path d="m176.7 102.5 36.6 137.7v-64.7l-19.4-73zm-13 0 36.9 138h5.9l-36.9-138zM57.3 189.6v22.1l7.4 28.8h5.9z" style="fill:#fff;opacity:.17"/><path class="st7" d="M158.8 100h2.6v143.6h-2.6zm-50.8 0h2.6v143.6H108z"/></g><g id="Shadow_1_" style="opacity:.12"><ellipse id="_x3C_Path_x3E__359_" cx="250" cy="416.2" rx="193.9" ry="11.3" style="opacity:.25;fill:#f5f5f5"/></g><g id="Plant_1"><path class="st12" d="M69.3 339.5c.2 1.5-3.8 2.4-7 3 .3 2.7 2 5.4 4.5 7.9 3.1-1.7 7.5-4 8.3-3.5.9.6-3.6 3.5-6.4 5.2 2 1.8 4.2 3.4 6.4 4.8 1.4-1.3 3-2.4 4-1.8s.7 2.6.2 4.4c3.4 2 5.9 3.1 5.9 3.1s1.4-4.3 2.2-9.5c-.2-.3-.3-.7-.5-1-.5-1.3 0-1.8.9-2 .2-2.3.3-4.7.1-6.9-3.8-.8-8.4-2.3-6.7-4.6 1-1.4 3-1.5 4.9-1.2-.3-.5-.6-.9-.9-1.3-6.9-7.6-11.7 0-11.7 0-4-3.3-9.7-2.4-10.9 2.8 2.1-.3 6.4-1.2 6.7.6z"/><path class="st16" d="M69.3 339.5c.2 1.5-3.8 2.4-7 3 .3 2.7 2 5.4 4.5 7.9 3.1-1.7 7.5-4 8.3-3.5.9.6-3.6 3.5-6.4 5.2 2 1.8 4.2 3.4 6.4 4.8 1.4-1.3 3-2.4 4-1.8s.7 2.6.2 4.4c3.4 2 5.9 3.1 5.9 3.1s1.4-4.3 2.2-9.5c-.2-.3-.3-.7-.5-1-.5-1.3 0-1.8.9-2 .2-2.3.3-4.7.1-6.9-3.8-.8-8.4-2.3-6.7-4.6 1-1.4 3-1.5 4.9-1.2-.3-.5-.6-.9-.9-1.3-6.9-7.6-11.7 0-11.7 0-4-3.3-9.7-2.4-10.9 2.8 2.1-.3 6.4-1.2 6.7.6z"/><path class="st17" d="m77.9 395.5-1-.1c0-.5 4.1-51.5-7.4-56.3-1.2-.5-2.4-.5-3.5.1-4.1 2.2-6.1 11.1-6.1 11.2l-1-.2c.1-.4 2.1-9.5 6.7-11.8 1.4-.7 2.8-.8 4.3-.1 12.2 5 8.2 55.1 8 57.2z"/><g class="st18"><path class="st17" d="M79.4 394.4c-.2-2.3-4.9-56.3 3.9-62 2.1-1.4 4-1.7 5.5-.9 4.1 2.1 4.7 10.9 4.7 11.3l-1 .1c0-.1-.5-8.6-4.1-10.4-1.2-.6-2.8-.4-4.5.8-8.2 5.4-3.5 60.5-3.4 61.1h-1.1z"/></g><g class="st18"><path class="st17" d="M80.7 398.8c-.1-1.8-1.5-43.1 6.5-46.7 1.6-.7 3.2-.7 4.7 0 5.5 2.4 8.8 12.6 9 13l-1 .3c0-.1-3.4-10.2-8.4-12.4-1.3-.6-2.6-.6-3.9 0-6.1 2.8-6.3 34-5.9 45.7l-1 .1z"/></g><path class="st17" d="m78.7 396.9-1-.1c1.4-12.3 4.1-45.1-.3-49-.7-.6-1.2-.8-1.8-.6-2.9 1.1-4.7 11.8-5.2 15.8l-1-.1c.2-1.5 1.8-15.1 5.8-16.6.9-.4 1.9-.1 2.8.7 5.7 5.1.9 48.1.7 49.9z"/><path class="st17" d="M62 373.6h35.9l-3 40.2H65z"/><path class="st19" d="m72.9 373.6 1 40.2h21l3-40.2z"/><path class="st12" d="M66.9 358.8c-.4 1-3.2.2-5.4-.6-.8 1.7-.6 4 .1 6.4 2.5 0 6 .1 6.3.7.3.7-3.4.9-5.8 1 .6 1.8 1.4 3.5 2.3 5.2 1.3-.3 2.7-.5 3.1.2s-.5 1.9-1.4 2.8c1.4 2.4 2.5 4 2.5 4s2.3-2.2 4.7-5.1v-.8c.1-1 .6-1.1 1.2-.9.9-1.3 1.8-2.8 2.4-4.2-2.1-1.8-4.4-4.3-2.6-5.1 1.1-.5 2.3.1 3.5 1 0-.4-.1-.7-.1-1.1-1.7-7.1-7.2-4-7.2-4-1.3-3.4-5.1-4.8-7.7-2 1.6.4 4.5 1.3 4.1 2.5z"/><path class="st16" d="M66.9 358.8c-.4 1-3.2.2-5.4-.6-.8 1.7-.6 4 .1 6.4 2.5 0 6 .1 6.3.7.3.7-3.4.9-5.8 1 .6 1.8 1.4 3.5 2.3 5.2 1.3-.3 2.7-.5 3.1.2s-.5 1.9-1.4 2.8c1.4 2.4 2.5 4 2.5 4s2.3-2.2 4.7-5.1v-.8c.1-1 .6-1.1 1.2-.9.9-1.3 1.8-2.8 2.4-4.2-2.1-1.8-4.4-4.3-2.6-5.1 1.1-.5 2.3.1 3.5 1 0-.4-.1-.7-.1-1.1-1.7-7.1-7.2-4-7.2-4-1.3-3.4-5.1-4.8-7.7-2 1.6.4 4.5 1.3 4.1 2.5z"/><path class="st12" d="M93.5 363.6c-1.1.1-2.2.3-3.3.7-.3-.8-.5-1.5-.5-2.4-.2-7.2 5-4.2 7.7-6.3 1.4-1.1 3-1.7 4.6-1.4l-.6 1.2c-.3.7.2 1.4.9 1.5.7.1 1.4.1 2-.2.2-.1.4-.2.5-.4.4.6.7 1.4 1 2.4s.4 2.1.5 3.1l-1.2.3c-.6.2-1 1.2-.5 1.7.4.4.9.8 1.5 1-.2 1.2-.5 2.3-.9 3.4-.1 0-.2 0-.4.1-.3.1-.5.1-.8.2-.1 0-.3.1-.4.2-.4.2-.6.5-.7.9s.1.8.4 1c.2.1.4.2.5.3-.8 1.3-1.8 2.3-2.9 2.9 0 0-1.3-.6-3.1-1.6l.6-.9c.2-.4.3-.7.3-1.1s-.3-.8-.6-1c-.3-.2-.8-.4-1.1-.3-.4 0-.8.3-1 .6-.2.4-.5.7-.8 1-1.3-1-2.6-2.2-3.7-3.6h.1c.7-.2 1.4-.3 2-.3.9-.1 1.4-.9 1.3-1.7.3-.8-.6-1.4-1.4-1.3z"/><path class="st16" d="M93.5 363.6c-1.1.1-2.2.3-3.3.7-.3-.8-.5-1.5-.5-2.4-.2-7.2 5-4.2 7.7-6.3 1.4-1.1 3-1.7 4.6-1.4l-.6 1.2c-.3.7.2 1.4.9 1.5.7.1 1.4.1 2-.2.2-.1.4-.2.5-.4.4.6.7 1.4 1 2.4s.4 2.1.5 3.1l-1.2.3c-.6.2-1 1.2-.5 1.7.4.4.9.8 1.5 1-.2 1.2-.5 2.3-.9 3.4-.1 0-.2 0-.4.1-.3.1-.5.1-.8.2-.1 0-.3.1-.4.2-.4.2-.6.5-.7.9s.1.8.4 1c.2.1.4.2.5.3-.8 1.3-1.8 2.3-2.9 2.9 0 0-1.3-.6-3.1-1.6l.6-.9c.2-.4.3-.7.3-1.1s-.3-.8-.6-1c-.3-.2-.8-.4-1.1-.3-.4 0-.8.3-1 .6-.2.4-.5.7-.8 1-1.3-1-2.6-2.2-3.7-3.6h.1c.7-.2 1.4-.3 2-.3.9-.1 1.4-.9 1.3-1.7.3-.8-.6-1.4-1.4-1.3z"/><path class="st12" d="M95.6 338.6c.6-.5 1.3-.8 2-1.1-.2-.5-.4-1-.8-1.5-3.1-3.9-4.4 0-6.8.1-1.2 0-2.4.4-3 1.3.3.1.6.2.9.4.5.2.5.8.2 1.2-.3.4-.7.7-1.2.8h-.4c.1.5.3 1.1.5 1.7.3.7.7 1.3 1.1 1.8.3-.1.5-.3.8-.4.4-.2 1 .2 1 .7 0 .4-.1.8-.3 1.2.6.5 1.3 1 2 1.4.1 0 .1-.1.2-.1.2-.1.3-.2.5-.2.1 0 .2-.1.3-.1.3-.1.5 0 .7.2s.3.5.2.7c0 .1-.1.3-.1.4 1 .3 2 .4 2.8.3 0 0 .4-.9.9-2.2-.2-.1-.5-.1-.7-.2-.3-.1-.5-.2-.7-.5-.2-.2-.2-.5-.1-.8 0-.3.2-.5.5-.7.2-.1.5-.2.8-.1s.6.1.9.2c.3-1.1.4-2.3.4-3.5h-.1c-.4.2-.8.4-1.2.7-.5.3-1.1.1-1.5-.3-.5-.4-.2-1.1.2-1.4z"/><path class="st16" d="M95.6 338.6c.6-.5 1.3-.8 2-1.1-.2-.5-.4-1-.8-1.5-3.1-3.9-4.4 0-6.8.1-1.2 0-2.4.4-3 1.3.3.1.6.2.9.4.5.2.5.8.2 1.2-.3.4-.7.7-1.2.8h-.4c.1.5.3 1.1.5 1.7.3.7.7 1.3 1.1 1.8.3-.1.5-.3.8-.4.4-.2 1 .2 1 .7 0 .4-.1.8-.3 1.2.6.5 1.3 1 2 1.4.1 0 .1-.1.2-.1.2-.1.3-.2.5-.2.1 0 .2-.1.3-.1.3-.1.5 0 .7.2s.3.5.2.7c0 .1-.1.3-.1.4 1 .3 2 .4 2.8.3 0 0 .4-.9.9-2.2-.2-.1-.5-.1-.7-.2-.3-.1-.5-.2-.7-.5-.2-.2-.2-.5-.1-.8 0-.3.2-.5.5-.7.2-.1.5-.2.8-.1s.6.1.9.2c.3-1.1.4-2.3.4-3.5h-.1c-.4.2-.8.4-1.2.7-.5.3-1.1.1-1.5-.3-.5-.4-.2-1.1.2-1.4z"/><path class="st12" d="M66.3 345.9c-.2 1.5 3.8 2.4 7 3-.3 2.7-2 5.4-4.5 7.9-3.1-1.7-7.5-4-8.3-3.5-.9.6 3.6 3.5 6.4 5.2-2 1.8-4.2 3.4-6.4 4.8-1.4-1.3-3-2.4-4-1.8s-.7 2.6-.2 4.4c-3.4 2-5.9 3.1-5.9 3.1s-1.4-4.3-2.2-9.5c.2-.3.3-.7.5-1 .5-1.3 0-1.8-.9-2-.2-2.3-.3-4.7-.1-6.9 3.8-.8 8.4-2.3 6.7-4.5-1-1.4-3-1.5-4.9-1.2.3-.5.6-.9.9-1.3 6.9-7.6 11.7 0 11.7 0 4-3.3 9.7-2.4 10.9 2.8-2.1-.5-6.4-1.3-6.7.5z"/><path class="st19" d="M66.3 345.9c-.2 1.5 3.8 2.4 7 3-.3 2.7-2 5.4-4.5 7.9-3.1-1.7-7.5-4-8.3-3.5-.9.6 3.6 3.5 6.4 5.2-2 1.8-4.2 3.4-6.4 4.8-1.4-1.3-3-2.4-4-1.8s-.7 2.6-.2 4.4c-3.4 2-5.9 3.1-5.9 3.1s-1.4-4.3-2.2-9.5c.2-.3.3-.7.5-1 .5-1.3 0-1.8-.9-2-.2-2.3-.3-4.7-.1-6.9 3.8-.8 8.4-2.3 6.7-4.5-1-1.4-3-1.5-4.9-1.2.3-.5.6-.9.9-1.3 6.9-7.6 11.7 0 11.7 0 4-3.3 9.7-2.4 10.9 2.8-2.1-.5-6.4-1.3-6.7.5z"/></g><g id="Plant_2"><path class="st20" d="M403.3 345.6s6.3-5.3 11.8 0c5.4 5.3 6.5 38.1 6.5 38.1"/><path class="st20" d="M422.1 390s-3.7-38.5 10.3-54.6"/><path class="st20" d="M420.7 385.9s2.9-43.8-7.7-53.5m9.1 53.5s.2-28.9 8.1-33.4 11.9 10.2 11.9 10.2"/><path class="st20" d="M418.9 385.9s1.3-22.2-4.8-30.2-12.5 3.4-12.5 3.4m19.5 29.8s-3.9-52 2.6-60.8"/><path class="st12" d="M436.9 356.7s-3.9 1.4-2.8 4.9c1.2 3.4 13.5 9 13.5 9s5.2-4.8.4-12.5c-4.7-7.7-11-3.8-11.1-1.4z"/><path class="st16" d="M436.9 356.7s-3.9 1.4-2.8 4.9c1.2 3.4 13.5 9 13.5 9s5.2-4.8.4-12.5c-4.7-7.7-11-3.8-11.1-1.4z"/><path class="st12" d="M419.9 350.2s4.2-.2 4.4 3.4c.2 3.6-9 13.5-9 13.5s-6.6-2.4-5.2-11.4 8.7-7.7 9.8-5.5z"/><path class="st16" d="M419.9 350.2s4.2-.2 4.4 3.4c.2 3.6-9 13.5-9 13.5s-6.6-2.4-5.2-11.4 8.7-7.7 9.8-5.5z"/><path class="st12" d="M416.3 333s2.8-.3 2.6-2c-.2-1.7-10.8-6.1-17 1 0 0 4 6.9 9.8 7 5.7.1 4.6-6 4.6-6z"/><path class="st16" d="M416.3 333s2.8-.3 2.6-2c-.2-1.7-10.8-6.1-17 1 0 0 4 6.9 9.8 7 5.7.1 4.6-6 4.6-6z"/><path class="st12" d="M421.5 328.9s-2.5 1.2-3.2-.3c-.7-1.6 6-10.8 15-8.2 0 0 .2 7.9-4.6 11.1-4.9 3.1-7.2-2.6-7.2-2.6z"/><path class="st16" d="M421.5 328.9s-2.5 1.2-3.2-.3c-.7-1.6 6-10.8 15-8.2 0 0 .2 7.9-4.6 11.1-4.9 3.1-7.2-2.6-7.2-2.6z"/><path class="st12" d="M408.3 355.4s1.9-1.5-.2-2.3-12.2-.5-12.3 9.5c0 0 11.8 2 13.3-1.9 1.5-3.8-.8-5.3-.8-5.3z"/><path class="st16" d="M408.3 355.4s1.9-1.5-.2-2.3-12.2-.5-12.3 9.5c0 0 11.8 2 13.3-1.9 1.5-3.8-.8-5.3-.8-5.3z"/><path class="st12" d="M432.5 332.8s-1.9-1.5.2-2.3 12.2-.5 12.3 9.5c0 0-11.8 2-13.3-1.9-1.5-3.8.8-5.3.8-5.3z"/><path class="st16" d="M432.5 332.8s-1.9-1.5.2-2.3 12.2-.5 12.3 9.5c0 0-11.8 2-13.3-1.9-1.5-3.8.8-5.3.8-5.3z"/><path class="st12" d="M426.2 340.9s-.2-1.9 1.4-1.1c1.5.7 6.8 6.5 1.3 11.9 0 0-7.4-5.5-6.1-8.3 1.4-3 3.4-2.5 3.4-2.5z"/><path class="st16" d="M426.2 340.9s-.2-1.9 1.4-1.1c1.5.7 6.8 6.5 1.3 11.9 0 0-7.4-5.5-6.1-8.3 1.4-3 3.4-2.5 3.4-2.5z"/><path class="st12" d="M406.6 343.6s1.1-1.5-.5-1.7c-1.7-.2-9.2 1.8-7.5 9.3 0 0 9.2-.7 9.6-3.8.4-3.1-1.6-3.8-1.6-3.8z"/><path class="st16" d="M406.6 343.6s1.1-1.5-.5-1.7c-1.7-.2-9.2 1.8-7.5 9.3 0 0 9.2-.7 9.6-3.8.4-3.1-1.6-3.8-1.6-3.8z"/><path class="st12" d="M437.6 413.8h-31.5l-3.3-34.4H441z"/><path class="st16" d="M437.6 413.8h-31.5l-3.3-34.4H441z"/><path class="st12" d="M401.1 375.6h41.6v7.6h-41.6z"/><path class="st19" d="M401.1 375.6h41.6v7.6h-41.6z"/></g><g id="Character_2"><path class="st21" d="m300.4 416 21.4-87h-6.5L295 416z"/><path class="st22" d="m300.4 416 19.9-81 1.5-5.8h-6.5l-1.4 5.8-18.9 81z"/><path class="st23" d="M314 334.7h6.4l1.4-5.5h-6.5z"/><path class="st21" d="m337.1 416 .5-87h-6.4l.6 87z"/><path class="st22" d="M331.8 416h5.3l.4-67.2.1-19.6h-6.4l.1 19.6z"/><path class="st23" d="m337.6 329.2-.1 19.8h-6.2l-.1-19.8z"/><path class="st21" d="m367.8 415.2-16-87.9-6.4-.3 17 88z"/><path class="st22" d="m362.4 415 5.4.2-14.9-81.8-1-5.9-6.5-.3 1.2 5.9z"/><path class="st23" d="m352.9 333.2-6.4-.4-1.1-5.6 6.5.3z"/><path class="st12" d="M379.8 254.2h-43.5c-4 0-7.6 2.6-9 6.4l-15.8 45.5c-1.2 3.4-4.4 5.7-8 5.7h-10.2c-3.3 0-5.5 3.5-4.1 6.5l3.9 8.1c1.8 3.8 5.7 6.3 10 6.3l60.3-.2c5 0 9.4-3.4 10.7-8.3L389 266c1.5-6-3-11.8-9.2-11.8z"/><path class="st24" d="m389 266-14.9 58.1c-1.3 4.9-5.6 8.3-10.7 8.3l-60.3.2c-4.3 0-8.1-2.4-10-6.3l-.3-.7-3.5-7.4c-1.4-3 .8-6.5 4.1-6.5h10.2c3.6 0 6.8-2.3 8-5.7l15.8-45.5c1.3-3.8 4.9-6.4 9-6.4h43.5c6.1.1 10.6 5.9 9.1 11.9z"/><path class="st23" d="m378.7 259.1-14.9 58.1c-1.3 4.9-5.6 8.3-10.7 8.3l-60.3.2-3.5-7.4c-1.4-3 .8-6.5 4.1-6.5h10.2c3.6 0 6.8-2.3 8-5.7l15.8-45.5c1.3-3.8 4.9-6.4 9-6.4h42.3c.3 1.5.4 3.2 0 4.9z"/><g id="_x3C_Group_x3E__12_"><path class="st25" d="m268.5 212.8-20.8-32.3s.9-4.4.7-5.5-11-5.1-11.4-4.3c-.4.7-3.2 9.5-1.4 11.3s7.2 4.5 7.2 4.5l18.1 34.2 7.6-7.9zm45.6 193.1-8.7-1.2-1.2-20.8 8.7 1.3z"/><path class="st23" d="m312.9 385.2-8.7-1.2.7 11.8 8.7.8z"/><path class="st21" d="m314 295.3 1.9-12.2 44.7-2.7s4.7 25.3 1.1 32.1c-6.5 12.1-41.6 6-51.9 7.2 6.1 25.1 5.5 74.2 5.5 74.2l-14.7 1.1s-11.3-52.9-13.6-78c-1.4-17 12.6-16.5 27-21.7z"/><path class="st12" d="m317.1 394.6-17.6 1.1-1.6-7.5 19.4-.9z"/><path class="st25" d="m294.8 399.8-8.8.6-5.5-20 8.7-.7z"/><path class="st12" d="M284.8 400.7h-.3.2c0-.1-.4-2.6-1.5-3.2-.3-.1-.6-.2-.9 0-.3.1-.6.4-.5.8 0 .5.6 1.2 1.3 1.8-.9-.2-2-.3-2.5.1-.2.2-.3.4-.3.7 0 .4.2.8.6 1 .6.2 1.2.2 1.7 0 .7-.2 1.5-.5 2.2-.9h.1c-.2-.1-.2-.1-.1-.3 0 .1 0 .1 0 0zm-2.7-2.4c0-.1 0-.3.3-.4h.1c.2 0 .3 0 .5.1.6.3 1.1 1.7 1.3 2.5-.1 0-.1 0-.2-.1-.9-.5-1.9-1.5-2-2.1zm-1.1 3.2c-.2-.1-.3-.4-.3-.7 0-.1 0-.3.1-.3.5-.4 2.1-.1 3.3.3-1.5.7-2.6 1-3.1.7z"/><path class="st23" d="m289.2 379.7-8.7.7 3.1 11.5 8.7-1.1z"/><path class="st21" d="m280.2 391 14.1-4.1s-8.4-47.6-17-64.1c.6-.2 1.5-.5 2.5-.8 1.9-.6 4.4-1.3 7.4-2.1 20.5-5.7 62.1-16.4 62.1-16.4l-19-17.7s-75.7 11.5-77.3 31.5c-.7 9.6 27.2 73.7 27.2 73.7z"/><path class="st12" d="m296.1 387.2-17 4.8-3-7.1 18.7-4.9z"/><path class="st23" d="M279.9 322c1.9-.6 4.4-1.3 7.4-2.1-.6-4.8-.6-10.4 1.7-13.2 4.6-5.6 16.5-9 23.3-10.1 5.7-1 24.7-3 24.7-3s-24.7-2.4-50 5c-12.5 3.6-10.1 15.8-7.1 23.4z"/><path class="st19" d="M363.1 288c2.3-2.9-9.3-26-13-46.6-5.6-31.5-10.4-40.8-12.9-41.2-4.4.3-8.7 1-13 2-6.3 1.4-12.5 3.1-18.6 5.2-4.1 1.6-8.1 3.5-12 5.8 0 0-1.9 35.1 16.5 80.2l53-5.4z"/><path d="M346.9 225.2c1 4.6 2.1 9.9 3.2 16.1 3.7 20.7 15.3 43.7 13 46.6l-53 5.2c-10.1-24.8-14.1-46.6-15.6-61.2 2.4-7.1 8.2-16.1 10.9-20.1 1.1.8 2.7 1.3 5 1.2 4-.2 7.8-3.1 10.8-6.1 3.5 2.1 10.3 6.4 13.9 10.6.4.5.7.9 1 1.4 2.5 3.8 5.8-2.5 6.4-9.8 1.4 3.9 2.8 9.1 4.4 16.1z" style="opacity:.8;fill:#fff;enable-background:new"/><ellipse transform="rotate(-3.937 319.362 251.788) scale(.99996)" class="st12" cx="319.4" cy="251.8" rx="12.8" ry="14.6"/><path class="st27" d="M331.7 256.1c-1.4 5.7-5.8 9.9-11.3 10.3-1.6.1-3.2-.1-4.7-.7-3.6-1.3-6.6-4.3-8.1-8.2-.6-1.5-.9-3.1-1.1-4.8-.1-1.1 0-2.2.1-3.2.8-6.6 5.6-11.8 11.7-12.2 2.6-.2 5 .5 7.2 1.9 3.6 2.3 6.3 6.6 6.6 11.7v.1c.2 1.7 0 3.5-.4 5.1z"/><path class="st27" d="M313.9 252.4c-.1 2.2-.5 0-1.1.1s-.3 1.3-.1 1.8c.2.5-.2 1.6-.3 2.1-.1.5-.8.3-1.1 0-.3-.3-1.3-1.4-2.3-1.5-.6-.1-1 1.3-1.4 2.6-.6-1.5-.9-3.1-1.1-4.8-.1-1.1 0-2.2.1-3.2.4.3.7.5.8.6.3.2 1 .5 1 .5s1.6-.5 1.9-1.1 1.3-.4 2.2 0c.9.4 1.5.8 1.4 2.9zm17.8 3.7c-1.4 5.7-5.8 9.9-11.3 10.3-1.6.1-3.2-.1-4.7-.7-.1-.3-.2-.5-.4-.7-.5-.8-.3-1.7-.4-2s0-.9.4-.8 1.7 0 1.7 0 .3-1.4.3-1.8-1.2-.3-1.2-.3l-.8-1s.3-1.3 0-2 .8-.7 1.8-.7 1.9.4 2.3.7c.4.3.9 2.7 0 3.1s.5 1.1 1 1.7 1 .1 2 0 1.6 0 1.6-.5-.2-1-.8-1.2c-.6-.2-.1-1.2 0-1.7.2-.5 1-.7 1.2-.4.2.3 1.1.3 2.6 1s.7 0 2.3 0c1.6 0 .6-1.7 1-3.1.4-1.2.4 0 1.4.1zm-8.9-9.5c-.5-.6-.6-1.4.5-1.8 1-.4 1.7-1.9 1.2-3.6-.2-.8.4-1.5 1.1-2.1 3.6 2.3 6.3 6.6 6.6 11.7-.4-.1-.8-.2-1.1-.3-1.1-.4-.7-1.1-1.4-2.1s-2.2.3-3.2 0-.3-1.3-1-1.8c-.6-.5-2.2.6-2.7 0zm-9.8-2.4c.2-1.1 1.9-1 1.9-1s1.8-.4 1.8.5-.2 1.4 0 2.3c.2.9-.2.8-1 .7-.8 0-1.3-.6-1.3-.6l-1.5-.4v-1.5h.1zm3 9.3c-.3-.5 1.1-2.2 1.9-1.7s1.3 1.3 1.5 1.5c.2.1.7-.4.6.2s-1.1 1.6-1.7 1.4c-.6-.3-1.1-.5-1.1-.5s-.8-.3-1.2-.9z"/><path class="st12" d="M323.2 197.5c-3.4-1.7-15.9.7-20.8 10.5l1.6 2.1s1.6-6.5 10.2-9.6 11.3 1.4 11.3 1.4.8-2.9-2.3-4.4z"/><path class="st22" d="M323.2 197.5c-3.4-1.7-15.9.7-20.8 10.5l1.6 2.1s1.6-6.5 10.2-9.6 11.3 1.4 11.3 1.4.8-2.9-2.3-4.4z"/><path class="st25" d="M324.1 202.1s-3.2 7-12 9.6c-7.6 2.3-6.6-4.5-6.6-4.5 3.5-2 3.4-3.4 2.2-5.1-.9-1.3-2.4-2.7-3.5-4.5l4.4-5.3 4.6-5.6c.5 6.3 5.7 12.6 10.9 15.4z"/><path class="st28" d="m317.1 394.6-17.6 1.1-1.6-7.5 19.4-.9zm-21-7.4-17 4.8-3-7.1 18.7-4.9z"/><path class="st21" d="m285.1 399.5 9.5-2.7c.3-.1.7.1.8.4l2.6 7.4c.2.8-.2 1.7-1.1 1.9-3.3.9-5 1.1-9.2 2.3-2.6.7-7.6 2.4-11.3 2.8-3.7.4-4-3.2-2.5-3.7 3.6-1.2 7.9-5 9.8-7.5.4-.4.9-.7 1.4-.9z"/><path class="st12" d="M304.5 404.7c0-.2-.1-2.7-1.1-3.4-.2-.2-.7-.3-1-.2-.4 0-.7.3-.7.7-.1.5.3 1.3.9 2-.9-.4-1.9-.7-2.4-.4-.2.1-.4.3-.4.6-.1.4 0 .8.3 1.1.5.3 1.1.4 1.7.3.8-.1 1.5-.2 2.3-.5h.1v-.1l.2-.1c0 .1.1 0 .1 0zm-2.4-2.9c0-.1.1-.3.4-.3h.1c.2 0 .3 0 .4.2.6.5.7 1.9.7 2.7-.1 0-.1-.1-.2-.1-.7-.7-1.4-1.9-1.4-2.5zm-1.8 2.9c-.2-.2-.3-.5-.2-.7 0-.1.1-.2.2-.3.6-.3 2.1.4 3.1 1-1.5.4-2.6.4-3.1 0z"/><path class="st21" d="m304.7 403.7 9.9-.6c.3 0 .7.2.7.6l1 7.8c.1.9-.6 1.6-1.4 1.7-3.4.2-5.1.1-9.4.3-2.7.2-7.9.7-11.6.4-3.7-.4-3.2-4-1.6-4.2 3.8-.4 8.8-3.2 11.1-5.3.3-.5.8-.7 1.3-.7z"/><path class="st23" d="M307.8 202.2c-.9-1.3-2.4-2.7-3.5-4.5l4.4-5.3 3.9-1c0-.1.4 6.9-4.8 10.8z"/><path class="st21" d="m320.5 180.5.5 6.2s2.7 1.9 2.4 2.8c-.3.9-2.9-.5-2.9-.5s1.8 2.1.9 2.7c-.9.6-2.5-.9-2.5-.9s.2 2.6-.6 3.2c-.8.6-1.6-1.5-1.6-1.5s0 2.3-.9 2.2c-3.2-.4-4.7-17.7-4.7-17.7l9.4 3.5zm-19.7-7.8c3.3 2.5 1.6 6.4-6.4 12.3-3-4.2-3.2-12.2-.6-14.1 2.6-1.9 4.1-.3 7 1.8z"/><path class="st25" d="M315.4 179.8c-.7 8.4-.7 13.4-5.1 17.6-6.5 6.3-16.8 2.2-18.7-6.2-1.6-7.6-.2-20.1 8.1-23.2 5.9-2.3 12.6.7 14.9 6.6.7 1.6.9 3.4.8 5.2z"/><path class="st21" d="M302.7 181.8c0 .7-.4 1.2-.8 1.2s-.8-.6-.8-1.3.4-1.2.8-1.2c.5 0 .8.6.8 1.3zm-7.8-.2c0 .7-.4 1.2-.8 1.2s-.8-.6-.8-1.3.4-1.2.8-1.2c.5.1.9.6.8 1.3z"/><path d="M297.5 182c-.9 2.1-2 4-3.4 5.8 1.2 1.2 3.3.7 3.3.7l.1-6.5z" style="fill:#d58745"/><path class="st21" d="M304.9 179.4h.3c.2-.1.2-.4.1-.6-.7-1.1-1.9-1.7-3.2-1.7-.2 0-.4.2-.4.4s.2.4.4.4c1 0 2 .6 2.5 1.4.1 0 .2.1.3.1zm-13.4-.5c.2 0 .3-.1.4-.2.4-.9 1.3-1.6 2.3-1.8.2 0 .4-.2.4-.4s-.2-.4-.4-.4c-1.3.2-2.4 1-2.9 2.2-.1.2 0 .4.2.6-.2 0-.1 0 0 0zm20.7-6.7c-4 1.3-3.6 5.5 2.1 13.7 4.2-3 7-10.5 5.1-13.2-1.8-2.6-3.8-1.6-7.2-.5z"/><path class="st25" d="M319.2 186.6c-.6 2-2 3.7-3.9 4.7-2.5 1.3-4.3-.8-4.1-3.5.2-2.4 1.8-5.9 4.5-6.1 2.7-.2 4.3 2.4 3.5 4.9z"/><path class="st19" d="M322.7 169c-1.1-3-10.7-9.7-20.3-10.8-5.6-.7-11.3 12.8-11.3 12.8s15.7-1.6 28.9 10.8c0 0 3.8-9.8 2.7-12.8zm-20.5-1.2-.5 2.6c-3.4-.8-7.6-1-7.6-1l1.6-3c.2-.4.7-.7 1.2-.7 2-.1 3.5.2 4.5.5.5.2.9.9.8 1.6z"/><path class="st12" d="m313.9 177 7 2.4s10.8 4.8 10.6 5.9c-.2 1.1-12.3-1.9-17.6-8.3z"/><path class="st23" d="m313.9 177 7 2.4s10.8 4.8 10.6 5.9c-.2 1.1-12.3-1.9-17.6-8.3z"/><path class="st21" d="M302.2 167.3s-3.4-7.1-5.4-7.5c-2.1-.4.4 3.8.4 3.8s-6.2-2.6-6.7-1.6c-.6 1 4 2.7 4 2.7s-5.2 1.1-5.2 2.7 4.8 0 4.8 0-3.2 2.4-3 3.7c.3 1.3 6.4-1.3 6.4-1.3l4.2.7.5-3.2zm-4.9 23.1c.9 1.1 2.1 3.3 2.1 3.3.2-.1.4-.1.6-.2 2.9-1.1 3.9-2.6 4.1-3.8.1-.7 0-1.4-.2-1.9-.2-.6-.5-1-.5-1-1.2 1.5-3.8 2.7-5.3 3.3-.4.2-.8.3-.8.3z"/><path class="st30" d="m298.3 190 .7.9c2.7-1 4.5-2.1 5.1-3.3-.2-.6-.5-1-.5-1-1.2 1.6-3.9 2.8-5.3 3.4z"/><path class="st31" d="M300.1 193.4c2.9-1.1 3.9-2.6 4.1-3.8-1 .4-2.1 1-3 1.8-.7.7-1 1.4-1.1 2z"/><path class="st19" d="M305.5 207.3s-29.3 1.8-35.6 2.4c-1.3.1-5.5-4.6-5.5-4.6l-8.8 15.6s6.1 8 13.3 9.1c7.3 1.1 25.4 2.2 25.4 2.2l11.2-24.7z"/><path class="st12" d="m239.9 181.9-4.8-.6 1.3-11 4.8.6c1.8.2 3.2 1.9 2.9 3.7l-.5 4.4c-.2 1.8-1.8 3.2-3.7 2.9zm-2.5-2.3 2.8.3c.7.1 1.4-.4 1.5-1.2l.5-4.4c.1-.7-.4-1.4-1.2-1.5l-2.8-.3-.8 7.1z"/><path class="st19" d="m239.9 181.9-4.8-.6 1.3-11 4.8.6c1.8.2 3.2 1.9 2.9 3.7l-.5 4.4c-.2 1.8-1.8 3.2-3.7 2.9zm-2.5-2.3 2.8.3c.7.1 1.4-.4 1.5-1.2l.5-4.4c.1-.7-.4-1.4-1.2-1.5l-2.8-.3-.8 7.1z"/><path class="st19" d="m236.7 183.5-12.5-1.4c-.6-.1-1-.6-.9-1.2l1.4-12.5c.1-.6.6-1 1.2-.9l12.5 1.4c.6.1 1 .6.9 1.2l-1.4 12.5c-.1.5-.6.9-1.2.9z"/><path class="st32" d="M234.8 148.1s-4.8 1.6-3.7 5.7c1.1 4.1 4.6 6.1.6 10.6 0 0 4.4-.8 3.2-5.4-1.2-4.6-4.2-7.6.3-10.8"/><path class="st12" d="m263.8 204.2 1.4.5-9.1 17.9-1.8-2.8z"/><path class="st28" d="m263.8 204.2 1.4.5-9.1 17.9-1.8-2.8z"/><path class="st25" d="m376.9 242.5-30.7 33.6s-.3 2-.7 3.8-1 7.5-3.9 8-13.5-2.1-13.3-3.5 5.5-10.9 8.8-11.7l26.1-34.6 13.7 4.4z"/><path class="st19" d="M337.2 200.1c11 .2 41 30.3 41.8 36s-5.6 15.1-5.6 15.1l-16.8-7.2s2.3-6.2 1.4-6.9c-1-.7-10.2-8.1-10.2-8.1s-7-5.3-11.6-10.1c-4.6-4.7 1-18.8 1-18.8z"/><path class="st12" d="m355.3 242.5 20.2 8.8-2.2 2.2-18.8-8.9z"/><path class="st28" d="m355.3 242.5 20.2 8.8-2.2 2.2-18.8-8.9z"/><path class="st12" d="M303.2 213.4c-.9 2.9-3.1 4.7-5 4.2-1.9-.6-2.6-3.4-1.7-6.3.9-2.9 3.1-4.7 5-4.2 1.8.6 2.6 3.4 1.7 6.3z"/><path class="st22" d="M303.2 213.4c-.9 2.9-3.1 4.7-5 4.2-1.9-.6-2.6-3.4-1.7-6.3.9-2.9 3.1-4.7 5-4.2 1.8.6 2.6 3.4 1.7 6.3z"/><path class="st12" d="M327.9 210.5c.8 4.2-1.3 8.1-4.7 8.7-3.4.6-6.7-2.2-7.5-6.4s1.3-8.1 4.7-8.7c3.4-.6 6.7 2.2 7.5 6.4z"/><path class="st33" d="M327.9 210.5c.8 4.2-1.3 8.1-4.7 8.7-3.4.6-6.7-2.2-7.5-6.4s1.3-8.1 4.7-8.7c3.4-.6 6.7 2.2 7.5 6.4z"/><path class="st12" d="M323.2 207.3s2.7-7.7 0-9.9c0 0 1.1.3 2.7 2.2 1.7 1.9 0 9.4 0 9.4l-2.7-1.7z"/><path class="st27" d="M323.2 207.3s2.7-7.7 0-9.9c0 0 1.1.3 2.7 2.2 1.7 1.9 0 9.4 0 9.4l-2.7-1.7z"/><path class="st12" d="M327.8 210.1c.6 3.1-1 6.1-3.5 6.5-2.5.5-5.1-1.7-5.6-4.8-.6-3.1 1-6.1 3.5-6.5 2.5-.5 5 1.7 5.6 4.8z"/><ellipse transform="rotate(-72.728 301.505 213.454)" class="st12" cx="301.5" cy="213.5" rx="7.3" ry="4.7"/><ellipse transform="rotate(-72.728 301.505 213.454)" class="st33" cx="301.5" cy="213.5" rx="7.3" ry="4.7"/><path class="st33" d="M304.8 214.4c-.6 2-2.2 3.3-3.5 2.9-1.3-.4-1.9-2.4-1.2-4.4.6-2 2.2-3.3 3.5-2.9 1.3.4 1.8 2.4 1.2 4.4z"/><path class="st22" d="M327.8 210.1c.6 3.1-1 6.1-3.5 6.5-2.5.5-5.1-1.7-5.6-4.8-.6-3.1 1-6.1 3.5-6.5 2.5-.5 5 1.7 5.6 4.8z"/></g></g><g id="Character_1"><path class="st12" d="m125.6 342-2.8-4.8s.9-67.2 7.7-83.8l-3.2-2.3s-8.7 22.7-8.9 85.9l-1.7 2.2 1.7 15 7.2-12.2z"/><path class="st33" d="m125.6 342-2.8-4.8s.9-67.2 7.7-83.8l-3.2-2.3s-8.7 22.7-8.9 85.9l-1.7 2.2 1.7 15 7.2-12.2z"/><path class="st21" d="m203.1 413.8-21.5-87h6.5l20.3 87z"/><path class="st22" d="m203.1 413.8-20-80.9-1.4-5.9h6.4l1.4 5.9 18.9 80.9z"/><path class="st23" d="M189.4 332.6h-6.3l-1.4-5.6h6.4z"/><path class="st21" d="m166.3 413.8-.5-87h6.4l-.5 87z"/><path class="st22" d="M171.7 413.8h-5.4l-.4-67.1-.1-19.7h6.4l-.1 19.7z"/><path class="st23" d="m165.8 327 .1 19.9h6.2l.1-19.9z"/><path class="st21" d="m135.7 413.1 15.9-87.9 6.4-.3-17 87.9z"/><path class="st22" d="m141 412.8-5.3.3 14.8-81.8 1.1-5.9 6.4-.3-1.2 5.9z"/><path class="st23" d="m150.5 331 6.4-.3 1.1-5.6-6.4.3z"/><path class="st12" d="M123.6 252.1h43.5c4 0 7.6 2.6 9 6.4l15.8 45.5c1.2 3.4 4.4 5.7 8 5.7H210c3.3 0 5.5 3.5 4.1 6.5l-3.9 8.1c-1.8 3.8-5.7 6.3-10 6.3l-60.3-.2c-5 0-9.4-3.4-10.7-8.3L114.3 264c-1.4-6.1 3.1-11.9 9.3-11.9z"/><path class="st24" d="m114.4 263.9 14.9 58.1c1.3 4.9 5.6 8.3 10.7 8.3l60.3.2c4.3 0 8.1-2.4 10-6.3l.3-.7 3.5-7.4c1.4-3-.8-6.5-4.1-6.5h-10.2c-3.6 0-6.8-2.3-8-5.7L176 258.4c-1.3-3.8-4.9-6.4-9-6.4h-43.5c-6.1.1-10.6 5.9-9.1 11.9z"/><path class="st23" d="m124.8 256.9 14.9 58.1c1.3 4.9 5.6 8.3 10.7 8.3l60.3.2 3.5-7.4c1.4-3-.8-6.5-4.1-6.5h-10.2c-3.6 0-6.8-2.3-8-5.7l-15.8-45.5c-1.3-3.8-4.9-6.4-9-6.4h-42.3c-.4 1.6-.5 3.2 0 4.9z"/><path class="st12" d="M132 251.4s6.9 19.3-.1 87l-3.9.2s7.4-69.1-.7-87.4l4.7.2z"/><path class="st19" d="M132 251.4s6.9 19.3-.1 87l-3.9.2s7.4-69.1-.7-87.4l4.7.2z"/><path class="st19" d="M130.1 336.4s4.2.1 4.6 1.8c.5 1.7.7 38.2-2.4 43.7-3.1 5.5-16.8 5.6-20.6-.2-3.9-5.7 5-42.6 5-42.6s2.3 3.6 5.3 3.5c3.1-.1 4.4-5.7 8.1-6.2z"/><path class="st27" d="M119 354.2c-.1-.5-.2-.5-.3-.1l-2.8 9.8.9.6-2.2 1.6-.2-3.2.7.4 3.4-11.9c.2-.6 1.1-.6 1.2 0l.7 3.5-.9.8-.5-1.5zm-5.5 14.5.5-1.8.9.5-.1.4c-.2.6.2 1.2.9 1.3l3 .3.2-1.1 1.3 1.9-1.8 1.6.1-.9-3.8-.4c-.8-.1-1.4-.9-1.2-1.8zm8.4-.3-1.8-9.1-.7.4.6-3.7 1.9 2-.9.6 2.2 10.9c.2.9-.6 1.8-1.5 1.7l-1-.1.1-1.5c.7 0 1.3-.6 1.1-1.2z"/><path class="st21" d="M191.9 213c-2 1.7-.8 3.7.4 5.1s3.5 3.3.4 5.8c-3.1 2.6-.5 6.5-.5 6.5l-36.7-.3s-6.5-9.2-1.1-12.9c5.4-3.6 5.6-2.7 5.2-7.1-.4-4.4 3.8-5.4 5.3-8.3 1.5-2.9 1.4-3.8 1.1-6.9-.4-3 8.4-4.2 11.7-2.3 3.3 2 20.9 7.8 20.9 7.8s-3.7 10-6.7 12.6z"/><path class="st34" d="m258.6 380-6.9-.7s-8.1-22.2-16.3-42.1c-6.6-16-13.1-30.6-15.3-30.7-.5 0-1.4.2-2.8.6-12.4 3.6-57.6 22.4-69.1 10.7-12.8-13 5.7-44.2 5.7-44.2s30.7-4.4 33 2.5c.5 1.3.9 4 1.3 6.2.3 2.1.6 3.9.6 3.9.9-.2 31.8-8.2 43.9 0 12.2 8.4 25.9 93.8 25.9 93.8z"/><path class="st23" d="M235.3 337.2c-6.6-16-13.1-30.6-15.3-30.7-.5 0-1.4.2-2.8.6l.1-3.6s8.6.3 14.9 7.1c4.3 4.7 3.9 18.4 3.1 26.6z"/><path class="st34" d="M170.1 321s34.8-3.6 38.4-.5c3.8 3.3-5.4 9.9-11.7 81.4l6.6 2.3s26.1-77.2 25.9-87.4-12-13.3-12-13.3-22.9 13.3-47.2 17.5z"/><path d="M229.3 316.8c.3 10.3-25.9 87.4-25.9 87.4l-6.6-2.3c6.3-71.5 15.5-78.1 11.7-81.4-.8-.7-3.3-1.1-6.6-1.2-5.9-.3-14.4.2-21.2.8-6 .5-10.6.9-10.6.9 3.1-.5 6.1-1.2 9.1-2 20.2-5.3 37.5-15.1 38.1-15.4 0 0 11.8 2.9 12 13.2z" style="opacity:.1;enable-background:new"/><path class="st23" d="M217.3 303.5c-.5.4-10.1 8.7-15.3 15.7-5.9-.3-14.4.2-21.2.8-.7-.4-1.2-.8-1.5-1.1 20.2-5.2 37.4-15 38-15.4z"/><path class="st12" d="m193.2 314-.7 6.8s-14.1 1.8-20.7-.2c-6.5-1.9 21.4-6.6 21.4-6.6z"/><path class="st12" d="m191.6 313.3-.9 8.3h2.5l1-9.4z"/><path class="st28" d="m191.6 313.3-.9 8.3h2.5l1-9.4z"/><path class="st12" d="m194.7 284.3 3.6 29.2s-26.2 12.1-46.6 8.5c-20.4-3.7-5.9-38.1 2.1-48.4l33.6.6 2.4 9.9 4.9.2z"/><path class="st19" d="M151.7 322c20.4 3.6 46.6-8.5 46.6-8.5l-3.6-29.2-4.9-.2-1-3.9-1.5-6-33.6-.6c-7.9 10.3-22.4 44.8-2 48.4z"/><path class="st12" d="m194 283.5 2.9 31.6 2.8-1.1-3.8-30.5z"/><path class="st22" d="m194 283.5 2.9 31.6 2.8-1.1-3.8-30.5z"/><path class="st23" d="M174.4 284.1h15.4l-1-4z"/><path class="st21" d="M195.4 400.7c.1-.7 9.2.7 9.2.7s5 6.3 10.4 8.1c5.3 1.8 2 4.8-4.1 4.2-6.1-.6-10.7-1.1-15.1-1.5-4.5-.4-1.4-3.8-.4-11.5z"/><path class="st12" d="M208.4 404.2c-1.2-.3-2.6-1.2-3-1.4l-.1-.1v-.3c0-.1 1-2.1 2.3-2.5.4-.1.8-.1 1.2.1s.6.5.5.8c-.1.5-.8.9-1.6 1.2.8 0 1.6.1 2 .4.2.2.4.4.4.7.1.6-.1.8-.3 1-.2.3-.8.2-1.4.1zm-2.1-1.5c1.3.7 2.9 1.4 3.4 1.1 0 0 .2-.1.1-.5 0-.1-.1-.2-.2-.3-.7-.5-2.3-.4-3.3-.3zm2-2.3h-.5c-.7.2-1.4 1.1-1.8 1.8 1.4-.4 2.8-1 2.8-1.4 0-.1-.2-.3-.3-.3 0-.1-.1-.1-.2-.1z"/><path class="st21" d="M250.2 378.5c.1-.7 9.2.7 9.2.7s5 6.3 10.4 8.1c5.3 1.8 2 4.8-4.1 4.2s-10.7-1.1-15.1-1.5c-4.5-.4-1.4-3.8-.4-11.5z"/><path class="st12" d="M263.2 381.9c-1.2-.3-2.6-1.2-3-1.4l-.1-.1v-.3c0-.1 1-2.1 2.3-2.5.4-.1.8-.1 1.2.1.4.2.6.5.5.8-.1.5-.8.9-1.6 1.2.8 0 1.6.1 2 .4.2.2.4.4.4.7.1.6-.1.8-.3 1-.2.3-.8.3-1.4.1zm-2.1-1.5c1.3.7 2.9 1.4 3.4 1.1 0 0 .2-.1.1-.5 0-.1-.1-.2-.2-.3-.7-.5-2.3-.4-3.3-.3zm2-2.3h-.5c-.7.2-1.4 1.1-1.8 1.8 1.4-.4 2.8-1 2.8-1.4 0-.1-.2-.3-.3-.3 0 0-.1-.1-.2-.1z"/><path class="st34" d="m186.8 276.2-33-2.5-1.3-16.4-1.4-18.3-1.2-15.3s12.7-5.1 23.2-4.6c10.6.5 19 1.9 19 1.9 6.7 15.8-5.3 55.2-5.3 55.2z"/><path class="st21" d="M108.6 184.3c-.1.5-.7.7-1.1.5l-8.4-3.6c-.5-.2-.7-.8-.6-1.3l5.3-17.4c.1-.5.7-.8 1.2-.6l8.4 3.6c.5.2.7.9.5 1.4l-5.3 17.4z"/><path class="st36" d="m113 166.4-5.4 17.5c-.2.5-.5.7-1 .5l-7.1-3.1c-.5-.2-1.2-.9-1.1-1.3l5.4-17.6c.2-.5 1.1-.5 1.6-.3l7.1 3.1c.5.2.7.7.5 1.2z"/><path class="st21" d="M178.8 182.7s7.8-5.8 17.2 5.4c9.5 11.2-3.9 26.3-12.8 23.6-8.8-2.7-4.4-29-4.4-29z"/><path class="st34" d="M180 217.5c.1 2.1.9 3.7.9 3.7l-5.5 10.4-10.9-11.7c4.1-.5 6.5-5.6 7.7-9.4.6-1.9 1-3.6 1-4v-.1l.3.2 9.3 5.2c-2.3 1.6-2.8 3.8-2.8 5.7z"/><path class="st23" d="M182.9 211.8c-2.4 1.6-3 3.8-2.9 5.7-4.4-1.3-6.6-4.4-7.7-6.9.6-1.9 1-3.6 1-4h.3l9.3 5.2z"/><path class="st21" d="M189 185s-5.3-7.5-14.1-5.6-11.6 13.7-7.4 19c4.3 5.2 21.5-13.4 21.5-13.4z"/><path class="st34" d="M183.6 186.2c-8-2.9-12.1.5-15.7 8.6-4.4 10.1-4.8 18.2 6.1 19.6 14.7 1.9 23-23.4 9.6-28.2z"/><path class="st31" d="M173.3 196.2s-1.9 1.7-3.5 2.5c0 0 .3 1.3 1.8 1.7l1.7-4.2z"/><path class="st21" d="M178.4 197.3c-.3.7-.1 1.3.3 1.5.4.2 1-.2 1.2-.9.3-.7.1-1.3-.3-1.5-.4-.2-.9.2-1.2.9z"/><path class="st21" d="m179.8 196.5-1.2-1.1s.3 1.5 1.2 1.1zm-9.4-2.5c-.3.7-.1 1.3.3 1.5.4.2 1-.2 1.2-.9.3-.7.1-1.3-.3-1.5-.4-.1-1 .3-1.2.9z"/><path class="st21" d="m171.8 193.2-1.2-1.1s.2 1.5 1.2 1.1z"/><path d="M180.5 191.8s2.4.5 3 2.5m-8.7-5s-1.2-1-3.4-.5" style="fill:none;stroke:#263238;lidth:.7247;stroke-linecap:round;strokeLinejoin:round;strokeLmiterlimit:10"/><path class="st21" d="M187.6 202.9s-1.4-7.9 1-12.8c0 0-13.6-12.2-20.1 3.7 0 0 3.6-14.9 17.5-10.3s6.6 24.8-2.6 28.2c-.1 0 5-3.9 4.2-8.8z"/><path class="st34" d="M185.6 204.1c.5-1.3 2.6-3 4.9-1.9 2.4 1.2 1.7 6.7-4.9 5.7-.8-.1-1-1.1 0-3.8z"/><path class="st21" d="M169.7 203.3c.2 1.1 0 3.1 0 3.1.2 0 .4.1.5.1 2.4.5 3.7 0 4.4-.8.4-.4.6-.9.7-1.4.1-.5.1-.9.1-.9-1.5.5-3.8.2-5 0-.4 0-.7-.1-.7-.1z"/><path class="st30" d="M170.5 203.5v.9c2.3.5 4 .5 4.8 0 .1-.5.1-.9.1-.9-1.4.5-3.7.2-4.9 0z"/><path class="st31" d="M170.2 206.5c2.4.5 3.7 0 4.4-.8-.8-.1-1.9-.2-2.8 0-.7.1-1.2.5-1.6.8z"/><path d="M184 186s-4.2 8.7 1.2 14.2" style="fill:none;stroke:#263238;stroke-width:.5;stroke-linecap:round;strokeLinejoin:round;strokeLmiterlimit:10"/><path class="st21" d="M183.6 186.9s-1.5 14.4 6.9 17.2 4.1-14.7 1.5-18.5c-1.2-1.8-6.1-5.1-8.4 1.3z"/><path class="st34" d="M192.2 220.9c6.5 1 23 28.9 23 28.9l-4.8 8.4s-16.2-21-19.6-23c-3.5-2 1.4-14.3 1.4-14.3z"/><path d="M195.3 228.7s.4 1 2.1 1.4c.2 0 .3.1.5.1.6 0 1.1-.2 1.2-.3.3.1.5.2.8.3-.2 0-.3.1-.4.2-.1.1-.1.3-.1.4-.4-.1-1.3-.2-2.4-.1h-.1c-.1 0-.2.1-.2.2s.1.2.2.2.1 0 .1-.1c1.2-.1 2.2.1 2.4.1 0 0 0 .1.1.1.1.2.3.5.6.7-.3.1-.5.1-.8.2-.2-.3-.9-1-1.6-.7-.8.3-1.3 1.4-1.3 1.4 0 .1 0 .2.1.2 0 0 .9.7 1.7.7h.2c.7-.1.9-1 1-1.3.4-.1.8-.2 1.1-.3-.1.2-.2.6.1 1.1-.2.2-.8.7-1.4 1.1-.1 0-.2.1-.2.2s.1.2.2.2.2-.1.2-.1c.6-.3 1.2-.9 1.4-1.1.2.2.4.2.5.2.3 0 .6-.2.7-.4.1.5.5 1.3 1 1.6.1.1.3.1.4.1h.2c.3-.1.5-.3.5-.4.1-.2.1-.3.1-.5.3.3.6.5.9.5.1 0 .2 0 .3-.1-.1-.1-.1-.2-.2-.3h-.1c-.5 0-1.1-.8-1.3-1.1 0 0-.1-.1-.2-.1h-.1c-.1 0-.1.1-.1.2.1.2.4.8.2 1.1 0 .1-.1.2-.3.2-.1 0-.2 0-.3-.1-.5-.3-.8-1.4-.9-1.8 0-.1-.1-.1-.1-.1-.1 0-.1 0-.2.1s-.4.6-.7.6c0 0-.2 0-.3-.2-.5-.7 0-1.1 0-1.1v-.1s-.1 0-.1-.1c-.5 0-.9-.4-1.1-.7-.1-.2-.1-.5 0-.6.2-.2.9-.1 1.2.1.1 0 .1 0 .2-.1v-.2c-.4-.6-1-1.6-.8-2 0-.1.1-.1.1-.2h.1c-.1-.1-.2-.2-.2-.3-.1-.1-.2-.2-.3-.4-.1-.1-.1-.2-.2-.2-.6-.7-1.2-1.4-1.7-2 .2.5.6 1 .9 1.5h-.1c-1-.2-1.3-1.2-1.3-2l-.4-.4c0 .9.3 2.4 1.6 2.8.1 0 .3.1.3.1h.1c.3.5.6.8.8 1v.1c-.1.2 0 .4 0 .6-.6-.6-1.5-1.3-2.6-1.5h-.1l-.1-.1c-.1 0-.2.1-.2.2s.1.2.2.2c0 0 .1 0 .1-.1 1.7.4 3 2 3.1 2.1s.1.2.2.3c-.3-.1-.8-.4-1.3-.6-.1-.2-.6-1-1.5-1.3-1.3-.5-2.3.3-2.4.3v.4zm2.3 4.1c0 .1.1.2.2.2 0 0 .6-.1 1.2-.3-.1.3-.3.7-.7.8-.5.1-1.3-.3-1.5-.5.1-.3.5-.9 1-1.1.4-.2.9.3 1.1.5-.6.2-1.1.3-1.1.3-.2-.1-.3 0-.2.1zm-1.9-4.1c.3-.2 1-.5 1.9-.2.5.2.9.5 1.1.8-.6-.2-1.2-.4-1.9-.5-.1 0-.2.1-.2.1 0 .1.1.2.1.2.6.1 1.3.3 1.9.5-.3.1-.7.2-1.2.1-1.1-.2-1.5-.8-1.7-1zm4.8 2.3c0 .1 0 .2.1.2 0 0 .3.1.7.1-.1.1-.2.1-.3.1s-.2.1-.1.2c0 .1.1.1.2.1.3-.1.6-.2.7-.4l.3.6c-.6.2-1 .5-1 .5-.1.1-.1.2 0 .2.1.1.2.1.3 0 0 0 .4-.3 1-.5.2.4.6 1.2.6 1.6 0 .1.1.2.2.2s.2-.1.2-.2c0-.3-.3-.9-.5-1.3h.2c.2 0 .3-.1.4-.2.1.1.3.2.5.4-.2-.3-.4-.6-.6-.8v.1c0 .1-.1.2-.2.2-.3 0-.7-.3-1-1-.2-.4-.1-.6-.1-.6.1-.1.2-.1.4 0l-.3-.3c0-.1-.1-.1-.1-.2-.2-.3-.5-.6-.7-.9v.1c0 .1.1.2.1.3-.2-.2-.3-.4-.4-.5-.1-.1-.2-.1-.2 0-.1.1-.1.2 0 .2 0 0 .6.8 1.1 1.2-.1.1-.1.3-.1.5-.6 0-.9-.1-.9-.1-.3 0-.4.1-.5.2zm11.6 13.8c.1.1.1.3.1.4 0 0 0 .1.1.1.1.1.2.3.4.4l-.6-.9zm-2-.9c-.4.5-.8.7-.8.7-.1 0-.1.2-.1.2 0 .1.1.1.2.1 0 0 .4-.2.9-.7.1.2.2.3.4.5-.2.1-.4.2-.6.5 0 .1 0 .2.1.2.1.1.2 0 .2-.1.1-.1.1-.2.2-.2-.1.4-.2.7-.2.7 0 .1.1.2.2.2s.2-.1.2-.2c0 0 0-.3.2-.9.2.1.4.2.5.1.1.6.7 1.4.7 1.4.1.1.1.1.2.1.1-.1.1-.2 0-.2-.1-.1-.2-.3-.3-.5.1.1.2.2.3.2.1.1.2 0 .2-.1v-.2h-.1c-.3-.2-.6-.7-.8-.9.1-.1.1-.2.1-.3-.2-.2-.3-.5-.5-.8.1.2.1.3.2.5 0 .2-.1.4-.2.4 0 0-.2 0-.5-.3-.5-.6-.7-1.1-.6-1.3.1-.1.2-.2.3-.2.2 0 .3.1.4.2-.1-.2-.2-.3-.3-.5-.3-.4-.5-.8-.8-1.2.2.3.3.9.4 1.2-.1 0-.3.1-.3.3v.2c-.3-.3-.7-.8-1-.9-.1 0-.2 0-.2.1s0 .2.1.2c.4.5 1 1.1 1.3 1.5zm-3.6 2c-.1.1 0 .2.1.3.1 0 .2 0 .3-.1.5-.4 1.3-.8 1.5-.9.3.4.7.5 1 .5-.2.3-.4.6-.7 1-.3-.1-1.2-.2-1.6.4 0 .1-.1.1-.1.2-.3.7 0 1.8 0 1.9 0 .1.1.1.2.1 0 0 1.3 0 1.8-.6s.1-1.4-.1-1.7c.2-.2.4-.5.5-.7.1.3.2.6.4.8l.1.1c-.1.3-.3 1.3-.8 2.3l-.1.1c0 .1 0 .2.1.3s.2 0 .3-.1v-.1c.5-.9.7-1.8.8-2.2.2.1.3.1.5.1s.3-.2.4-.3v.8c-.1.1-.5.5-.7 1-.1.2-.1.3-.1.5-.3 1.6.5 2.4.5 2.4.1.1.1.1.2 0 0 0 1.1-.7 1.2-2.1 0-1-.5-1.7-.7-1.9v-1.4c.1.1.1.2.2.3.1.1 1.1 1.9.8 3.6l-.1.1c-.1.1 0 .2.1.3.1 0 .2 0 .3-.1v-.3c.2-1.1-.1-2.3-.4-3 .2.2.4.3.6.3h.1c.1.2.3.6.6 1.1 0 0 0 .1-.1.1 0 .1-.1.2-.1.3-.1.9.4 1.6 1 2l.2-.3c-.5-.4-.9-.9-.8-1.6v-.1c.3.5.6 1 1 1.4l.2-.3c-.3-.4-.7-.9-.9-1.4h.1c.2 0 .4.2.7.5-.1-.2-.3-.5-.5-.8h-.5c-.3-.4-.4-.8-.5-.9h.1c.1-.1.1-.2.2-.3-.1-.2-.3-.4-.4-.7.1.1.1.3.1.4 0 .1 0 .2-.1.3s-.1.1-.2.1c-.5-.1-1.2-1-1.6-1.6-.1-.1-.1-.1-.2-.1s-.1.1-.1.2c0 .3-.1 1.1-.4 1.1-.1 0-.3-.1-.5-.3-.2-.3-.5-.8-.3-1.3v-.1h-.1s-.5.3-1-.4c-.2-.2-.1-.3-.1-.4.1-.3.6-.4.8-.4.1 0 .1-.1.1-.1 0-.1 0-.1-.1-.2-.3-.2-1.2-.9-1.3-1.5 0-.1 0-.2.1-.3s.2-.2.3-.2c.4 0 .8.5 1 .7.1.1.2.1.2 0 0 0 0-.1.1-.1v-.2c-.2-.3-.7-1.2-.5-1.6 0-.1.1-.1.1-.1-.1-.1-.1-.2-.2-.3-.1.1-.2.2-.2.3-.1.3 0 .7.1 1.1-.2-.1-.3-.1-.5-.1s-.4.1-.6.3c0 .1-.1.1-.1.2-.1.1-.1.3-.1.4.1.6.7 1.2 1.1 1.5-.3.1-.6.2-.7.5 0 .1-.1.3 0 .5-.3.1-1 .5-1.6.9-.3-.2-.4-.2-.4-.1zm4.7 4.5c.1-.6.2-1.3.3-1.9.2.3.3.7.3 1.3 0 .9-.6 1.5-.9 1.7-.2-.2-.5-.9-.3-2 .1-.4.3-.8.5-1 0 .6-.1 1.3-.3 1.9 0 .1 0 .2.1.2.2-.1.3-.1.3-.2zm-2.4-2.1c-.4.4-1.1.5-1.4.5-.1-.3-.2-1.2.1-1.6.2-.3.7-.3 1-.3-.4.5-.7 1-.7 1 0 .1 0 .2.1.2s.2 0 .2-.1c0 0 .3-.5.7-1 .1.4.3 1 0 1.3z" style="opacity:.4"/><path class="st23" d="m192.5 234.3-1.8-2.8-2.3 8.2z"/><path class="st34" d="M95.5 185.6c-1.8-3.1-1.9-6.9-.2-10 .2-.3.3-.6.4-.7.6-.7 10.2-6.6 11.7-4.8 1.5 1.9-.6 6.1-.4 7.9.1 1-2.9 2.7-5.5 4 6.3 8.7 20.6 28.3 22.9 29.7 1.2.7 5.6 2.1 11.1 3.6 8.2 2.2 18.8 4.5 24.8 5.2l-6.8 16.3s-5.2-2.2-11.8-5.3c-1.9-.9-3.9-1.8-6-2.8-8.9-4.2-18.2-8.9-20.4-11.2-3.5-3.6-14.7-23-19.8-31.9z"/><path class="st12" d="M155.3 219s12.8 12.8 30 14.7 19.5-1.3 19.5-1.3l7.5 11.2s-6.8 9.2-16.8 10l-5.7 28s2.3 0 1 2.7l-50.5 21.5c5.6-23.7 12.3-36.7 12.3-36.7s-1.6-8.8-3.7-28.5c0 0-10-9.1-13.4-25.3 0 0 11 3 19.8 3.7z"/><path class="st32" d="M155.3 219s12.8 12.8 30 14.7 19.5-1.3 19.5-1.3l7.5 11.2s-6.8 9.2-16.8 10l-5.7 28s2.3 0 1 2.7l-50.5 21.5c5.6-23.7 12.3-36.7 12.3-36.7s-1.6-8.8-3.7-28.5c0 0-10-9.1-13.4-25.3 0 0 11 3 19.8 3.7z"/><path class="st12" d="M212.3 240.6s-6.2 8.6-16.8 13l1.6 1.6s10.5-2.2 16.4-10.4l-1.2-4.2z"/><path class="st36" d="m195.5 253.6 1.6 1.6s2.1-.4 5-1.7c3.5-1.5 8.1-4.2 11.3-8.7l-1.2-4.2s-.4.5-1.1 1.4c-1.6 1.9-4.9 5.4-9.6 8.4-1.8 1.2-3.8 2.3-6 3.2z"/><path class="st19" d="M180.1 179.3s17.3 5.1 15.3 20c-1.8 12.7-3.6 13.7-3.6 13.7s3.1-1.6 4.3-2.5.8-2.5.8-2.5 4.9-3.4 4.2-13.8c0 0 3.2-2.4 2.2-5.5-.9-3.1-5-3.5-5-3.5s-4.4-5.3-7.3-6.1c-2.9-.9-5.9 0-5.9 0s-2.7-1.9-5 .2z"/><path class="st12" d="M167.8 262.1c1.1-8.3 7.5-8.9 8.8-17.5 0 0 8.5 6.2 6.3 18.2-1.3 6.9-6.4 9.8-8.3 10.7 1-2.6 1.7-5.1 2.2-7.3.4-.1.8-.2 1.2-.4.5-.2 1-.5 1.4-.9s.8-.7 1.1-1.2c.3-.4.6-.9.9-1.4-.3.4-.6.8-1 1.2-.4.4-.8.7-1.2.9-.4.3-.9.5-1.4.6-.2.1-.4.1-.7.2.6-3 .9-5.6 1-7.7.5-.4 1-.9 1.4-1.4s.8-1.1 1-1.7c-.3.6-.8 1-1.3 1.4-.3.2-.7.4-1 .6.1-4-.6-6.1-.6-6.1.2 3.4-.1 6.9-.7 10.1-.2-.2-.4-.4-.5-.6-.4-.4-.7-.9-1.1-1.4-.7-1-1.2-2-1.7-3.1.4 1.1.8 2.3 1.3 3.3.3.5.6 1.1.9 1.6l.9 1.2c-.5 2.5-1 4.9-1.6 6.9-.8-.7-1.6-1.4-2.3-2.2-.9-1-1.7-2.1-2.1-3.4.2 1.4.9 2.6 1.7 3.8.7 1 1.5 1.9 2.4 2.8-.5 1.8-1 3.2-1.4 4.2-1.6-.8-6.6-4.1-5.6-11.4z"/><path class="st22" d="M167.8 262.1c1.1-8.3 7.5-8.9 8.8-17.5 0 0 8.5 6.2 6.3 18.2-1.3 6.9-6.4 9.8-8.3 10.7 1-2.6 1.7-5.1 2.2-7.3.4-.1.8-.2 1.2-.4.5-.2 1-.5 1.4-.9s.8-.7 1.1-1.2c.3-.4.6-.9.9-1.4-.3.4-.6.8-1 1.2-.4.4-.8.7-1.2.9-.4.3-.9.5-1.4.6-.2.1-.4.1-.7.2.6-3 .9-5.6 1-7.7.5-.4 1-.9 1.4-1.4s.8-1.1 1-1.7c-.3.6-.8 1-1.3 1.4-.3.2-.7.4-1 .6.1-4-.6-6.1-.6-6.1.2 3.4-.1 6.9-.7 10.1-.2-.2-.4-.4-.5-.6-.4-.4-.7-.9-1.1-1.4-.7-1-1.2-2-1.7-3.1.4 1.1.8 2.3 1.3 3.3.3.5.6 1.1.9 1.6l.9 1.2c-.5 2.5-1 4.9-1.6 6.9-.8-.7-1.6-1.4-2.3-2.2-.9-1-1.7-2.1-2.1-3.4.2 1.4.9 2.6 1.7 3.8.7 1 1.5 1.9 2.4 2.8-.5 1.8-1 3.2-1.4 4.2-1.6-.8-6.6-4.1-5.6-11.4z"/><path class="st23" d="m195.5 253.6 1.6 1.6s2.1-.4 5-1.7c0-.5-.1-1.1-.2-1.6l-.3-1.5c-.7-2.8-1.8-5.2-1.8-5.2-1.3 5.2-4.3 8.4-4.3 8.4zm-59.8-24.9c2 1 4.1 1.9 6 2.8l-6.2-16.2s-1.7 7.2.2 13.4z"/><path class="st12" d="M148.8 240.6s-9-16.1-9.6-25.3l-4.6-.8s-1.8 5.8 8.6 23.1l5.6 3z"/><path class="st36" d="M148.8 240.6s-9-16.1-9.6-25.3l-4.6-.8s-1.8 5.8 8.6 23.1l5.6 3z"/><path class="st34" d="M210.4 258.2c3.7 3.5 10 3.7 13-1s13.3-34.4 13.3-34.4l-7.1-1.8s-10 25.5-14.5 29.2c-4.5 3.6-4.7 8-4.7 8z"/><path class="st34" d="M229.5 220.9s-1.7-2.9 0-4.8c1.7-1.8 10.1-11.8 11.2-11.8 1.2 0 8 8.7 7.7 9.9s-10.7 9.7-13.8 10.8c-3.1 1.1-5.1-4.1-5.1-4.1z"/><path class="st21" d="m224.2 203.2-3.5 7.8c-.5 1.2 0 2.5 1.2 3l18.4 8.1c1.2.5 2.5 0 3-1.2l3.5-7.8c.5-1.2 0-2.5-1.2-3l-18.4-8.1c-1.1-.4-2.5.1-3 1.2z"/><path transform="rotate(-66.116 233.751 212.172)" class="st22" d="M228.5 205.6h10.6v13.1h-10.6z"/><path class="st19" d="m224.2 203.2-3.5 7.8c-.5 1.2 0 2.5 1.2 3l2.1.9 5.3-12-2.1-.9c-1.1-.4-2.5.1-3 1.2z"/><path class="st21" d="M225.2 205.2c-.2.4 0 .9.4 1.1.4.2.9 0 1.1-.4.2-.4 0-.9-.4-1.1-.4-.2-.9-.1-1.1.4zm-.4 5.1c.2.1.3.4.2.6-.1.2-.4.3-.6.2-.2-.1-.3-.4-.2-.6.1-.2.4-.3.6-.2zm-1.6-.7c.2.1.3.4.2.6-.1.2-.4.3-.6.2-.2-.1-.3-.4-.2-.6.1-.2.3-.3.6-.2zm.8.3c-.2-.1-.3-.4-.2-.6.1-.2.4-.3.6-.2.2.1.3.4.2.6s-.4.3-.6.2zm-.4.9c.2.1.3.4.2.6-.1.2-.4.3-.6.2-.2-.1-.3-.4-.2-.6.1-.2.4-.3.6-.2z"/><path class="st19" d="m243.6 221.2 3.5-7.8c.5-1.2 0-2.5-1.2-3l-2.1-.9-5.3 12 2.1.9c1.1.5 2.5-.1 3-1.2z"/><path class="st21" d="M242.6 219.2c.2-.4 0-.9-.4-1.1-.4-.2-.9 0-1.1.4-.2.4 0 .9.4 1.1.4.3.9.1 1.1-.4zm.4-5.1c-.2-.1-.3-.4-.2-.6.1-.2.4-.3.6-.2.2.1.3.4.2.6-.1.2-.4.3-.6.2zm1.6.7c-.2-.1-.3-.4-.2-.6.1-.2.4-.3.6-.2.2.1.3.4.2.6-.1.2-.3.3-.6.2zm-.8-.3c.2.1.3.4.2.6-.1.2-.4.3-.6.2-.2-.1-.3-.4-.2-.6.1-.2.4-.3.6-.2zm.4-.9c-.2-.1-.3-.4-.2-.6.1-.2.4-.3.6-.2.2.1.3.4.2.6-.1.2-.4.3-.6.2z"/></g><g id="Table"><path class="st21" d="m299.1 413.8-36.3-147.1h8.1l34.4 147.1z"/><path class="st36" d="m299.1 413.8-34.4-139.5-1.9-7.4h8.2l1.7 7.4 32.6 139.5z"/><path class="st23" d="M272.6 273.9h-8l-1.8-7h8.2z"/><path class="st21" d="m243.8 413.8-1-147.1h8.2l-1 147.1z"/><path class="st36" d="M250 413.8h-6.2l-.8-122.2-.2-24.7h8.2l-.2 24.7z"/><path class="st23" d="m242.8 266.9.2 25h7.8l.2-25z"/><path class="st21" d="m190.2 413.8 34.4-147.1h8.1l-36.3 147.1z"/><path class="st36" d="M196.4 413.8h-6.2l32.6-139.5 1.7-7.4h8.1l-1.8 7.4z"/><path class="st23" d="M222.8 273.9h8.1l1.7-7h-8.1z"/><path class="st12" d="M183.5 270.5h128.8c1.2 0 2.2-1 2.2-2.2v-5.5H181.4v5.5c0 1.2.9 2.2 2.1 2.2z"/><path class="st24" d="M183.5 270.5h128.8c1.2 0 2.2-1 2.2-2.2v-5.5H181.4v5.5c0 1.2.9 2.2 2.1 2.2z"/><path class="st23" d="M181.3 262.9h133.1v3.8H181.3z"/><path class="st12" d="M177.6 263.8h140.7c1.2 0 2.2-1 2.2-2.2 0-1.2-1-2.2-2.2-2.2H177.6c-1.2 0-2.2 1-2.2 2.2 0 1.3 1 2.2 2.2 2.2z"/><path class="st24" d="M177.6 263.8h140.7c1.2 0 2.2-1 2.2-2.2 0-1.2-1-2.2-2.2-2.2H177.6c-1.2 0-2.2 1-2.2 2.2 0 1.3 1 2.2 2.2 2.2z"/><path class="st21" d="M241.4 255.4v2.6c0 .8 1.4 1.4 2.1 1.4h61.8c.8 0 2.1-.6 2.1-1.4v-2.6h-66z"/><path class="st24" d="M241.4 255.4v2.6c0 .8 1.4 1.4 2.1 1.4h61.8c.8 0 2.1-.6 2.1-1.4v-2.6h-66z"/><path class="st23" d="M241.4 255.4v2.6c0 .8 1.4 1.4 2.1 1.4h40.8c.8 0 2.1-.6 2.1-1.4v-2.6h-45z"/><path class="st21" d="m231.4 222.9 7.4 33.5c.2 1.1 1.3 2 2.4 2h40.2c1.1 0 1.8-1.1 1.5-2.2l-7.3-33.1c-.2-1.1-1.3-1.6-2.4-1.6H233c-1.1-.1-1.8.3-1.6 1.4z"/><path class="st24" d="m231.4 222.9 7.4 33.5c.2 1.1 1.3 2 2.4 2h40.2c1.1 0 1.8-1.1 1.5-2.2l-7.3-33.1c-.2-1.1-1.3-1.6-2.4-1.6H233c-1.1-.1-1.8.3-1.6 1.4z"/><path class="st27" d="m231.4 222.9 7.4 33.5c.2 1.1 1.3 2 2.4 2H280c1.1 0 1.8-1.1 1.5-2.2l-7.4-33.1c-.2-1.1-1.3-1.6-2.4-1.6H233c-1.1-.1-1.8.3-1.6 1.4z"/><path class="st23" d="M255.1 244.4c-1.9 0-3.8-2-4.3-4.5s.6-4.5 2.5-4.5c.4 0 .7.1 1 .2.4 1.9 1.8 3.6 3.2 4.1v.2c.6 2.5-.5 4.5-2.4 4.5z"/><path class="st12" d="M215.9 254.3v-4.4c0-1.8 1.5-3.4 3.4-3.4h4.8v11.1h-4.8c-1.9 0-3.4-1.5-3.4-3.3zm6.1-5.8h-2.8c-.7 0-1.4.6-1.4 1.4v4.4c0 .7.6 1.4 1.4 1.4h2.8v-7.2z"/><path class="st19" d="M215.9 254.3v-4.4c0-1.8 1.5-3.4 3.4-3.4h4.8v11.1h-4.8c-1.9 0-3.4-1.5-3.4-3.3zm6.1-5.8h-2.8c-.7 0-1.4.6-1.4 1.4v4.4c0 .7.6 1.4 1.4 1.4h2.8v-7.2z"/><path class="st19" d="M222.2 259.5h12.5c.6 0 1.1-.5 1.1-1.1v-12.5c0-.6-.5-1.1-1.1-1.1h-12.5c-.6 0-1.1.5-1.1 1.1v12.5c.1.6.5 1.1 1.1 1.1z"/><path class="st32" d="M228.2 224.6s4.6 2.1 3 6.1-5.2 5.5-1.8 10.4c0 0-4.3-1.3-2.6-5.7s5-7.1.9-10.8"/></g></svg>