<svg version="1.1" id="b9950e65-c983-427f-969f-411e60d4718f" xmlns="http://www.w3.org/2000/svg" x="0" y="0" viewBox="0 0 733.5 729" style="enable-background:new 0 0 733.5 729" xml:space="preserve"><style>.st3{fill:#5596e6}.st4{fill:#0062ff}.st9{fill:#faf8e4}.st10{opacity:.6}.st11{fill:#41d6c3}.st14{fill:#fff}.st18{fill:#3d80b7}</style><linearGradient id="SVGID_1_" gradientUnits="userSpaceOnUse" x1="383.47" y1="-.97" x2="383.47" y2="327.08" gradientTransform="matrix(1 0 0 -1 0 728)"><stop offset="0" style="stop-color:gray;stop-opacity:.25"/><stop offset=".54" style="stop-color:gray;stop-opacity:.12"/><stop offset="1" style="stop-color:gray;stop-opacity:.1"/></linearGradient><path style="fill:url(#SVGID_1_)" d="M346.3 400.9h74.4v328h-74.4z"/><path style="fill:#eceff1" d="M353.1 400.9h62.7v322.2h-62.7z"/><linearGradient id="SVGID_2_" gradientUnits="userSpaceOnUse" x1="238.3" y1="366.18" x2="838.21" y2="366.18" gradientTransform="matrix(1 0 0 -1 -185.78 644.69)"><stop offset="0" style="stop-color:gray;stop-opacity:.25"/><stop offset=".54" style="stop-color:gray;stop-opacity:.12"/><stop offset="1" style="stop-color:gray;stop-opacity:.1"/></linearGradient><path d="M593.8 145.3H258.6c-11.5.3-22.9 2.8-33.4 7.4-34.1 15.1-53.9 38.8-59.5 91.4v121.4l-88.8-.9c-17.9 0-24.4 28.1-24.4 47.1h599.9V207.6c0-34.4-26.2-62.3-58.6-62.3z" style="fill:url(#SVGID_2_)"/><path class="st3" d="M270.9 158.1H603c22.5 0 40.7 18.2 40.7 40.7V401H270.9V158.1z"/><path class="st4" d="M263 158.1c49.8 0 90.1 40.3 90.1 90.1v108.7c0 24.4-19.7 44.1-44.1 44.1h-92c-24.4 0-44.1-19.7-44.1-44.1V248.1c0-49.7 40.3-90 90.1-90z"/><path d="M263 158.1c49.8 0 90.1 40.3 90.1 90.1v108.7c0 24.4-19.7 44.1-44.1 44.1h-92c-24.4 0-44.1-19.7-44.1-44.1V248.1c0-49.7 40.3-90 90.1-90z" style="fill:#4b8fd1"/><linearGradient id="SVGID_3_" gradientUnits="userSpaceOnUse" x1="465.73" y1="478.87" x2="465.73" y2="602.25" gradientTransform="matrix(1 0 0 -1 0 728)"><stop offset="0" style="stop-color:gray;stop-opacity:.25"/><stop offset=".54" style="stop-color:gray;stop-opacity:.12"/><stop offset="1" style="stop-color:gray;stop-opacity:.1"/></linearGradient><path style="fill:url(#SVGID_3_)" d="M502.9 125.8h-74.4v123.3h33.8v-68h40.6z"/><path style="fill:#ffcc80" d="M497.1 125.8h-62.7v113.5h23.5v-62.6h39.2z"/><linearGradient id="SVGID_4_" gradientUnits="userSpaceOnUse" x1="511.242" y1="330.598" x2="511.242" y2="407.278" gradientTransform="rotate(-173.073 367.474 317.98)"><stop offset="0" style="stop-color:gray;stop-opacity:.25"/><stop offset=".54" style="stop-color:gray;stop-opacity:.12"/><stop offset="1" style="stop-color:gray;stop-opacity:.1"/></linearGradient><path style="fill:url(#SVGID_4_)" d="m164.4 280.5 9.2-76.1 123.9 15.1-9.3 76.1z"/><path transform="rotate(-83.062 230.427 249.293)" class="st9" d="M194.7 189h71.6v120.5h-71.6z"/><g class="st10"><path transform="rotate(-83.062 186.361 219.116)" class="st11" d="M180.7 211.5h11.4v15.3h-11.4z"/><path transform="rotate(-83.062 217.333 248.987)" class="st4" d="M215.5 219.5h3.7v58.9h-3.7z"/><path transform="rotate(-83.062 224.214 258.48)" class="st4" d="M223 237h2.5v42.9H223z"/></g><linearGradient id="SVGID_5_" gradientUnits="userSpaceOnUse" x1="459.122" y1="320.068" x2="459.122" y2="396.748" gradientTransform="rotate(-173.073 367.473 317.976)"><stop offset="0" style="stop-color:gray;stop-opacity:.25"/><stop offset=".54" style="stop-color:gray;stop-opacity:.12"/><stop offset="1" style="stop-color:gray;stop-opacity:.1"/></linearGradient><path style="fill:url(#SVGID_5_)" d="m214.8 297.3 9.3-76.1 123.9 15-9.3 76.2z"/><path transform="rotate(-83.062 280.891 266.047)" class="st9" d="M245.1 205.8h71.6v120.5h-71.6z"/><g class="st10"><path transform="rotate(-83.062 236.833 235.87)" class="st11" d="M231.2 228.2h11.4v15.3h-11.4z"/><path transform="rotate(-83.062 267.805 265.743)" class="st4" d="M266 236.3h3.7v58.9H266z"/><path transform="rotate(-83.062 274.666 275.235)" class="st4" d="M273.5 253.8h2.5v42.9h-2.5z"/></g><linearGradient id="SVGID_6_" gradientUnits="userSpaceOnUse" x1="542.517" y1="272.758" x2="542.517" y2="376.698" gradientTransform="rotate(-173.073 367.47 317.98)"><stop offset="0" style="stop-color:gray;stop-opacity:.25"/><stop offset=".54" style="stop-color:gray;stop-opacity:.12"/><stop offset="1" style="stop-color:gray;stop-opacity:.1"/></linearGradient><path style="fill:url(#SVGID_6_)" d="m104.3 331.5 12.6-103.2 167.9 20.5-12.6 103.1z"/><path transform="rotate(-83.062 193.864 289.135)" class="st14" d="M145.4 207.4h97v163.4h-97z"/><g class="st10"><path transform="rotate(-83.062 134.133 248.234)" class="st11" d="M126.4 237.8h15.4v20.8h-15.4z"/><path transform="rotate(-83.062 176.103 288.733)" class="st11" d="M173.6 248.8h5v79.8h-5z"/><path transform="rotate(-83.062 185.436 301.59)" class="st11" d="M183.8 272.5h3.3v58.2h-3.3z"/></g><linearGradient id="SVGID_7_" gradientUnits="userSpaceOnUse" x1="471.867" y1="258.488" x2="471.867" y2="362.428" gradientTransform="rotate(-173.073 367.47 317.977)"><stop offset="0" style="stop-color:gray;stop-opacity:.25"/><stop offset=".54" style="stop-color:gray;stop-opacity:.12"/><stop offset="1" style="stop-color:gray;stop-opacity:.1"/></linearGradient><path style="fill:url(#SVGID_7_)" d="M172.7 354.2 185.3 251l167.9 20.5-12.6 103.1z"/><path transform="rotate(-83.062 262.26 311.848)" class="st14" d="M213.8 230.2h97v163.4h-97z"/><g class="st10"><path transform="rotate(-83.062 202.536 270.944)" class="st11" d="M194.9 260.6h15.4v20.8h-15.4z"/><path transform="rotate(-83.062 244.506 311.443)" class="st11" d="M242 271.5h5v79.8h-5z"/><path transform="rotate(-83.062 253.838 324.3)" class="st11" d="M252.2 295.2h3.3v58.2h-3.3z"/></g><path d="M262 159c-11.8 0-23.5 2.3-34.4 6.8 4.2-.6 8.5-.9 12.8-.9 49.8 0 90.1 40.3 90.1 90.1v143H352V249.1c.1-49.7-40.2-90.1-90-90.1z" style="opacity:.2;enable-background:new"/><path class="st4" d="M94.6 369.6h258.5v31.3H63.3c0-17.3 14-31.3 31.3-31.3z"/><path class="st3" d="M94.6 369.6h258.5v31.3H63.3c0-17.3 14-31.3 31.3-31.3z"/><linearGradient id="SVGID_8_" gradientUnits="userSpaceOnUse" x1="733.26" y1="404.624" x2="733.26" y2="463.982" gradientTransform="rotate(130.5 800.464 232.044)"><stop offset="0" style="stop-color:gray;stop-opacity:.25"/><stop offset=".54" style="stop-color:gray;stop-opacity:.12"/><stop offset="1" style="stop-color:gray;stop-opacity:.1"/></linearGradient><path style="fill:url(#SVGID_8_)" d="m657.4 70.6-3 1.4.3-.6-.2.1.3-.3L694.9 0l20.4 17.5 17.6 16.2-5.1 2.5 5.7 10z"/><path class="st4" d="m713.3 19.3 16 14.9-72.7 36.1 38.7-49.6z"/><path class="st18" d="m713.3 19.3 16 14.9-72.7 36.1 38.7-49.6z"/><path class="st3" d="m694.6 3.3-38 67 56.7-51z"/><path class="st3" d="m729.8 45.7-73.1 24.1 61.1-45.6z"/><linearGradient id="SVGID_9_" gradientUnits="userSpaceOnUse" x1="260.144" y1="29.332" x2="260.144" y2="116.275" gradientTransform="scale(1 -1) rotate(-32.358 -88.3 335.36)"><stop offset="0" style="stop-color:gray;stop-opacity:.25"/><stop offset=".54" style="stop-color:gray;stop-opacity:.12"/><stop offset="1" style="stop-color:gray;stop-opacity:.1"/></linearGradient><path style="fill:url(#SVGID_9_)" d="m121.7 87 4.7.7-.7-.7h.4l-.6-.2L38.6 4.4 17.5 37.7 0 68l8.1 1.3-3.6 16.4z"/><path class="st4" d="m21.2 39.4-16 27.8 117.4 19.1L47 33.6z"/><path class="st18" d="m21.2 39.4-16 27.8 117.4 19.1L47 33.6z"/><path class="st3" d="m40.5 9 82.1 77.3L21.2 39.4z"/><path class="st3" d="m9.5 83.5 112.8 2.2L17 48.3z"/></svg>