<svg xmlns="http://www.w3.org/2000/svg" version="1.1" id="a8897f4c-2937-4134-8b3a-fee1040aeff6" x="0" y="0" viewBox="0 0 1066.1 824.2" style="enable-background:new 0 0 1066.1 824.2" xml:space="preserve"><style>.st1{opacity:.1}</style><path style="opacity:.1;fill:#ececec" d="M87.7 725.6V550.9h9.6v-53.5h14.1v-186h20.3v-24l43.3-20.2V243h6v68.4h8.4v186h8.4v-97.8h22.8v-50.4h6.3v148.2h17.4V441h11.4v-14.4h26.4v-49.2h14.4v-34.8h17.8v-50.7h6.3v50.7h17.8v34.8h14.5v49.2h26.4V441h11.4v56.4h13.5v-70.8h26.4V274.2h8.4v-16.8h56.4v16.8h12v110.4h48v10.8h18v8.4h-18V447h50.4V303h10.8v-30.6H640V163.8h6.6v108.6h16.8V303h98.5v-10h6v68.4h8.4v1.2h5.1V431h8.4v18.6h17.7v-50.4h6.4v120h7.1v-50.4h6.3v78.6h3.9V491h11.4v-14.4H869v-49.2h14.5v-34.8h17.7v-50.7h6.4v50.7h17.7v34.8h14.5v49.2h26.4V491h11.4v55.2h2.1v1.2h5.6v178.2z"/><path d="M700.2 309.8h6.8v6.8h-6.8zm0 11.4h6.8v6.8h-6.8zm0 45.6h6.8v6.8h-6.8zm0 11.4h6.8v6.8h-6.8zm0 11.4h6.8v6.8h-6.8zm0 34.2h6.8v6.8h-6.8zm0 11.4h6.8v6.8h-6.8zm-10.8-79.8h6.8v6.8h-6.8zm0 11.4h6.8v6.8h-6.8zm0 11.4h6.8v6.8h-6.8zm0 11.4h6.8v6.8h-6.8zm0 11.4h6.8v6.8h-6.8zm0 22.8h6.8v6.8h-6.8zm0 11.4h6.8v6.8h-6.8zm-10.8-125.4h6.8v6.8h-6.8zm0 11.4h6.8v6.8h-6.8zm0 11.4h6.8v6.8h-6.8zm0 11.4h6.8v6.8h-6.8zm0 11.4h6.8v6.8h-6.8zm0 11.4h6.8v6.8h-6.8zm0 11.4h6.8v6.8h-6.8zm0 11.4h6.8v6.8h-6.8zm0 11.4h6.8v6.8h-6.8zm0 11.4h6.8v6.8h-6.8zm0 22.8h6.8v6.8h-6.8zm-10.8-125.4h6.8v6.8h-6.8zm0 11.4h6.8v6.8h-6.8zm0 11.4h6.8v6.8h-6.8zm0 11.4h6.8v6.8h-6.8zm0 11.4h6.8v6.8h-6.8zm0 11.4h6.8v6.8h-6.8zm0 11.4h6.8v6.8h-6.8zm0 102.6h6.8v6.8h-6.8zm-10.8-171h6.8v6.8H657zm0 11.4h6.8v6.8H657zm0 11.4h6.8v6.8H657zm0 11.4h6.8v6.8H657zm0 11.4h6.8v6.8H657zm0 11.4h6.8v6.8H657zm0 11.4h6.8v6.8H657zm0 11.4h6.8v6.8H657zm0 68.4h6.8v6.8H657zm0 11.4h6.8v6.8H657zm0 11.4h6.8v6.8H657zm0 11.4h6.8v6.8H657zm0 45.6h6.8v6.8H657zm-10.9-228h6.8v6.8h-6.8zm0 11.4h6.8v6.8h-6.8zm0 11.4h6.8v6.8h-6.8zm0 11.4h6.8v6.8h-6.8zm0 11.4h6.8v6.8h-6.8zm0 11.4h6.8v6.8h-6.8zm0 11.4h6.8v6.8h-6.8zm0 11.4h6.8v6.8h-6.8zm0 11.4h6.8v6.8h-6.8zm0 11.4h6.8v6.8h-6.8zm0 34.2h6.8v6.8h-6.8zm0 11.4h6.8v6.8h-6.8zm0 11.4h6.8v6.8h-6.8zm0 11.4h6.8v6.8h-6.8zm0 11.4h6.8v6.8h-6.8zm0 45.6h6.8v6.8h-6.8zm-10.8-228h6.8v6.8h-6.8zm0 11.4h6.8v6.8h-6.8zm0 11.4h6.8v6.8h-6.8zm0 11.4h6.8v6.8h-6.8zm0 11.4h6.8v6.8h-6.8zm0 11.4h6.8v6.8h-6.8zm0 11.4h6.8v6.8h-6.8zm0 11.4h6.8v6.8h-6.8zm0 11.4h6.8v6.8h-6.8zm0 11.4h6.8v6.8h-6.8zm0 11.4h6.8v6.8h-6.8zm0 11.4h6.8v6.8h-6.8zm0 11.4h6.8v6.8h-6.8zm0 11.4h6.8v6.8h-6.8zm0 11.4h6.8v6.8h-6.8zm0 11.4h6.8v6.8h-6.8zm0 11.4h6.8v6.8h-6.8zm0 11.4h6.8v6.8h-6.8zm-10.8-193.8h6.8v6.8h-6.8zm0 11.4h6.8v6.8h-6.8zm0 11.4h6.8v6.8h-6.8zm0 11.4h6.8v6.8h-6.8zm0 11.4h6.8v6.8h-6.8zm0 11.4h6.8v6.8h-6.8zm0 11.4h6.8v6.8h-6.8zm0 11.4h6.8v6.8h-6.8zm0 11.4h6.8v6.8h-6.8zm0 11.4h6.8v6.8h-6.8zm0 34.2h6.8v6.8h-6.8zm0 11.4h6.8v6.8h-6.8zm0 11.4h6.8v6.8h-6.8zm0 11.4h6.8v6.8h-6.8zm-10.8-171h6.8v6.8h-6.8zm0 11.4h6.8v6.8h-6.8zm0 11.4h6.8v6.8h-6.8zm0 11.4h6.8v6.8h-6.8zm0 11.4h6.8v6.8h-6.8zm0 11.4h6.8v6.8h-6.8zm0 11.4h6.8v6.8h-6.8zm0 11.4h6.8v6.8h-6.8zm0 11.4h6.8v6.8h-6.8zm0 11.4h6.8v6.8h-6.8zm0 34.2h6.8v6.8h-6.8zm0 11.4h6.8v6.8h-6.8zm0 11.4h6.8v6.8h-6.8zM492.1 280.2h6.8v6.8h-6.8zm0 11.4h6.8v6.8h-6.8zm0 11.4h6.8v6.8h-6.8zm0 11.4h6.8v6.8h-6.8zm0 11.4h6.8v6.8h-6.8zm0 11.4h6.8v6.8h-6.8zm0 11.4h6.8v6.8h-6.8zm0 11.4h6.8v6.8h-6.8zm0 34.2h6.8v6.8h-6.8zm0 11.4h6.8v6.8h-6.8zm-10.8-125.4h6.8v6.8h-6.8zm0 11.4h6.8v6.8h-6.8zm0 11.4h6.8v6.8h-6.8zm0 11.4h6.8v6.8h-6.8zm0 11.4h6.8v6.8h-6.8zm0 11.4h6.8v6.8h-6.8zm0 11.4h6.8v6.8h-6.8zm0 11.4h6.8v6.8h-6.8zm0 45.6h6.8v6.8h-6.8zm-10.8-125.4h6.8v6.8h-6.8zm0 11.4h6.8v6.8h-6.8zm0 11.4h6.8v6.8h-6.8zm0 11.4h6.8v6.8h-6.8zm0 11.4h6.8v6.8h-6.8zm0 11.4h6.8v6.8h-6.8zm0 11.4h6.8v6.8h-6.8zm0 11.4h6.8v6.8h-6.8zm-10.8-79.8h6.8v6.8h-6.8zm0 11.4h6.8v6.8h-6.8zm0 11.4h6.8v6.8h-6.8zm0 11.4h6.8v6.8h-6.8zm0 11.4h6.8v6.8h-6.8zm0 11.4h6.8v6.8h-6.8zm0 22.8h6.8v6.8h-6.8zm0 11.4h6.8v6.8h-6.8zm0 34.2h6.8v6.8h-6.8zm0 11.4h6.8v6.8h-6.8zm0 11.4h6.8v6.8h-6.8zm0 11.4h6.8v6.8h-6.8zm0 11.4h6.8v6.8h-6.8zm0 11.4h6.8v6.8h-6.8zm0 11.4h6.8v6.8h-6.8zm-10.8-193.8h6.8v6.8h-6.8zm0 11.4h6.8v6.8h-6.8zm0 11.4h6.8v6.8h-6.8zm0 11.4h6.8v6.8h-6.8zm0 11.4h6.8v6.8h-6.8zm0 11.4h6.8v6.8h-6.8zm0 34.2h6.8v6.8h-6.8zm0 11.4h6.8v6.8h-6.8zm0 11.4h6.8v6.8h-6.8zm0 11.4h6.8v6.8h-6.8zm0 11.4h6.8v6.8h-6.8zm0 11.4h6.8v6.8h-6.8zm0 11.4h6.8v6.8h-6.8zm0 11.4h6.8v6.8h-6.8zm0 11.4h6.8v6.8h-6.8zm0 11.4h6.8v6.8h-6.8zm0 11.4h6.8v6.8h-6.8zm0 22.8h6.8v6.8h-6.8zm-10.8-228h6.8v6.8h-6.8zm0 11.4h6.8v6.8h-6.8zm0 11.4h6.8v6.8h-6.8zm0 11.4h6.8v6.8h-6.8zm0 11.4h6.8v6.8h-6.8zm0 11.4h6.8v6.8h-6.8zm0 34.2h6.8v6.8h-6.8zm0 11.4h6.8v6.8h-6.8zm0 11.4h6.8v6.8h-6.8zm0 11.4h6.8v6.8h-6.8zm0 34.2h6.8v6.8h-6.8zm0 11.4h6.8v6.8h-6.8zm0 11.4h6.8v6.8h-6.8zm0 11.4h6.8v6.8h-6.8zm0 11.4h6.8v6.8h-6.8zm0 22.8h6.8v6.8h-6.8zm0 11.4h6.8v6.8h-6.8zm-98-133.4h6.8v6.8h-6.8zm0 11.4h6.8v6.8h-6.8zm0 11.4h6.8v6.8h-6.8zm0 11.4h6.8v6.8h-6.8zm0 11.4h6.8v6.8h-6.8zm0 11.4h6.8v6.8h-6.8zm0 11.4h6.8v6.8h-6.8zm0 34.2h6.8v6.8h-6.8zm0 11.4h6.8v6.8h-6.8zm0 11.4h6.8v6.8h-6.8zm-10.8-125.4h6.8v6.8h-6.8zm0 11.4h6.8v6.8h-6.8zm0 11.4h6.8v6.8h-6.8zm0 11.4h6.8v6.8h-6.8zm0 11.4h6.8v6.8h-6.8zm0 11.4h6.8v6.8h-6.8zm0 11.4h6.8v6.8h-6.8zm-10.8-68.4h6.8v6.8h-6.8zm0 11.4h6.8v6.8h-6.8zm0 11.4h6.8v6.8h-6.8zm0 11.4h6.8v6.8h-6.8zm0 11.4h6.8v6.8h-6.8zm0 11.4h6.8v6.8h-6.8zm0 11.4h6.8v6.8h-6.8zm-10.8-68.4h6.8v6.8h-6.8zm0 11.4h6.8v6.8h-6.8zm0 11.4h6.8v6.8h-6.8zm0 11.4h6.8v6.8h-6.8zm0 11.4h6.8v6.8h-6.8zm0 11.4h6.8v6.8h-6.8zm0 11.4h6.8v6.8h-6.8zm0 11.4h6.8v6.8h-6.8zm0 11.4h6.8v6.8h-6.8zm0 11.4h6.8v6.8h-6.8zm0 11.4h6.8v6.8h-6.8zm-10.8-114h6.8v6.8h-6.8zm0 11.4h6.8v6.8h-6.8zm0 11.4h6.8v6.8h-6.8zm0 11.4h6.8v6.8h-6.8zm0 11.4h6.8v6.8h-6.8zm0 11.4h6.8v6.8h-6.8zm0 11.4h6.8v6.8h-6.8zm0 11.4h6.8v6.8h-6.8zm0 11.4h6.8v6.8h-6.8zm0 11.4h6.8v6.8h-6.8zm0 11.4h6.8v6.8h-6.8zm0 11.4h6.8v6.8h-6.8zm0 34.2h6.8v6.8h-6.8zm0 11.4h6.8v6.8h-6.8zm-10.8-171h6.8v6.8h-6.8zm0 11.4h6.8v6.8h-6.8zm0 11.4h6.8v6.8h-6.8zm0 34.2h6.8v6.8h-6.8zm0 11.4h6.8v6.8h-6.8zm0 11.4h6.8v6.8h-6.8zm0 11.4h6.8v6.8h-6.8zm0 11.4h6.8v6.8h-6.8zm0 11.4h6.8v6.8h-6.8zm0 11.4h6.8v6.8h-6.8zm0 34.2h6.8v6.8h-6.8zm0 11.4h6.8v6.8h-6.8zm0 11.4h6.8v6.8h-6.8zM172.9 317.8h6.8v6.8h-6.8zm0 11.4h6.8v6.8h-6.8zm0 11.4h6.8v6.8h-6.8zm0 11.4h6.8v6.8h-6.8zm0 11.4h6.8v6.8h-6.8zm0 11.4h6.8v6.8h-6.8zm0 11.4h6.8v6.8h-6.8zm0 11.4h6.8v6.8h-6.8zm0 11.4h6.8v6.8h-6.8zm0 11.4h6.8v6.8h-6.8zm0 11.4h6.8v6.8h-6.8zm0 11.4h6.8v6.8h-6.8zm0 11.4h6.8v6.8h-6.8zm0 11.4h6.8v6.8h-6.8zm0 11.4h6.8v6.8h-6.8zm0 11.4h6.8v6.8h-6.8zm0 11.4h6.8v6.8h-6.8zm0 11.4h6.8v6.8h-6.8zm0 11.4h6.8v6.8h-6.8zm0 11.4h6.8v6.8h-6.8zm0 11.4h6.8v6.8h-6.8zm0 11.4h6.8v6.8h-6.8zm0 11.4h6.8v6.8h-6.8zm-10.8-250.8h6.8v6.8h-6.8zm0 11.4h6.8v6.8h-6.8zm0 11.4h6.8v6.8h-6.8zm0 11.4h6.8v6.8h-6.8zm0 11.4h6.8v6.8h-6.8zm0 11.4h6.8v6.8h-6.8zm0 11.4h6.8v6.8h-6.8zm0 11.4h6.8v6.8h-6.8zm0 11.4h6.8v6.8h-6.8zm0 11.4h6.8v6.8h-6.8zm0 11.4h6.8v6.8h-6.8zm0 11.4h6.8v6.8h-6.8zm0 11.4h6.8v6.8h-6.8zm0 11.4h6.8v6.8h-6.8zm0 11.4h6.8v6.8h-6.8zm0 11.4h6.8v6.8h-6.8zm0 11.4h6.8v6.8h-6.8zm0 11.4h6.8v6.8h-6.8zm0 11.4h6.8v6.8h-6.8zm-10.8-205.2h6.8v6.8h-6.8zm0 11.4h6.8v6.8h-6.8zm0 11.4h6.8v6.8h-6.8zm0 11.4h6.8v6.8h-6.8zm0 11.4h6.8v6.8h-6.8zm0 11.4h6.8v6.8h-6.8zm0 11.4h6.8v6.8h-6.8zm0 11.4h6.8v6.8h-6.8zm0 11.4h6.8v6.8h-6.8zm0 11.4h6.8v6.8h-6.8zm0 11.4h6.8v6.8h-6.8zm0 11.4h6.8v6.8h-6.8zm0 11.4h6.8v6.8h-6.8zm0 11.4h6.8v6.8h-6.8zm0 11.4h6.8v6.8h-6.8zm0 11.4h6.8v6.8h-6.8zm0 11.4h6.8v6.8h-6.8zm0 11.4h6.8v6.8h-6.8zm0 11.4h6.8v6.8h-6.8zm-10.8-205.2h6.8v6.8h-6.8zm0 11.4h6.8v6.8h-6.8zm0 11.4h6.8v6.8h-6.8zm0 11.4h6.8v6.8h-6.8zm0 11.4h6.8v6.8h-6.8zm0 11.4h6.8v6.8h-6.8zm0 11.4h6.8v6.8h-6.8zm0 11.4h6.8v6.8h-6.8zm0 11.4h6.8v6.8h-6.8zm0 11.4h6.8v6.8h-6.8zm0 11.4h6.8v6.8h-6.8zm0 11.4h6.8v6.8h-6.8zm0 11.4h6.8v6.8h-6.8zm0 11.4h6.8v6.8h-6.8zm0 11.4h6.8v6.8h-6.8zm-10.8-159.6h6.8v6.8h-6.8zm0 11.4h6.8v6.8h-6.8zm0 11.4h6.8v6.8h-6.8zm0 11.4h6.8v6.8h-6.8zm0 11.4h6.8v6.8h-6.8zm0 11.4h6.8v6.8h-6.8zm0 11.4h6.8v6.8h-6.8zm0 11.4h6.8v6.8h-6.8zm0 11.4h6.8v6.8h-6.8zm0 11.4h6.8v6.8h-6.8zm0 11.4h6.8v6.8h-6.8zm0 11.4h6.8v6.8h-6.8zm0 11.4h6.8v6.8h-6.8zm-10.8-136.8h6.8v6.8h-6.8zm0 11.4h6.8v6.8h-6.8zm0 11.4h6.8v6.8h-6.8zm0 11.4h6.8v6.8h-6.8zm0 11.4h6.8v6.8h-6.8zm0 11.4h6.8v6.8h-6.8zm0 11.4h6.8v6.8h-6.8zm0 11.4h6.8v6.8h-6.8zm0 11.4h6.8v6.8h-6.8zm0 11.4h6.8v6.8h-6.8zm0 11.4h6.8v6.8h-6.8zm0 11.4h6.8v6.8h-6.8zM912.6 401h6.8v6.8h-6.8zm0 11.4h6.8v6.8h-6.8zm0 11.4h6.8v6.8h-6.8zm0 11.4h6.8v6.8h-6.8zm0 11.4h6.8v6.8h-6.8zm0 11.4h6.8v6.8h-6.8zm0 11.4h6.8v6.8h-6.8zm0 11.4h6.8v6.8h-6.8zm0 11.4h6.8v6.8h-6.8zm0 11.4h6.8v6.8h-6.8zm0 11.4h6.8v6.8h-6.8zm0 11.4h6.8v6.8h-6.8zm0 11.4h6.8v6.8h-6.8zm0 11.4h6.8v6.8h-6.8zm0 11.4h6.8v6.8h-6.8zm0 11.4h6.8v6.8h-6.8zm0 11.4h6.8v6.8h-6.8zm0 11.4h6.8v6.8h-6.8zm0 11.4h6.8v6.8h-6.8zm0 11.4h6.8v6.8h-6.8zM901.8 401h6.8v6.8h-6.8zm0 11.4h6.8v6.8h-6.8zm0 11.4h6.8v6.8h-6.8zm0 11.4h6.8v6.8h-6.8zm0 11.4h6.8v6.8h-6.8zm0 11.4h6.8v6.8h-6.8zm0 11.4h6.8v6.8h-6.8zm0 11.4h6.8v6.8h-6.8zm0 11.4h6.8v6.8h-6.8zm0 11.4h6.8v6.8h-6.8zm0 11.4h6.8v6.8h-6.8zm0 11.4h6.8v6.8h-6.8zm0 11.4h6.8v6.8h-6.8zm0 11.4h6.8v6.8h-6.8zm0 11.4h6.8v6.8h-6.8zm0 11.4h6.8v6.8h-6.8zm0 11.4h6.8v6.8h-6.8zm0 11.4h6.8v6.8h-6.8zM891 401h6.8v6.8H891zm0 11.4h6.8v6.8H891zm0 11.4h6.8v6.8H891zm0 11.4h6.8v6.8H891zm0 11.4h6.8v6.8H891zm0 11.4h6.8v6.8H891zm0 11.4h6.8v6.8H891zm0 11.4h6.8v6.8H891zm0 11.4h6.8v6.8H891zm0 11.4h6.8v6.8H891zm0 11.4h6.8v6.8H891zm0 11.4h6.8v6.8H891zm0 11.4h6.8v6.8H891zm0 11.4h6.8v6.8H891zm0 11.4h6.8v6.8H891zm0 11.4h6.8v6.8H891zm0 11.4h6.8v6.8H891zm0 11.4h6.8v6.8H891zm62-110.6h6.8v6.8H953zm0 11.4h6.8v6.8H953zm0 11.4h6.8v6.8H953zm0 11.4h6.8v6.8H953zm0 11.4h6.8v6.8H953zm0 11.4h6.8v6.8H953zm0 11.4h6.8v6.8H953zm0 11.4h6.8v6.8H953zm0 11.4h6.8v6.8H953zm0 11.4h6.8v6.8H953zm0 11.4h6.8v6.8H953zm0 11.4h6.8v6.8H953zm0 11.4h6.8v6.8H953zm-10.8-136.8h6.8v6.8h-6.8zm0 11.4h6.8v6.8h-6.8zm0 11.4h6.8v6.8h-6.8zm0 11.4h6.8v6.8h-6.8zm0 11.4h6.8v6.8h-6.8zm0 11.4h6.8v6.8h-6.8zm0 11.4h6.8v6.8h-6.8zm0 11.4h6.8v6.8h-6.8zm0 11.4h6.8v6.8h-6.8zm0 11.4h6.8v6.8h-6.8zm0 11.4h6.8v6.8h-6.8zm0 11.4h6.8v6.8h-6.8zm0 11.4h6.8v6.8h-6.8zm-10.8-136.8h6.8v6.8h-6.8zm0 11.4h6.8v6.8h-6.8zm0 11.4h6.8v6.8h-6.8zm0 11.4h6.8v6.8h-6.8zm0 11.4h6.8v6.8h-6.8zm0 11.4h6.8v6.8h-6.8zm0 11.4h6.8v6.8h-6.8zm0 11.4h6.8v6.8h-6.8zm0 11.4h6.8v6.8h-6.8zm0 11.4h6.8v6.8h-6.8zm0 11.4h6.8v6.8h-6.8zm0 11.4h6.8v6.8h-6.8zm0 11.4h6.8v6.8h-6.8zm0 11.4h6.8v6.8h-6.8zm-60-144.8h6.8v6.8h-6.8zm0 11.4h6.8v6.8h-6.8zm0 11.4h6.8v6.8h-6.8zm0 11.4h6.8v6.8h-6.8zm0 11.4h6.8v6.8h-6.8zm0 11.4h6.8v6.8h-6.8zm0 11.4h6.8v6.8h-6.8zm0 11.4h6.8v6.8h-6.8zm0 11.4h6.8v6.8h-6.8zm0 11.4h6.8v6.8h-6.8zm0 34.2h6.8v6.8h-6.8zm-10.8-136.8h6.8v6.8h-6.8zm0 11.4h6.8v6.8h-6.8zm0 11.4h6.8v6.8h-6.8zm0 11.4h6.8v6.8h-6.8zm0 11.4h6.8v6.8h-6.8zm0 11.4h6.8v6.8h-6.8zm0 11.4h6.8v6.8h-6.8zm0 11.4h6.8v6.8h-6.8zm0 11.4h6.8v6.8h-6.8zm0 34.2h6.8v6.8h-6.8zm0 11.4h6.8v6.8h-6.8zm-10.8-136.8h6.8v6.8h-6.8zm0 11.4h6.8v6.8h-6.8zm0 11.4h6.8v6.8h-6.8zm0 11.4h6.8v6.8h-6.8zm0 11.4h6.8v6.8h-6.8zm0 11.4h6.8v6.8h-6.8zm0 11.4h6.8v6.8h-6.8zm0 11.4h6.8v6.8h-6.8zm0 34.2h6.8v6.8h-6.8zm0 11.4h6.8v6.8h-6.8zm0 11.4h6.8v6.8h-6.8zm-100.4-310h6.8v6.8h-6.8zm0 11.4h6.8v6.8h-6.8zm0 11.4h6.8v6.8h-6.8zm0 11.4h6.8v6.8h-6.8zm0 11.4h6.8v6.8h-6.8zm0 11.4h6.8v6.8h-6.8zm0 11.4h6.8v6.8h-6.8zm0 11.4h6.8v6.8h-6.8zm0 11.4h6.8v6.8h-6.8zm0 11.4h6.8v6.8h-6.8zm0 11.4h6.8v6.8h-6.8zm0 11.4h6.8v6.8h-6.8zm0 11.4h6.8v6.8h-6.8zm0 11.4h6.8v6.8h-6.8zm0 11.4h6.8v6.8h-6.8zm0 11.4h6.8v6.8h-6.8zm0 11.4h6.8v6.8h-6.8zm0 22.8h6.8v6.8h-6.8zm0 11.4h6.8v6.8h-6.8zm0 11.4h6.8v6.8h-6.8zm0 11.4h6.8v6.8h-6.8zm0 11.4h6.8v6.8h-6.8zm-10.8-250.8h6.8v6.8h-6.8zm0 11.4h6.8v6.8h-6.8zm0 11.4h6.8v6.8h-6.8zm0 11.4h6.8v6.8h-6.8zm0 11.4h6.8v6.8h-6.8zm0 11.4h6.8v6.8h-6.8zm0 11.4h6.8v6.8h-6.8zm0 11.4h6.8v6.8h-6.8zm0 11.4h6.8v6.8h-6.8zm0 11.4h6.8v6.8h-6.8zm0 11.4h6.8v6.8h-6.8zm0 11.4h6.8v6.8h-6.8zm0 11.4h6.8v6.8h-6.8zm0 11.4h6.8v6.8h-6.8zm0 11.4h6.8v6.8h-6.8zm0 11.4h6.8v6.8h-6.8zm0 68.4h6.8v6.8h-6.8zm0 11.4h6.8v6.8h-6.8zm-10.8-250.8h6.8v6.8h-6.8zm0 11.4h6.8v6.8h-6.8zm0 11.4h6.8v6.8h-6.8zm0 11.4h6.8v6.8h-6.8zm0 11.4h6.8v6.8h-6.8zm0 11.4h6.8v6.8h-6.8zm0 11.4h6.8v6.8h-6.8zm0 11.4h6.8v6.8h-6.8zm0 11.4h6.8v6.8h-6.8zm0 11.4h6.8v6.8h-6.8zm0 11.4h6.8v6.8h-6.8zm0 11.4h6.8v6.8h-6.8zm0 11.4h6.8v6.8h-6.8zm0 11.4h6.8v6.8h-6.8zm0 11.4h6.8v6.8h-6.8zm0 11.4h6.8v6.8h-6.8zm0 22.8h6.8v6.8h-6.8zm0 11.4h6.8v6.8h-6.8zm0 11.4h6.8v6.8h-6.8zm0 11.4h6.8v6.8h-6.8zm0 22.8h6.8v6.8h-6.8zM788.6 458h6.8v6.8h-6.8zm0 11.4h6.8v6.8h-6.8zm0 11.4h6.8v6.8h-6.8zm0 11.4h6.8v6.8h-6.8zm0 11.4h6.8v6.8h-6.8zm0 11.4h6.8v6.8h-6.8zm0 11.4h6.8v6.8h-6.8zm0 22.8h6.8v6.8h-6.8zm0 11.4h6.8v6.8h-6.8zm0 11.4h6.8v6.8h-6.8zm0 11.4h6.8v6.8h-6.8zm0 11.4h6.8v6.8h-6.8zm0 11.4h6.8v6.8h-6.8zm0 11.4h6.8v6.8h-6.8zm0 11.4h6.8v6.8h-6.8zm-10.8-171h6.8v6.8h-6.8zm0 11.4h6.8v6.8h-6.8zm0 11.4h6.8v6.8h-6.8zm0 11.4h6.8v6.8h-6.8zm0 11.4h6.8v6.8h-6.8zm0 11.4h6.8v6.8h-6.8zm0 34.2h6.8v6.8h-6.8zm0 11.4h6.8v6.8h-6.8zm0 11.4h6.8v6.8h-6.8zm0 11.4h6.8v6.8h-6.8zm0 11.4h6.8v6.8h-6.8zm0 11.4h6.8v6.8h-6.8zm0 11.4h6.8v6.8h-6.8zm0 11.4h6.8v6.8h-6.8zM767 458h6.8v6.8H767zm0 11.4h6.8v6.8H767zm0 11.4h6.8v6.8H767zm0 11.4h6.8v6.8H767zm0 11.4h6.8v6.8H767zm0 11.4h6.8v6.8H767zm0 22.8h6.8v6.8H767zm0 11.4h6.8v6.8H767zm0 11.4h6.8v6.8H767zm0 11.4h6.8v6.8H767zm0 11.4h6.8v6.8H767zm0 11.4h6.8v6.8H767zm0 11.4h6.8v6.8H767zm0 11.4h6.8v6.8H767zm0 11.4h6.8v6.8H767zM539.3 394.2h6.8v6.8h-6.8zm0 11.4h6.8v6.8h-6.8zm0 11.4h6.8v6.8h-6.8zm0 11.4h6.8v6.8h-6.8zm0 11.4h6.8v6.8h-6.8zm0 11.4h6.8v6.8h-6.8zm0 11.4h6.8v6.8h-6.8zm0 11.4h6.8v6.8h-6.8zm0 11.4h6.8v6.8h-6.8zm0 11.4h6.8v6.8h-6.8zm0 11.4h6.8v6.8h-6.8zm0 11.4h6.8v6.8h-6.8zm0 11.4h6.8v6.8h-6.8zm0 22.8h6.8v6.8h-6.8zm0 11.4h6.8v6.8h-6.8zm0 11.4h6.8v6.8h-6.8zm0 11.4h6.8v6.8h-6.8zm0 22.8h6.8v6.8h-6.8zm0 11.4h6.8v6.8h-6.8zm0 11.4h6.8v6.8h-6.8zm-10.8-239.4h6.8v6.8h-6.8zm0 11.4h6.8v6.8h-6.8zm0 11.4h6.8v6.8h-6.8zm0 11.4h6.8v6.8h-6.8zm0 11.4h6.8v6.8h-6.8zm0 11.4h6.8v6.8h-6.8zm0 11.4h6.8v6.8h-6.8zm0 11.4h6.8v6.8h-6.8zm0 11.4h6.8v6.8h-6.8zm0 11.4h6.8v6.8h-6.8zm0 11.4h6.8v6.8h-6.8zm0 11.4h6.8v6.8h-6.8zm0 11.4h6.8v6.8h-6.8zm0 34.2h6.8v6.8h-6.8zm0 11.4h6.8v6.8h-6.8zm0 22.8h6.8v6.8h-6.8zm0 11.4h6.8v6.8h-6.8zm0 11.4h6.8v6.8h-6.8zm0 11.4h6.8v6.8h-6.8zm-10.8-239.4h6.8v6.8h-6.8zm0 11.4h6.8v6.8h-6.8zm0 11.4h6.8v6.8h-6.8zm0 11.4h6.8v6.8h-6.8zm0 11.4h6.8v6.8h-6.8zm0 11.4h6.8v6.8h-6.8zm0 11.4h6.8v6.8h-6.8zm0 11.4h6.8v6.8h-6.8zm0 11.4h6.8v6.8h-6.8zm0 11.4h6.8v6.8h-6.8zm0 11.4h6.8v6.8h-6.8zm0 11.4h6.8v6.8h-6.8zm0 11.4h6.8v6.8h-6.8zm0 11.4h6.8v6.8h-6.8zm0 22.8h6.8v6.8h-6.8zm0 22.8h6.8v6.8h-6.8zm0 11.4h6.8v6.8h-6.8zm0 11.4h6.8v6.8h-6.8zm0 11.4h6.8v6.8h-6.8zm0 11.4h6.8v6.8h-6.8zm65.6-174.4h6.8v6.8h-6.8zm0 11.4h6.8v6.8h-6.8zm0 11.4h6.8v6.8h-6.8zm0 11.4h6.8v6.8h-6.8zm0 11.4h6.8v6.8h-6.8zm0 11.4h6.8v6.8h-6.8zm0 34.2h6.8v6.8h-6.8zm0 11.4h6.8v6.8h-6.8zm0 11.4h6.8v6.8h-6.8zm0 11.4h6.8v6.8h-6.8zm0 11.4h6.8v6.8h-6.8zm0 11.4h6.8v6.8h-6.8zm0 11.4h6.8v6.8h-6.8zm-10.8-159.6h6.8v6.8h-6.8zm0 11.4h6.8v6.8h-6.8zm0 11.4h6.8v6.8h-6.8zm0 11.4h6.8v6.8h-6.8zm0 11.4h6.8v6.8h-6.8zm0 11.4h6.8v6.8h-6.8zm0 34.2h6.8v6.8h-6.8zm0 11.4h6.8v6.8h-6.8zm0 11.4h6.8v6.8h-6.8zm0 11.4h6.8v6.8h-6.8zm0 11.4h6.8v6.8h-6.8zm0 11.4h6.8v6.8h-6.8zm0 22.8h6.8v6.8h-6.8zM213.7 409h6.8v6.8h-6.8zm0 11.4h6.8v6.8h-6.8zm0 11.4h6.8v6.8h-6.8zm0 11.4h6.8v6.8h-6.8zm0 11.4h6.8v6.8h-6.8zm0 11.4h6.8v6.8h-6.8zm0 11.4h6.8v6.8h-6.8zm0 11.4h6.8v6.8h-6.8zm0 11.4h6.8v6.8h-6.8zm0 11.4h6.8v6.8h-6.8zm0 11.4h6.8v6.8h-6.8zm0 22.8h6.8v6.8h-6.8zm0 11.4h6.8v6.8h-6.8zm0 11.4h6.8v6.8h-6.8zm0 11.4h6.8v6.8h-6.8zm0 11.4h6.8v6.8h-6.8zm0 11.4h6.8v6.8h-6.8zm0 11.4h6.8v6.8h-6.8zm0 11.4h6.8v6.8h-6.8zM202.9 409h6.8v6.8h-6.8zm0 11.4h6.8v6.8h-6.8zm0 11.4h6.8v6.8h-6.8zm0 11.4h6.8v6.8h-6.8zm0 11.4h6.8v6.8h-6.8zm0 11.4h6.8v6.8h-6.8zm0 11.4h6.8v6.8h-6.8zm0 11.4h6.8v6.8h-6.8zm0 11.4h6.8v6.8h-6.8zm0 11.4h6.8v6.8h-6.8zm0 11.4h6.8v6.8h-6.8zm0 11.4h6.8v6.8h-6.8zm0 11.4h6.8v6.8h-6.8zm0 11.4h6.8v6.8h-6.8zm0 11.4h6.8v6.8h-6.8zm0 11.4h6.8v6.8h-6.8zm0 11.4h6.8v6.8h-6.8zm0 11.4h6.8v6.8h-6.8zm0 11.4h6.8v6.8h-6.8zm0 11.4h6.8v6.8h-6.8zm64-172.2h6.8v6.8h-6.8zm0 11.4h6.8v6.8h-6.8zm0 11.4h6.8v6.8h-6.8zm0 11.4h6.8v6.8h-6.8zm0 11.4h6.8v6.8h-6.8zm0 11.4h6.8v6.8h-6.8zm0 11.4h6.8v6.8h-6.8zm0 11.4h6.8v6.8h-6.8zm0 11.4h6.8v6.8h-6.8zm0 11.4h6.8v6.8h-6.8zm-10.8-102.6h6.8v6.8h-6.8zm0 11.4h6.8v6.8h-6.8zm0 11.4h6.8v6.8h-6.8zm0 11.4h6.8v6.8h-6.8zm0 11.4h6.8v6.8h-6.8zm0 11.4h6.8v6.8h-6.8zm0 11.4h6.8v6.8h-6.8zm0 11.4h6.8v6.8h-6.8zm0 11.4h6.8v6.8h-6.8z" style="fill:#f0f0f0" class="st1"/><path d="M279.4 168.2c0-11.7-9.5-21.1-21.1-21.1-2.1 0-4.1.3-6.1.9.3-2.1.5-4.3.5-6.5 0-24.7-20-44.8-44.8-44.8-2.8 0-5.6.3-8.2.8-6.9-11.3-19.3-18.8-33.4-18.8-21.4 0-38.8 17.2-39.1 38.6h-.7c-19.9 0-36.1 16.1-36.1 36.1s16.1 36.1 36.1 36.1H259c11.3-.5 20.4-9.8 20.4-21.3zm706-35.1c0-7.5-6-13.5-13.5-13.5-1.3 0-2.6.2-3.9.6.2-1.4.3-2.7.3-4.1 0-15.8-12.8-28.6-28.6-28.6-1.8 0-3.6.2-5.3.5-4.4-7.2-12.3-12-21.3-12-13.7 0-24.8 11-25 24.6h-.4c-12.7 0-23 10.3-23 23s10.3 23 23 23h84.6c7.2-.2 13.1-6.1 13.1-13.5zm-394.5 71.3c0-4.6-3.7-8.3-8.3-8.3-.8 0-1.6.1-2.4.3.1-.8.2-1.7.2-2.5 0-9.7-7.8-17.5-17.5-17.5-1.1 0-2.2.1-3.2.3-2.7-4.4-7.5-7.4-13.1-7.4-8.4 0-15.2 6.7-15.3 15.1h-.3c-7.8 0-14.1 6.3-14.1 14.1s6.3 14.1 14.1 14.1h51.8c4.5-.1 8.1-3.7 8.1-8.2zM276.1 85.9c0-4.6 3.7-8.3 8.3-8.3.8 0 1.6.1 2.4.3-.1-.8-.2-1.7-.2-2.5 0-9.7 7.8-17.5 17.5-17.5 1.1 0 2.2.1 3.2.3 2.7-4.4 7.5-7.4 13.1-7.4 8.4 0 15.2 6.7 15.3 15.1h.3c7.8 0 14.1 6.3 14.1 14.1s-6.3 14.1-14.1 14.1h-51.8c-4.6 0-8.1-3.7-8.1-8.2z" style="opacity:.1;fill:#f0f0f0"/><g class="st1"><path d="M995.9 709.4v32.9H70.2v-32.9c0-5.7 4-10.3 9.7-10.3h906.3c5.7-.1 9.7 4.5 9.7 10.3z" style="fill:#ececec"/><path d="M123 699h57.6v43.2H123zm110.3 0h55.2v43.2h-55.2zm107.9 0h57.6v43.2h-57.6zm110.3 0h55.2v43.2h-55.2zm107.9 0h55.2v43.2h-55.2zm107.9 0h57.6v43.2h-57.6zm110.4 0h55.2v43.2h-55.2zm107.9 0h57.6v43.2h-57.6z" style="fill:#f5f5f5"/></g></svg>