<svg xmlns="http://www.w3.org/2000/svg" version="1.1" id="a8897f4c-2937-4134-8b3a-fee1040aeff6" x="0" y="0" viewBox="0 0 1066.1 824.2" style="enable-background:new 0 0 1066.1 824.2" xml:space="preserve"><style>.st1{fill:#e7e7e7}</style><g style="opacity:.1"><path className="st1" d="M405.8 171.9c0-5.1-2-9.8-5.4-13.3l165-42.5-167.3 10.1-28.9 26.4h-15.5c-1.9-.7-3.9-1.1-6-1.1-5.4 0-10.3 2.6-13.7 6.8L190.3 11.7l92.4 139.9 47.1 15c-.5 1.8-.7 3.7-.7 5.7 0 9.3 5.5 17.2 13.1 19.8l-54.7 196.8 74.9-150-10.2-46.5c1-.3 2-.6 2.9-1.1h13.8v541.6h37.4l-15.9-542c8.8-1.8 15.4-9.7 15.4-19z"/><path className="st1" d="m735.1 239.6-15.4-7.8-.1-2.3c7.4-1.5 13-8.1 13-16 0-9-7.3-16.3-16.3-16.3h-25l71.3-155.5-82.2 114.7 2.3 39.9c-8.2.6-14.7 8.2-14.7 17.4 0 .5 0 1 .1 1.5l-172.8 16.3 140.4 13.8 34.5-22.7c2.7 5.1 7.7 8.6 13.5 8.6 2.2 0 4.3-.5 6.2-1.4h5.2l6.4 9v494.1H733l-12.5-467.3 72.8 102.5-58.2-128.5zm-494.1-51c-6.3-12.7-18.6-21.8-31.2-21.8-7.9 0-14.5 3.6-18.8 9.4-4.1-3.3-8.9-5.3-13.8-5.3-8.6 0-14.9 6.1-16.4 14.8-4-1.9-8.3-3.1-12.7-3.3-8.6-.4-15.4 3.1-18.8 8.9-1.6-1-3.4-1.6-5.3-1.6-4.9-.2-8.1 3.3-7.2 7.9.1.3.1.6.2.8h139.1c.4-4.6-9-9.6-15.1-9.8zm726-42.9c-6.3-12.7-18.6-21.8-31.2-21.8-7.9 0-14.5 3.6-18.8 9.4-4.1-3.3-8.9-5.3-13.8-5.3-8.6 0-14.9 6.1-16.4 14.8-4-1.9-8.3-3.1-12.7-3.3-8.6-.4-15.4 3.1-18.8 8.9-1.6-1-3.4-1.6-5.3-1.6-4.9-.2-8.1 3.3-7.2 7.9.1.3.1.6.2.8h139.1c.4-4.5-9-9.6-15.1-9.8z"/><path className="st1" d="M625.7 324.1c-.7-.1-1.4-.1-2-.1-6.2-7.5-13.9-12.3-21.2-12.3-5.3 0-9.4 2.5-12.2 6.7-11.3-14.6-25.8-24.1-39.5-24.1-11 0-19.3 6.2-24 16.2-6.4-5.7-13.5-9.2-20.3-9.2-12 0-19.4 10.6-19.5 25.6-5.9-3.3-12.2-5.4-18.3-5.7-12-.7-20.6 5.4-24.2 15.3-2.5-1.7-5.1-2.7-7.7-2.9-6.6-.4-10.2 5.1-8.6 12.4h227.5c-4.8-11-17.8-20.7-30-21.9zm78.8-292.7c-2.3-5.6-8.8-10.4-15-11-.3 0-.7-.1-1-.1-3.1-3.8-7-6.2-10.6-6.2-2.6 0-4.7 1.3-6.1 3.4-5.6-7.3-12.9-12-19.7-12-5.5 0-9.7 3.1-12 8.1-3.2-2.9-6.8-4.6-10.2-4.6-6 0-9.7 5.3-9.8 12.8-3-1.7-6.1-2.7-9.2-2.9-6-.3-10.3 2.7-12.1 7.7-1.2-.8-2.6-1.4-3.9-1.4-3.3-.2-5.1 2.6-4.3 6.2h113.9z"/></g></svg>