<svg xmlns="http://www.w3.org/2000/svg" version="1.1" id="a8897f4c-2937-4134-8b3a-fee1040aeff6" x="0" y="0" viewBox="0 0 1066.1 824.2" style="enable-background:new 0 0 1066.1 824.2" xml:space="preserve"><style>.st0{fill:#e7e7e7}.st1{fill:#f5f5f5}</style><path class="st0" d="M406.3 732.9h-37.4v-561h20.9z"/><path class="st0" d="M386.5 191.3h-35.1c-10.7 0-19.4-8.7-19.4-19.4s8.7-19.4 19.4-19.4h35.1c10.7 0 19.4 8.7 19.4 19.4-.1 10.7-8.8 19.4-19.4 19.4z"/><ellipse class="st1" cx="347.8" cy="172.2" rx="18.6" ry="20.8"/><path class="st1" d="M347.8 172.2 190.3 11.7l92.4 139.9zm0 0-60.3 216.7 74.9-150zm0 0 217.7-56.1-167.3 10.1z"/><path class="st0" d="M733.1 732.9h-31.5V213.5h17.6z"/><path class="st0" d="M716.4 229.8h-29.5c-9 0-16.3-7.3-16.3-16.3s7.3-16.3 16.3-16.3h29.5c9 0 16.3 7.3 16.3 16.3s-7.4 16.3-16.3 16.3z"/><ellipse class="st1" cx="683.8" cy="213.8" rx="15.7" ry="17.5"/><path class="st1" d="m683.8 213.8 78.9-172.1-82.2 114.7zm0 0-188.4 17.7 140.4 13.8zm0 0 109.6 154.3-58.3-128.5z"/><path class="st0" d="M241 188.6c-6.3-12.7-18.6-21.8-31.2-21.8-7.9 0-14.5 3.6-18.8 9.4-4.1-3.3-8.9-5.3-13.8-5.3-8.6 0-14.9 6.1-16.4 14.8-4-1.9-8.3-3.1-12.7-3.3-8.6-.4-15.4 3.1-18.8 8.9-1.6-1-3.4-1.6-5.3-1.6-4.9-.2-8.1 3.3-7.2 7.9.1.3.1.6.2.8h139.1c.4-4.6-9-9.6-15.1-9.8z"/><path class="st1" d="M967 145.7c-6.3-12.7-18.6-21.8-31.2-21.8-7.9 0-14.5 3.6-18.8 9.4-4.1-3.3-8.9-5.3-13.8-5.3-8.6 0-14.9 6.1-16.4 14.8-4-1.9-8.3-3.1-12.7-3.3-8.6-.4-15.4 3.1-18.8 8.9-1.6-1-3.4-1.6-5.3-1.6-4.9-.2-8.1 3.3-7.2 7.9.1.3.1.6.2.8h139.1c.4-4.5-9-9.6-15.1-9.8zM625.7 324.1c-.7-.1-1.4-.1-2-.1-6.2-7.5-13.9-12.3-21.2-12.3-5.3 0-9.4 2.5-12.2 6.7-11.3-14.6-25.8-24.1-39.5-24.1-11 0-19.3 6.2-24 16.2-6.4-5.7-13.5-9.2-20.3-9.2-12 0-19.4 10.6-19.5 25.6-5.9-3.3-12.2-5.4-18.3-5.7-12-.7-20.6 5.4-24.2 15.3-2.5-1.7-5.1-2.7-7.7-2.9-6.6-.4-10.2 5.1-8.6 12.4h227.5c-4.8-11-17.8-20.7-30-21.9z"/><path class="st0" d="M689.5 20.4c-.3 0-.7-.1-1-.1-3.1-3.8-7-6.2-10.6-6.2-2.6 0-4.7 1.3-6.1 3.4-5.6-7.3-12.9-12-19.7-12-5.5 0-9.7 3.1-12 8.1-3.2-2.9-6.8-4.6-10.2-4.6-6 0-9.7 5.3-9.8 12.8-3-1.7-6.1-2.7-9.2-2.9-6-.3-10.3 2.7-12.1 7.7-1.2-.8-2.6-1.4-3.9-1.4-3.3-.2-5.1 2.6-4.3 6.2h113.8c-2.3-5.5-8.8-10.4-14.9-11z"/></svg>