<svg version="1.1" id="a8897f4c-2937-4134-8b3a-fee1040aeff6" xmlns="http://www.w3.org/2000/svg" x="0" y="0" viewBox="0 0 1066.1 824.2" style="enable-background:new 0 0 1066.1 824.2" xml:space="preserve"><style>.st0{fill:#007cff}.st1{opacity:.2}.st2{opacity:.5;fill:#fff}.st3,.st4{opacity:.3;fill:#007cff}.st4{opacity:.7}.st6{fill:#1a2e35}.st7{opacity:.4}.st9{opacity:.5;fill:#007cff}</style><path class="st0" d="M540.7 622.7H486c-23.4 0-42.5 30.8-42.5 68.7 0 37.9 19 68.7 42.5 68.7h54.7c23.4 0 42.5-30.8 42.5-68.7-.1-38-19.1-68.7-42.5-68.7z"/><path class="st1" d="M540.7 622.7H486c-23.4 0-42.5 30.8-42.5 68.7 0 37.9 19 68.7 42.5 68.7h54.7c23.4 0 42.5-30.8 42.5-68.7-.1-38-19.1-68.7-42.5-68.7z"/><path class="st0" d="M293.9 622.7h-54.7c-23.4 0-42.5 30.8-42.5 68.7 0 37.9 19 68.7 42.5 68.7h54.7c23.4 0 42.5-30.8 42.5-68.7-.1-38-19.1-68.7-42.5-68.7z"/><path class="st1" d="M293.9 622.7h-54.7c-23.4 0-42.5 30.8-42.5 68.7 0 37.9 19 68.7 42.5 68.7h54.7c23.4 0 42.5-30.8 42.5-68.7-.1-38-19.1-68.7-42.5-68.7z"/><path class="st0" d="m815.7 570.5 12.5 10.7c5.9 5.1 8.5 13 6.7 20.6l-2.8 12-16.4-43.3z"/><path class="st0" d="M838.3 640.2c-2.2-23.4-8.3-46.3-18.1-67.7l-4.2-9.2H712.5L766 717.7c18.9-4.7 36.4-13.8 51-26.6l1.2-1.1c14.4-12.4 21.8-30.9 20.1-49.8z"/><path class="st2" d="M838.3 640.2c-2.2-23.4-8.3-46.3-18.1-67.7l-4.2-9.2H712.5L766 717.7c18.9-4.7 36.4-13.8 51-26.6l1.2-1.1c14.4-12.4 21.8-30.9 20.1-49.8z"/><path class="st0" d="M700.9 760.1c-23.4 0-42.5-30.8-42.5-68.7 0-37.9 19-68.7 42.5-68.7h54.5v137.4h-54.5z"/><ellipse class="st0" cx="755.6" cy="691.4" rx="42.5" ry="68.7"/><ellipse class="st1" cx="755.6" cy="691.4" rx="29.8" ry="43.4"/><path class="st0" d="M391 717.7 288.9 553.9s80.8-81.7 257.2-81.7c152.7 0 244.2 50.4 269.8 91.1l-60.5 59.4c-58.6 0-58.3 62.2-66.3 88.3-1.2 4.1-4.9 6.8-9.2 6.8H391"/><path class="st2" d="M391 717.7 288.9 553.9s80.8-81.7 257.2-81.7c152.7 0 244.2 50.4 269.8 91.1l-60.5 59.4c-58.6 0-58.3 62.2-66.3 88.3-1.2 4.1-4.9 6.8-9.2 6.8H391"/><path class="st0" d="M454.1 760.1c-23.4 0-42.5-30.8-42.5-68.7 0-37.9 19-68.7 42.5-68.7h54.5v137.4h-54.5z"/><ellipse class="st0" cx="508.8" cy="691.4" rx="42.5" ry="68.7"/><ellipse class="st1" cx="508.8" cy="691.4" rx="29.8" ry="43.4"/><path class="st0" d="M434 704.2c5.2-30.7 35.8-81.5 74.5-81.5l37.5-68.8H288.8c-16.4 0-93.1 27.7-121 55.6-19.5 19.5-21.6 39.2-23.9 89.3-.5 10.2 8.9 19 20.2 19 94.9 0 209.7.4 251.5.5 9.4 0 17-5.9 18.4-14.1z"/><path class="st2" d="M434 704.2c5.2-30.7 35.8-81.5 74.5-81.5l37.5-68.8H288.8c-16.4 0-93.1 27.7-121 55.6-19.5 19.5-21.6 39.2-23.9 89.3-.5 10.2 8.9 19 20.2 19 94.9 0 209.7.4 251.5.5 9.4 0 17-5.9 18.4-14.1z"/><path class="st3" d="M546.1 472.2c-175.4 0-255.4 80.4-257.2 81.6h177.4s76.3-65.9 126.8-80c-14.9-1-30.6-1.6-47-1.6z"/><path class="st4" d="M326.7 624.1c24.3-9.2 97.8-35.1 117.9-28.4 20 6.7-28.5 30.8-40.7 34-12.2 3.2-20.3-3.2-38.6 5.6s-68.1-.1-38.6-11.2z"/><path d="M628.2 718.7c-.2 0-.4-.1-.5-.2-.4-.3-.5-.9-.2-1.3.4-.5 36.3-54.7 36.3-163.3 0-.5.4-.9.9-.9s.9.4.9.9c0 109.3-36.3 163.8-36.7 164.4-.1.2-.4.4-.7.4zm-389.7-83.9h-.2l-48.9-11.2c-.5-.1-.8-.6-.7-1.1.1-.5.6-.8 1.1-.7l48.7 11.2 80.5-9.2c.5 0 1 .3 1 .8.1.5-.3 1-.8 1l-80.7 9.2c.1 0 .1 0 0 0zm516.9-11.2c-.2 0-.5-.1-.7-.3-.4-.4-.4-1 0-1.3 17.1-16.7 26.2-55.8 26.2-77.6 0-.5.4-.9.9-.9s.9.4.9.9c0 22.1-9.3 61.9-26.7 79-.2.1-.4.2-.6.2z" style="opacity:.2;fill:#007cff"/><path class="st0" d="M617.9 572.6h24.3c1.9 0 3.4-1.5 3.4-3.4s-1.5-3.4-3.4-3.4h-24.3c-1.9 0-3.4 1.5-3.4 3.4-.1 1.8 1.5 3.4 3.4 3.4zm106.7 0H749c1.9 0 3.4-1.5 3.4-3.4s-1.5-3.4-3.4-3.4h-24.3c-1.9 0-3.4 1.5-3.4 3.4-.1 1.8 1.4 3.4 3.3 3.4z"/><path class="st4" d="M187.9 625c-5-3.1-13.2-7.9-22.5-12.8-5.3 5.8-9.2 11.7-12 18.5 2.8.6 6 1.9 10 5 11.8 9 43.6.9 24.5-10.7z"/><path class="st3" d="M497.7 553.9h247.9c12.7 0 25.1-3.3 36.2-9.5 0 0-40.1-36.5-120.9-52.2-33.2-6.5-64.7-9-74.3-8.3-23.1 12.2-58.5 37.7-88.9 70z"/><path class="st0" d="M349 706.4H172.7c-4.2 0-6.5-5-3.7-8.2l4.6-5.1c.9-1.1 2.3-1.7 3.7-1.7h167.2c1.4 0 2.7.6 3.7 1.7l4.6 5.1c2.7 3.2.4 8.2-3.8 8.2zm462.4-82-11.1 2.1v-30.1l11.1 2.1c1.5.3 2.6 2.3 2.6 4.7v16.4c.1 2.4-1.1 4.5-2.6 4.8z"/><path class="st6" d="M737.1 60.3h116.6v701.1H737.1zm10-8.7h138.6v8.6H747.1z"/><path class="st7" d="M853.8 51.6h32v8.6h-32z"/><path style="fill:#fff" d="M814.7 122.4H795l17.2-27.2h-21.6l-14.4 38.4h17.9l-10.9 34.7z"/><circle transform="rotate(-45.001 795.446 503.29)" class="st9" cx="795.4" cy="503.3" r="24.5"/><path class="st0" d="M690.8 769.5c-2.4 0-4.4-2-4.4-4.4 0-2.4 2-4.4 4.4-4.4 14.1 0 23.9-3.5 29.8-10.7 13.6-16.5 6.8-52-.3-89.7-4.8-25-9.7-50.8-9.7-74.8 0-55.9 30.1-86.7 84.9-86.7 2.4 0 4.4 2 4.4 4.4 0 2.4-2 4.4-4.4 4.4-34.7 0-76.1 13.5-76.1 77.9 0 23.2 4.9 48.6 9.6 73.2 7.6 39.7 14.8 77.2-1.5 96.9-7.8 9.4-19.8 13.9-36.7 13.9z"/><path class="st9" d="M751.7 282.6h87.5v176.9h-87.5z"/><path class="st9" d="M751.7 282.6v176.9L783 307.2z"/><path class="st0" d="m822.6 342.3 1.8-8.7h-23.9l-1.8 8.7h-9.2l-17 82.2h42.6l17-82.2z"/><path d="m820.4 371.4-8.7 42.3c-.6 3-3.2 5.1-6.3 5.1h-21.3c-2.5 0-4.3-2.3-3.8-4.7l8.7-42.3c.6-3 3.2-5.1 6.3-5.1h21.3c2.4.1 4.3 2.3 3.8 4.7z" style="opacity:.4;fill:#fff"/><path style="opacity:.4;fill:#1a2e35" d="M751.7 282.6h87.5v24.6H783z"/><path transform="rotate(-180 874.743 410.803)" class="st6" d="M853.8 60.3h42v701.1h-42z"/><path transform="rotate(-180 874.743 410.803)" class="st7" d="M853.8 60.3h42v701.1h-42z"/></svg>