<svg xmlns="http://www.w3.org/2000/svg" version="1.1" id="a8897f4c-2937-4134-8b3a-fee1040aeff6" x="0" y="0" viewBox="0 0 1066.1 824.2" style="enable-background:new 0 0 1066.1 824.2" xml:space="preserve"><style>.st0,.st2{opacity:.1;fill:#ececec}.st2{fill:#f0f0f0}.st3{fill:#007cff}.st5{fill:#fff}.st7{opacity:.3}.st7,.st8,.st9{fill:#fff;enable-background:new}.st8{opacity:.7}.st9{opacity:.8}.st10{fill:#e4897b}.st11{opacity:.3;enable-background:new}.st12{fill:#1a2e35}.st13{opacity:.2;enable-background:new}.st14{fill:#de5753}.st15,.st16{opacity:.5;fill:#fff;enable-background:new}.st16{opacity:.2}.st17{fill:#ebb376}.st20{fill:#eec1bb}.st22{fill:#9f5b53}</style><path class="st0" d="M8.3 716.8h1049.5v.5H8.3zm874.8 33.8h69.5v.5h-69.5z"/><path style="fill:#ececec" d="M685.3 756.3h18.2v.5h-18.2z"/><path class="st0" d="M840.7 731.1H881v.5h-40.3zm-722.3 3.5h90.7v.5h-90.7zm109.4 0h13.3v.5h-13.3zm56.5 8.9h196.6v.5H284.3z"/><path class="st2" d="m835.2 221.2-228.5-77.1-.2-.2L485.8 20.2 389 108.6l-1.4-1.6 98.3-89.8 121.9 125 226.6 76.5 92.9-127.9 1.7 1.3zM125 411.1c0 6.2-5.1 11.3-11.3 11.3-6.2 0-11.3-5.1-11.3-11.3 0-6.2 5.1-11.3 11.3-11.3 6.3.1 11.3 5.1 11.3 11.3z"/><path class="st2" d="M497.2 18.7c0 6.2-5.1 11.3-11.3 11.3s-11.3-5.1-11.3-11.3 5.1-11.3 11.3-11.3 11.3 5.1 11.3 11.3zm442.3 72.8c0 6.2-5.1 11.3-11.3 11.3s-11.3-5.1-11.3-11.3c0-6.2 5.1-11.3 11.3-11.3s11.3 5 11.3 11.3zm1 595.9c0 6.2-5.1 11.3-11.3 11.3s-11.3-5.1-11.3-11.3 5.1-11.3 11.3-11.3c6.2 0 11.3 5 11.3 11.3zM618.6 143.1c0 6.2-5.1 11.3-11.3 11.3s-11.3-5.1-11.3-11.3 5.1-11.3 11.3-11.3c6.2.1 11.3 5.1 11.3 11.3z"/><path class="st2" d="m410 687.7-.9-.2L125.9 634l.4-2 282.3 53.3 197.7-542.5 2 .7z"/><path transform="rotate(-48.479 187.045 236.633)" class="st2" d="M186 172.1h2.1v129.1H186z"/><path class="st2" d="m928.6 688.3-140-86.8 3.1-.9 147.1-141.5-105-238.7 1.9-.8 105.6 240-.5.5-147.5 141.8 136.4 84.6z"/><path class="st2" d="m127 633.6-1.8-1.2 84.6-130.7-97.5-90.5.7-.8 122.2-132.3.7.5 556.8 322.1-1 1.8-556.1-321.7-120.4 130.3 97.3 90.3z"/><path class="st3" d="M514.2 542c5.6.5 11.2.7 16.8.6 47.4-.7 90.9-21 121.6-53.8C678.1 461.7 695 426 698.3 386c.1-1 .2-2.1.2-3.1 1.4-21.4-1.3-42.2-7.3-61.5-18.4-59.2-68.3-105.4-131.6-117.2-5.7-1-11.4-1.8-17.3-2.3-14.2-1.2-28.1-.6-41.5 1.6-39.8 6.4-75.4 26.8-101.1 56.2-23.1 26.5-38.3 60.4-41.5 98.1-1.7 20.2.3 39.9 5.3 58.5 18.1 67.6 77 119.6 150.7 125.7z"/><path class="st5" d="M514.2 542c5.6.5 11.2.7 16.8.6 47.4-.7 90.9-21 121.6-53.8C678.1 461.7 695 426 698.3 386c.1-1 .2-2.1.2-3.1 1.4-21.4-1.3-42.2-7.3-61.5-18.4-59.2-68.3-105.4-131.6-117.2-5.7-1-11.4-1.8-17.3-2.3-14.2-1.2-28.1-.6-41.5 1.6-39.8 6.4-75.4 26.8-101.1 56.2-23.1 26.5-38.3 60.4-41.5 98.1-1.7 20.2.3 39.9 5.3 58.5 18.1 67.6 77 119.6 150.7 125.7z" style="opacity:.7"/><path class="st3" d="M400.4 413.6c-.6 3.2-4.6 4.3-7.8 4.7-4.9.6-9.8 1.2-14.6 1.8-2.3-6.1-9.5-6.1-14.5-3.8 18.2 67.5 77.1 119.6 150.7 125.6 5.6.5 11.2.7 16.8.6.1-.1.2-.3.3-.4 2.5-4.5-1.1-8.4-3.1-12.1-.4-.8-4.6-11.4-3.2-11.4-4.5.1-9-.5-13.3-1.7-.3-.1-.7-.2-.9-.5-.4-.7.6-1.4 1.4-1.6 2-.5 4.1-.6 6.1-1.2s3.9-1.8 4.7-3.7.2-4.1.6-6.2c.5-2.5 2.6-4.4 4.8-5.5s4.7-1.4 7-1.9c-5.2-2.8-1.4-8.7-5.4-12.6-1.3-1.3-3.2-2.8-2.4-4.4.8-1.5 3.5-1.5 3.8-3.2.2-1.2-1-2.1-2.2-2.4s-2.5-.2-3.5-.8c-1.5-.8-2-3-1-4.4.9-1.2 2.5-1.6 3.8-2.3 1.3-.7 2.5-2.4 1.7-3.7-.2-.3-.5-.5-.8-.7-2.2-1.4-5-.2-7.2 1.2-2.1 1.4-4.3 3.2-6.9 3.2-.6-1-.2-2.4.8-2.9.4-.2.8-.3 1-.5.6-.6.1-1.6-.3-2.4-1.9-3.5-2.4-7.9-1.2-11.7l15.6.3c.1-1.2.3-1.9 1.5-2.2-3.5-4.2-7.3-8-10.4-12.6-.4-.5-.8-1.1-1.4-1.3-.6-.2-1.4 0-2-.1-2.3-.3-2.6-3.4-2.4-5.7-.3-.7-1.4-.4-1.8.2-.4.6-.5 1.5-1 2-.8.8-2.1.7-3.2.3-3.7-1.4-5.6-6.2-4-9.7.2-.4.4-.8.9-1.1.9-.5 2 .1 3 .3 4 .7 3.4-3.7 2.4-5.8-1.3-2.8-5.2-4.6-8-5.4-3.3-.8-25.3-5-21.6-12.2.3-.7 1-1.1 1.7-1.4 2.1-.9 4.5-.7 6.7-1.3 2.2-.6 4.3-2.9 3.4-5-.4-.8-1.2-1.4-1.6-2.2-1.2-2.2.7-5.1-.2-7.5-.4-1.1-1.3-1.9-1.9-2.9s-.7-2.5.3-3.2c1.1-.7 2.7.3 3.9-.2 1.3-.6 1.2-2.6 0-3.4-1.1-.8-2.7-.5-3.9.3-.6.4-1.2.9-1.9 1-1.3.2-2.2-1.1-2.9-2.2-1-1.8-2.1-3.5-3.1-5.3-1.2 0-2.1 1.1-2.5 2.2s-.5 2.3-.9 3.4c-2.2 5.3-10.2 4.6-9.2 11.8 2.2-.3 4.2 2.2 3.5 4.2-.8 2.5-4.7 3.9-4.1 6.6.2.9.9 1.7 1.1 2.6.4 2.5-3.5 3.5-5.2 4.1-5.6 1.9-6-1.8-10.8-2-2.2-.1-4.2 1.4-6.4 1.6-2 .2-4.1-.6-6.1-.5-5.6.3-2.8 7.9-2.4 11.2-3-2-7 .3-9.4 3-3.7 4.2-3.3 3.4-8.2 3.6-1.3 0-2.6.7-3.2 1.9-.9 2.1 1 4.3 1.1 6.5 0 1.1-.4 2.1-.3 3.2.3 2.8 3.6 4 5.6 6 1.8 1.7 2.6 4.4 2.2 6.8-1.4.1-2.9 0-4.3-.3-.8-1.6-1.7-3.3-2.5-4.9-.7-1.4-1.5-2.9-2.9-3.9-.7-.5-1.6-.9-2.2-1.6-1.1-1.5-.2-3.5 0-5.3.6-4.3-1.6-11.7-2.6-16-1.1-4.6-4.2-6.4-5.3-10.6-.2-.7-1.2-1-1.9-.6s-1 1.2-1.2 1.9c-.4 1.7-.3 3.6.5 5.3-1-2.1-6.4 3.5-6.7 4.6-.5 1.8.6 4.2.6 6.1-.1 4.5-1.2 7.1-5.9 3.7-1.8-1.3-4.1-2.8-6-1.7.4 1.2-.4 2.6-1.6 3.2s-2.5.5-3.8.3c-.9-.2-1.8-.4-2.3-1.1-.3-.4-.5-.8-.8-1.1-1.2-.9-2.7.7-3.4 2.1m230.4-139.3c.9 1.5-.1 3.4-1.1 4.8-1.1 1.4-2.3 3-1.9 4.7 2 .2 4.1.4 6.1.6.4 0 .8.1 1 .4s.2.7.2 1.1c-.2 1.3-.3 2.6-.5 3.9-1.3 1-2.5-2.1-4.1-1.8-.7.1-1.1.9-1.4 1.5-3.3 5.2-9 1.3-12.1-1.4-3.6-3.1-8.7-3.3-13.5-3.4-1.7 0-3.6 0-4.8 1.3-1.2 1.2-1.2 3-1.8 4.6-1 2.7-3.6 4.5-5.1 7-5.2 8.8 4.1 15.5 12 13.1 4.1-1.2 3.4-2 7.6-.7 1.7.5 3.9.1 4.9 2 1.1 2.1-.5 4.8-2.8 4.7-2.3 0-4.6.3-6.7-.8.8 2.8-.1 5.9-.3 8.9-2.7-.6-5.3 2.7-4.1 5.2 1.3 0 3.1.5 3 1.8 0 .4-.2.7-.5 1.1-.9 1.3-2.1 2.5-2.9 3.9-1.2 2.2-1.2 8.7-4.3 9.5-.5.1-1.1.1-1.7.3-1.1.4-1.8 1.7-1.5 2.9.3 1.2 1.3 2.1 2.5 2.4.8.2 1.6.2 2.4.5 4 1.4.5 5.4 1.5 7.4.5.9 7.2 5.2 8 5.4-2.4 1.6-4.5 4.2-4.5 7.2-.1 3.3 2.4 4.9 5.5 5.9 3.3 1 7.3 1.4 9.7 2.3 1.3.5 2.8 1 3.9.1 1.3-1.1 1-3.6 2.6-4.3.5-.2 1.1-.2 1.6-.3 3.2-.3 5.7-3.6 5.1-6.8.7-1 2.2-.9 3.4-.8 1.2 0 2.7-.4 2.9-1.6.2-1.4-1.6-2.1-2.9-2.2-1.4-.1-2.8 0-4.2.3-1 .2-2.1.6-3.1.1-.7-.3-1.2-1-1.6-1.7-1-1.6-1.9-3.5-1.7-5.4s1.7-3.8 3.6-3.8c.5 0 1 .2 1.5.1 1.3-.2 1.9-1.8 1.8-3.1-.1-1.3-.5-2.7-.2-3.9.4-1.3 2.1-2.2 3-1.2.7-1.7 1.2-4.2-.4-5-.5-.3-1.2-.2-1.7-.3-3.6-.3-8.6-5.3-4.5-8.1 2.7-1.8 7 2 9.3-1.5 1.1-1.7.4-4.1 1.6-5.8.7-.5 1.5.5 1.6 1.3.5 2.6-.5 5.4-2.5 7.2 2.1 1.2 5.3-.2 6.7 1.8 1.4 1.9-.7 5.2 1.2 6.7.5.4 1.2.5 1.9.6 3.3.5 9.4-.1 9.6 4.6 0 .6-.1 1.2.1 1.7.5 1.7 2.8 1.8 4.5 1.6.9-1.7-.3-3.7-1-5.4-.8-1.8-.7-4.4 1.1-4.9 1.3-.3 2.9.8 4 0 .5-.4.8-1.1 1.3-1.4 1.4-.7 2.5 1.4 4 1.8 2 .6 3.5-2 3.5-4.1s-.5-4.5.9-6.1c.4-.5 1-.9 1.5-1.3 1.5-1.4 1.8-3.7 2-5.7.3-3.3 13.3 5.2 14.1 5.4 6.2 1 10-5.1 14.3-8.5 2.2-1.8 4.8-3 7.4-4.2-17.7-57-65.4-101.7-123.5-115.5-2.6-.6-5.3-1.3-7.9-1.5.8 4 3.3 10.2.6 14-3.4 4.8-10.5.6-13.2 6.2-.1 1.4 2.3 1.2 3.4 2.1.6.5.8 1.4 1.1 2.1s1 1.5 1.8 1.2c.9 1.3-.5 3-1.7 4-1.4 1.3-2.7 2.7-3.2 4.5-1.1 3.7 1.4 7.5 3 11 1.3 2.9 2 6.1 2.8 9.3 0-1.5 2.1-2.1 3.5-1.4 1.3.7 2.1 2 3.2 3.1 1.8 1.8 4.2.7 6.2 2.2 2.5 1.9 4 5.2 7.1 5.7 3.7.6 6.4-3.3 8-6.7 4 2.1 6.6 7.3 11.1 7.7 1.8.1 3.5-.5 5.1-1.2 3.4-1.3 6.7-2.6 10-4 1.4-.6 2.9-1.1 4.3-.6 1.7.6 2.5 2.4 3.2 4 .7 1.8 1.4 3.5 2.2 5.3.3.7.6 1.5.4 2.3-.2.8-.9 1.4-1.6 1.8-3.8 2.5-8.5 3.5-13 2.7.4 6.1 1.6 12.1 3.6 17.9-3.4-.9-7.4.3-10.5-1.1m-30 121.2c-1.3 1.5-3.2 2.7-5.1 2.6-1.2 0-2.4-.5-3.6-.7-1.2-.2-2.6.1-3.3 1.1-.9 1.3 0 3 .8 4.4.7 1.1 1.4 2.3 2.7 2.6.9.3 1.9 0 2.8.2 1.8.3 3 2 4.2 3.4s3.2 2.7 4.8 1.7c1.1-.6 1.5-1.9 2.5-2.6 2.5-1.6 5.6 1.9 7.9.6 2.7-1.5 1.7-5.9.6-8.4s-3.4-4.4-5.4-6.3c-5.6-5.2-4.9-3.4-8.9 1.4zm85 70.8c26.8-26.6 42.5-65.4 45.6-102.6.1-1 .2-2.1.2-3.1-5.2-5.3-15.5-8.7-18.2.9-1.1-.1-1.3-.7-2.1-1.3-1.3-.9-3.1.3-3.8 1.7-2.3 4.6-2.7 10.5-9.1 9.2-7.7-1.5-2.5-4.8-5-9-.4-.6-1-1-1.5-1.5-1.8-1.9-1.6-4.8-1.2-7.4 1.5.8 3.5-.1 4-1.7.2-.6.2-1.3.6-1.8.9-1 2.7-.1 3.1 1.2.4 1.3.1 2.7.4 4 .3 1.3 1.7 2.6 2.9 1.9.5-.3.7-.8.9-1.4.7-2.3.2-4.8-1.3-6.7 1.3-.3 2.2-1.6 2.2-2.9s-1-2.5-2.3-2.8c-1.9-.4-4.5.7-5.3-1.1.3 1.5-.4 3.2-1.6 4.1-4.9 3.6-16.1.4-15 10.9.2 1.7.8 3.3.7 5 0 1.7-1 3.6-2.6 3.9 3 2.4 1.9 8 5.1 10.1 1.5 1 3.7.8 5-.5.2-.2.4-.5.7-.6.6-.2 1.1.4 1.7.5 1 .2 2-.9 3-.9 1.5-.1 2.3 1.7 2.6 3.2s.7 3.3 2.1 3.7c.5.1 1 .1 1.5.2 1 .3 1.6 1.3 1.6 2.4.1 1-.3 2-.7 3-.6.6-1.7.2-2.3-.4s-1-1.5-1.6-2.1c-.4-.3-9.3.4-9-.3-1.3 3.1-2 9.8-6.6 8.1-1.6-.6-3.3-1.7-5-1.2.8-2.2 1.6-4.3 2.3-6.5-.7-.6-1.7.2-2 1.1s-.3 1.9-1.1 2.4c-.5.4-1.2.4-1.8.4-2.1 0-4.1-.1-6.2-.1-2.2 0-4.8.1-6.2 1.8-1.6 2-.7 5 1 6.9.4.5.9 1 .8 1.6 0 .5-.5 1-.9 1.3-2.1 2-3.5 4.9-3 7.8s3.1 5.4 6 5.2c1.1-.1 2.5-.5 3.2.4.4.5.4 1.4 1 1.7.8.3 1.4-.6 1.9-1.2 1-1.1 2.8-1.4 4.1-.7.7.4 2.7 6.7 2.2 7.6-1.2 2.1-7.1 1.3-9.4 1.4-.9 0-1.9.1-2.4.8-.9 1-.2 2.7.8 3.6s2.3 1.7 2.8 3c.3.7.3 1.6.2 2.4-.1 1.6-.2 3.4-1.5 4.5-.6.5-1.3.8-1.9 1.2-1.3 1.1-1.4 3.2-1 4.8.5 1.7 1.4 3.2 1.7 4.9.7 3.6-1.3 7.6.1 11 .7 1.6 2.9 3 4.2 1.8 1.2-1 1.2-3.4 2.7-3.5 1.5-.2 3.3 3.5 4.5 4.3 1 .6 2.9-.4 4.7.9 1.7 1 2 3.3 3.5 4.5zM424.8 261.3c1.5-1.9 2.5-4.1 5.3-4.6 3.9-.7 5.3 1.5 3.6 5.2-.2.3-.3.7-.2 1 .3 1.1 1.9.5 2.9-.2 2.2-1.5 5-1.4 7.4-.4.6.2 1.6-10.3 1.1-11.6-1.9-4.3-10.9-2.3-9-6.9 3.3-.1 6.8.4 10.1.6l.6-4.8c-.1 1.2 6.1 1 6.8.6 2.7-1.4 2-6.4 6.9-5.6 6.2 1 6.6 13.3-.5 11.3-1.7 3.6-2.3 7.9-2.5 11.9h-3.9c-.6.9-.8 2.1-.5 3.1 3.1 2.2 7.5 2.2 10.6.1 2 1.6 4.9.1 7-1.4 2.9 4.7 11.3 4 13.4-1.1 2.2-5.1-3.2-11.6-8.6-10.4-.1-2.6-1-5.1-2.6-7.1 6.7.2 13.3-4.3 15.4-10.7 1.1-3.2 1.3-7.1 4-9.1 1.2-.9 2.7-1.3 4-2.1 2.8-1.9 3.6-5.6 4.1-8.9.3-2.2.5-4.5.6-6.7-39.8 6.4-75.4 26.8-101.1 56.2-.1 1.2-.2 2.4.3 3.5.9 2 3.2 2.8 5.3 3.3 8.2 2.2 13.4 1.7 19.1-4.7.1-.1.2-.3.4-.5z"/><path class="st5" d="M400.4 413.6c-.6 3.2-4.6 4.3-7.8 4.7-4.9.6-9.8 1.2-14.6 1.8-2.3-6.1-9.5-6.1-14.5-3.8 18.2 67.5 77.1 119.6 150.7 125.6 5.6.5 11.2.7 16.8.6.1-.1.2-.3.3-.4 2.5-4.5-1.1-8.4-3.1-12.1-.4-.8-4.6-11.4-3.2-11.4-4.5.1-9-.5-13.3-1.7-.3-.1-.7-.2-.9-.5-.4-.7.6-1.4 1.4-1.6 2-.5 4.1-.6 6.1-1.2s3.9-1.8 4.7-3.7.2-4.1.6-6.2c.5-2.5 2.6-4.4 4.8-5.5s4.7-1.4 7-1.9c-5.2-2.8-1.4-8.7-5.4-12.6-1.3-1.3-3.2-2.8-2.4-4.4.8-1.5 3.5-1.5 3.8-3.2.2-1.2-1-2.1-2.2-2.4s-2.5-.2-3.5-.8c-1.5-.8-2-3-1-4.4.9-1.2 2.5-1.6 3.8-2.3 1.3-.7 2.5-2.4 1.7-3.7-.2-.3-.5-.5-.8-.7-2.2-1.4-5-.2-7.2 1.2-2.1 1.4-4.3 3.2-6.9 3.2-.6-1-.2-2.4.8-2.9.4-.2.8-.3 1-.5.6-.6.1-1.6-.3-2.4-1.9-3.5-2.4-7.9-1.2-11.7l15.6.3c.1-1.2.3-1.9 1.5-2.2-3.5-4.2-7.3-8-10.4-12.6-.4-.5-.8-1.1-1.4-1.3-.6-.2-1.4 0-2-.1-2.3-.3-2.6-3.4-2.4-5.7-.3-.7-1.4-.4-1.8.2-.4.6-.5 1.5-1 2-.8.8-2.1.7-3.2.3-3.7-1.4-5.6-6.2-4-9.7.2-.4.4-.8.9-1.1.9-.5 2 .1 3 .3 4 .7 3.4-3.7 2.4-5.8-1.3-2.8-5.2-4.6-8-5.4-3.3-.8-25.3-5-21.6-12.2.3-.7 1-1.1 1.7-1.4 2.1-.9 4.5-.7 6.7-1.3 2.2-.6 4.3-2.9 3.4-5-.4-.8-1.2-1.4-1.6-2.2-1.2-2.2.7-5.1-.2-7.5-.4-1.1-1.3-1.9-1.9-2.9s-.7-2.5.3-3.2c1.1-.7 2.7.3 3.9-.2 1.3-.6 1.2-2.6 0-3.4-1.1-.8-2.7-.5-3.9.3-.6.4-1.2.9-1.9 1-1.3.2-2.2-1.1-2.9-2.2-1-1.8-2.1-3.5-3.1-5.3-1.2 0-2.1 1.1-2.5 2.2s-.5 2.3-.9 3.4c-2.2 5.3-10.2 4.6-9.2 11.8 2.2-.3 4.2 2.2 3.5 4.2-.8 2.5-4.7 3.9-4.1 6.6.2.9.9 1.7 1.1 2.6.4 2.5-3.5 3.5-5.2 4.1-5.6 1.9-6-1.8-10.8-2-2.2-.1-4.2 1.4-6.4 1.6-2 .2-4.1-.6-6.1-.5-5.6.3-2.8 7.9-2.4 11.2-3-2-7 .3-9.4 3-3.7 4.2-3.3 3.4-8.2 3.6-1.3 0-2.6.7-3.2 1.9-.9 2.1 1 4.3 1.1 6.5 0 1.1-.4 2.1-.3 3.2.3 2.8 3.6 4 5.6 6 1.8 1.7 2.6 4.4 2.2 6.8-1.4.1-2.9 0-4.3-.3-.8-1.6-1.7-3.3-2.5-4.9-.7-1.4-1.5-2.9-2.9-3.9-.7-.5-1.6-.9-2.2-1.6-1.1-1.5-.2-3.5 0-5.3.6-4.3-1.6-11.7-2.6-16-1.1-4.6-4.2-6.4-5.3-10.6-.2-.7-1.2-1-1.9-.6s-1 1.2-1.2 1.9c-.4 1.7-.3 3.6.5 5.3-1-2.1-6.4 3.5-6.7 4.6-.5 1.8.6 4.2.6 6.1-.1 4.5-1.2 7.1-5.9 3.7-1.8-1.3-4.1-2.8-6-1.7.4 1.2-.4 2.6-1.6 3.2s-2.5.5-3.8.3c-.9-.2-1.8-.4-2.3-1.1-.3-.4-.5-.8-.8-1.1-1.2-.9-2.7.7-3.4 2.1m230.4-139.3c.9 1.5-.1 3.4-1.1 4.8-1.1 1.4-2.3 3-1.9 4.7 2 .2 4.1.4 6.1.6.4 0 .8.1 1 .4s.2.7.2 1.1c-.2 1.3-.3 2.6-.5 3.9-1.3 1-2.5-2.1-4.1-1.8-.7.1-1.1.9-1.4 1.5-3.3 5.2-9 1.3-12.1-1.4-3.6-3.1-8.7-3.3-13.5-3.4-1.7 0-3.6 0-4.8 1.3-1.2 1.2-1.2 3-1.8 4.6-1 2.7-3.6 4.5-5.1 7-5.2 8.8 4.1 15.5 12 13.1 4.1-1.2 3.4-2 7.6-.7 1.7.5 3.9.1 4.9 2 1.1 2.1-.5 4.8-2.8 4.7-2.3 0-4.6.3-6.7-.8.8 2.8-.1 5.9-.3 8.9-2.7-.6-5.3 2.7-4.1 5.2 1.3 0 3.1.5 3 1.8 0 .4-.2.7-.5 1.1-.9 1.3-2.1 2.5-2.9 3.9-1.2 2.2-1.2 8.7-4.3 9.5-.5.1-1.1.1-1.7.3-1.1.4-1.8 1.7-1.5 2.9.3 1.2 1.3 2.1 2.5 2.4.8.2 1.6.2 2.4.5 4 1.4.5 5.4 1.5 7.4.5.9 7.2 5.2 8 5.4-2.4 1.6-4.5 4.2-4.5 7.2-.1 3.3 2.4 4.9 5.5 5.9 3.3 1 7.3 1.4 9.7 2.3 1.3.5 2.8 1 3.9.1 1.3-1.1 1-3.6 2.6-4.3.5-.2 1.1-.2 1.6-.3 3.2-.3 5.7-3.6 5.1-6.8.7-1 2.2-.9 3.4-.8 1.2 0 2.7-.4 2.9-1.6.2-1.4-1.6-2.1-2.9-2.2-1.4-.1-2.8 0-4.2.3-1 .2-2.1.6-3.1.1-.7-.3-1.2-1-1.6-1.7-1-1.6-1.9-3.5-1.7-5.4s1.7-3.8 3.6-3.8c.5 0 1 .2 1.5.1 1.3-.2 1.9-1.8 1.8-3.1-.1-1.3-.5-2.7-.2-3.9.4-1.3 2.1-2.2 3-1.2.7-1.7 1.2-4.2-.4-5-.5-.3-1.2-.2-1.7-.3-3.6-.3-8.6-5.3-4.5-8.1 2.7-1.8 7 2 9.3-1.5 1.1-1.7.4-4.1 1.6-5.8.7-.5 1.5.5 1.6 1.3.5 2.6-.5 5.4-2.5 7.2 2.1 1.2 5.3-.2 6.7 1.8 1.4 1.9-.7 5.2 1.2 6.7.5.4 1.2.5 1.9.6 3.3.5 9.4-.1 9.6 4.6 0 .6-.1 1.2.1 1.7.5 1.7 2.8 1.8 4.5 1.6.9-1.7-.3-3.7-1-5.4-.8-1.8-.7-4.4 1.1-4.9 1.3-.3 2.9.8 4 0 .5-.4.8-1.1 1.3-1.4 1.4-.7 2.5 1.4 4 1.8 2 .6 3.5-2 3.5-4.1s-.5-4.5.9-6.1c.4-.5 1-.9 1.5-1.3 1.5-1.4 1.8-3.7 2-5.7.3-3.3 13.3 5.2 14.1 5.4 6.2 1 10-5.1 14.3-8.5 2.2-1.8 4.8-3 7.4-4.2-17.7-57-65.4-101.7-123.5-115.5-2.6-.6-5.3-1.3-7.9-1.5.8 4 3.3 10.2.6 14-3.4 4.8-10.5.6-13.2 6.2-.1 1.4 2.3 1.2 3.4 2.1.6.5.8 1.4 1.1 2.1s1 1.5 1.8 1.2c.9 1.3-.5 3-1.7 4-1.4 1.3-2.7 2.7-3.2 4.5-1.1 3.7 1.4 7.5 3 11 1.3 2.9 2 6.1 2.8 9.3 0-1.5 2.1-2.1 3.5-1.4 1.3.7 2.1 2 3.2 3.1 1.8 1.8 4.2.7 6.2 2.2 2.5 1.9 4 5.2 7.1 5.7 3.7.6 6.4-3.3 8-6.7 4 2.1 6.6 7.3 11.1 7.7 1.8.1 3.5-.5 5.1-1.2 3.4-1.3 6.7-2.6 10-4 1.4-.6 2.9-1.1 4.3-.6 1.7.6 2.5 2.4 3.2 4 .7 1.8 1.4 3.5 2.2 5.3.3.7.6 1.5.4 2.3-.2.8-.9 1.4-1.6 1.8-3.8 2.5-8.5 3.5-13 2.7.4 6.1 1.6 12.1 3.6 17.9-3.4-.9-7.4.3-10.5-1.1m-30 121.2c-1.3 1.5-3.2 2.7-5.1 2.6-1.2 0-2.4-.5-3.6-.7-1.2-.2-2.6.1-3.3 1.1-.9 1.3 0 3 .8 4.4.7 1.1 1.4 2.3 2.7 2.6.9.3 1.9 0 2.8.2 1.8.3 3 2 4.2 3.4s3.2 2.7 4.8 1.7c1.1-.6 1.5-1.9 2.5-2.6 2.5-1.6 5.6 1.9 7.9.6 2.7-1.5 1.7-5.9.6-8.4s-3.4-4.4-5.4-6.3c-5.6-5.2-4.9-3.4-8.9 1.4zm85 70.8c26.8-26.6 42.5-65.4 45.6-102.6.1-1 .2-2.1.2-3.1-5.2-5.3-15.5-8.7-18.2.9-1.1-.1-1.3-.7-2.1-1.3-1.3-.9-3.1.3-3.8 1.7-2.3 4.6-2.7 10.5-9.1 9.2-7.7-1.5-2.5-4.8-5-9-.4-.6-1-1-1.5-1.5-1.8-1.9-1.6-4.8-1.2-7.4 1.5.8 3.5-.1 4-1.7.2-.6.2-1.3.6-1.8.9-1 2.7-.1 3.1 1.2.4 1.3.1 2.7.4 4 .3 1.3 1.7 2.6 2.9 1.9.5-.3.7-.8.9-1.4.7-2.3.2-4.8-1.3-6.7 1.3-.3 2.2-1.6 2.2-2.9s-1-2.5-2.3-2.8c-1.9-.4-4.5.7-5.3-1.1.3 1.5-.4 3.2-1.6 4.1-4.9 3.6-16.1.4-15 10.9.2 1.7.8 3.3.7 5 0 1.7-1 3.6-2.6 3.9 3 2.4 1.9 8 5.1 10.1 1.5 1 3.7.8 5-.5.2-.2.4-.5.7-.6.6-.2 1.1.4 1.7.5 1 .2 2-.9 3-.9 1.5-.1 2.3 1.7 2.6 3.2s.7 3.3 2.1 3.7c.5.1 1 .1 1.5.2 1 .3 1.6 1.3 1.6 2.4.1 1-.3 2-.7 3-.6.6-1.7.2-2.3-.4s-1-1.5-1.6-2.1c-.4-.3-9.3.4-9-.3-1.3 3.1-2 9.8-6.6 8.1-1.6-.6-3.3-1.7-5-1.2.8-2.2 1.6-4.3 2.3-6.5-.7-.6-1.7.2-2 1.1s-.3 1.9-1.1 2.4c-.5.4-1.2.4-1.8.4-2.1 0-4.1-.1-6.2-.1-2.2 0-4.8.1-6.2 1.8-1.6 2-.7 5 1 6.9.4.5.9 1 .8 1.6 0 .5-.5 1-.9 1.3-2.1 2-3.5 4.9-3 7.8s3.1 5.4 6 5.2c1.1-.1 2.5-.5 3.2.4.4.5.4 1.4 1 1.7.8.3 1.4-.6 1.9-1.2 1-1.1 2.8-1.4 4.1-.7.7.4 2.7 6.7 2.2 7.6-1.2 2.1-7.1 1.3-9.4 1.4-.9 0-1.9.1-2.4.8-.9 1-.2 2.7.8 3.6s2.3 1.7 2.8 3c.3.7.3 1.6.2 2.4-.1 1.6-.2 3.4-1.5 4.5-.6.5-1.3.8-1.9 1.2-1.3 1.1-1.4 3.2-1 4.8.5 1.7 1.4 3.2 1.7 4.9.7 3.6-1.3 7.6.1 11 .7 1.6 2.9 3 4.2 1.8 1.2-1 1.2-3.4 2.7-3.5 1.5-.2 3.3 3.5 4.5 4.3 1 .6 2.9-.4 4.7.9 1.7 1 2 3.3 3.5 4.5zM424.8 261.3c1.5-1.9 2.5-4.1 5.3-4.6 3.9-.7 5.3 1.5 3.6 5.2-.2.3-.3.7-.2 1 .3 1.1 1.9.5 2.9-.2 2.2-1.5 5-1.4 7.4-.4.6.2 1.6-10.3 1.1-11.6-1.9-4.3-10.9-2.3-9-6.9 3.3-.1 6.8.4 10.1.6l.6-4.8c-.1 1.2 6.1 1 6.8.6 2.7-1.4 2-6.4 6.9-5.6 6.2 1 6.6 13.3-.5 11.3-1.7 3.6-2.3 7.9-2.5 11.9h-3.9c-.6.9-.8 2.1-.5 3.1 3.1 2.2 7.5 2.2 10.6.1 2 1.6 4.9.1 7-1.4 2.9 4.7 11.3 4 13.4-1.1 2.2-5.1-3.2-11.6-8.6-10.4-.1-2.6-1-5.1-2.6-7.1 6.7.2 13.3-4.3 15.4-10.7 1.1-3.2 1.3-7.1 4-9.1 1.2-.9 2.7-1.3 4-2.1 2.8-1.9 3.6-5.6 4.1-8.9.3-2.2.5-4.5.6-6.7-39.8 6.4-75.4 26.8-101.1 56.2-.1 1.2-.2 2.4.3 3.5.9 2 3.2 2.8 5.3 3.3 8.2 2.2 13.4 1.7 19.1-4.7.1-.1.2-.3.4-.5z" style="opacity:.4"/><path class="st3" d="M113.7 193.9c0 9.3 5 17.4 12.5 21.7 3.7 2.1 7.9 3.3 12.5 3.3 5.8 0 11.2-2 15.4-5.3 5.8-4.6 9.6-11.7 9.6-19.7 0-13.8-11.2-25-25-25s-25 11.2-25 25z"/><circle class="st7" cx="138.7" cy="193.9" r="23.6"/><path class="st3" d="M124.7 193.5c.3 3 2.9 3.5 2.9 3.5s-.6 1.6.1 3.5 4.6 1.9 4.6 1.9.3 1 1.8 1.2c.1.1.2.2.2.3.2.2.4.5.5.8.5 3.8.4 7.8-1.5 9.8-1.6.2-3.2.4-4.9.7-.8.1-1.5.2-2.3.4 3.7 2.1 7.9 3.3 12.5 3.3 5.8 0 11.2-2 15.4-5.3h-6.8v-.1c-2.7-.4-4-1.7-4.5-3.3-.3-.8-.3-1.7-.3-2.6.7-.1 1.4-.4 2.1-.7 1.9-.9 3.4-2.5 4.2-4.7l.3-.9c.6-2.1.8-4.8.5-7.4.7-.4 1.5-1.1 1.7-2.4.5-2.5-1.8-3.1-1.8-3.1s2.5-.4 2.6-3.5-2.6-3.1-2.6-3.1.9-1.3-.9-3.8c-1.8-2.4-4.2-.9-4.2-.9s-1.9-2.9-4.9-2.2-3.8 2.5-3.8 2.5 0-1.8-3.5-.8-3 5-3 5-2.3-1.2-3.5 1.3 1.4 6.9 1.4 6.9-2.6.7-2.3 3.7z"/><path class="st8" d="M113.7 193.9c0 9.3 5 17.4 12.5 21.7 3.7 2.1 7.9 3.3 12.5 3.3 5.8 0 11.2-2 15.4-5.3 5.8-4.6 9.6-11.7 9.6-19.7 0-13.8-11.2-25-25-25s-25 11.2-25 25z"/><circle class="st3" cx="126.1" cy="633" r="22.2"/><path class="st7" d="M147 633c0 4.8-1.6 9.3-4.4 12.8-3.8 4.9-9.8 8.1-16.6 8.1-4.4 0-8.4-1.3-11.8-3.6-5.5-3.8-9.1-10.1-9.1-17.3 0-11.6 9.4-21 21-21s20.9 9.4 20.9 21z"/><path class="st3" d="M142.6 645.8c-3.8 4.9-9.8 8.1-16.6 8.1-4.4 0-8.4-1.3-11.8-3.6.7-1.6 1.1-2.5 1.1-2.5 2.6-.8 5.3-1.5 8-2 .7-.6 1.6-1.1 2.7-1.4.6-1.7.2-3.5-.2-4.8-.8-.6-1.5-1.3-2.1-2.1-.4-.3-.8-.7-1.1-1.1-.6-.3-5.1-2.3-5.3-9.6v-.9c-1.4-.1-2.8.3-1.8 3.1 1.7 4.8-.1 7.4-.1 7.4.1-1.6-.2-3.2-.2-3.2 0 5-2.7 5.3-2.7 5.3s1.7-1.8-.8-7.4c-2.5-5.6-1.8-13.1 3-13.5 2.6-.2 4.3 1.1 5.4 2.2 2.7-2.4 6.9-2.9 9.5-1.1 0 0 4.3-1.1 5.6.1.3.2.1.8-.5 1.6 1.1.7 2 1.9 2.4 3.6.7 3-.2 5.3-1.2 6.8.6 5.5-.4 9.6-4.7 10v1c0 1.1.1 1.8.3 2.3.6.1 1.3.3 1.8.5 3.9 0 8.3.4 8.3.4.4.3.7.5 1 .8z"/><circle class="st8" cx="126.1" cy="633" r="22.2"/><circle class="st3" cx="940" cy="459.4" r="24.5"/><path class="st7" d="M963.1 459.4c0 4.7-1.4 9.1-3.9 12.8-4.1 6.2-11.2 10.3-19.3 10.3-5.3 0-10.3-1.8-14.2-4.9-5.5-4.2-9-10.8-9-18.3 0-12.8 10.4-23.1 23.1-23.1 13 0 23.3 10.4 23.3 23.2z"/><path class="st3" d="M959.3 472.2c-4.1 6.2-11.2 10.3-19.3 10.3-5.3 0-10.3-1.8-14.2-4.9-.3-1.4 0-2.8.1-3.8.3-2.8 3.5-5.1 3.5-7.1-.1-2-3.3-4.5-1.2-5.7 2.1-1.1 2.6-5.5.9-8-1.4-1.6-2.5-4.2.1-7.5 1.6-2.1 3.9-3 6.3-3.4 1.6-.9 3.8-1.3 6.8-1 2.9.3 5.1 1.1 6.8 2.3 1.7 1.2 2.8 2.7 3.5 4.4 0 0 2.5 4.9.7 10-1.2 3.3 4 3.1 4.1 6.2.1 3-2.4 3.2-2 5.2.5 1 2.2 1.8 3.9 3z"/><circle class="st8" cx="940" cy="459.4" r="24.5"/><path transform="rotate(-23.44 740.67 256.253)" class="st3" d="M638.6 255.2h204.1v2.1H638.6z"/><path transform="rotate(-31.756 428.345 172.447)" class="st3" d="M427.3 96.4h2.1v152.1h-2.1z"/><path transform="rotate(-11.836 310.605 474.354)" class="st3" d="M204.5 473.3h212.2v2.1H204.5z"/><path transform="rotate(-23.44 740.67 256.253)" class="st9" d="M638.6 255.2h204.1v2.1H638.6z"/><path transform="rotate(-32.067 730.736 514.259)" class="st3" d="M729.7 401.7h2.1v225.1h-2.1z"/><path transform="rotate(-32.067 730.736 514.259)" class="st9" d="M729.7 401.7h2.1v225.1h-2.1z"/><path transform="rotate(-31.756 428.345 172.447)" class="st9" d="M427.3 96.4h2.1v152.1h-2.1z"/><path transform="rotate(-11.836 310.605 474.354)" class="st9" d="M204.5 473.3h212.2v2.1H204.5z"/><path class="st3" d="M408.9 687.6 205.6 496.4 234.4 279l.2-.2 153.2-171.9.4-.1 277.6-38.4 169.5 146.8-.1.5-43.8 394.7-.8.2-381.7 77zm-201.1-192 201.8 189.7 380-76.6L833.1 216l-168-145.5-276.3 38.2-152.4 171.2-28.6 215.7z"/><path class="st9" d="M408.9 687.6 205.6 496.4 234.4 279l.2-.2 153.2-171.9.4-.1 277.6-38.4 169.5 146.8-.1.5-43.8 394.7-.8.2-381.7 77zm-201.1-192 201.8 189.7 380-76.6L833.1 216l-168-145.5-276.3 38.2-152.4 171.2-28.6 215.7z"/><path class="st3" d="m471.5 237.1-3.1 18.4-3.2-18.4z"/><path class="st3" d="M477.5 237.1c0 5-4.1 9.1-9.1 9.1s-9.1-4.1-9.1-9.1 4.1-9.1 9.1-9.1 9.1 4.1 9.1 9.1z"/><path class="st7" d="M469.3 230.7c1 1.3.2 3.6-1.8 5.2-2 1.5-4.4 1.7-5.5.3-1-1.3-.2-3.6 1.8-5.2 2-1.5 4.4-1.6 5.5-.3z"/><path class="st3" d="m650.2 296.8-3.2 18.4-3.1-18.4z"/><circle class="st3" cx="647" cy="296.8" r="9.1"/><path class="st7" d="M647.9 290.4c1 1.3.2 3.6-1.8 5.2-2 1.5-4.4 1.7-5.5.3s-.2-3.6 1.8-5.2c2.1-1.5 4.5-1.7 5.5-.3z"/><path class="st3" d="m417.6 451.5-3.2 18.4-3.1-18.4z"/><circle class="st3" cx="414.4" cy="451.5" r="9.1"/><path class="st7" d="M415.3 445.1c1 1.3.2 3.6-1.8 5.2-2 1.5-4.4 1.7-5.5.3-1-1.3-.2-3.6 1.8-5.2 2.1-1.5 4.5-1.6 5.5-.3z"/><path class="st3" d="m674.2 418.9-3.2 18.3-3.1-18.3z"/><path class="st3" d="M680.1 418.9c0 5-4.1 9.1-9.1 9.1s-9.1-4.1-9.1-9.1 4.1-9.1 9.1-9.1c5.1 0 9.1 4 9.1 9.1z"/><path class="st7" d="M671.9 412.4c1 1.3.2 3.6-1.8 5.2-2 1.5-4.4 1.7-5.5.3-1-1.3-.2-3.6 1.8-5.2 2-1.4 4.5-1.6 5.5-.3z"/><path class="st3" d="M904.7 220c0 15.7-5.2 30.3-14 41.9-3.1 4.2-6.7 8-10.7 11.3-3.5 3.1-7.4 5.8-11.6 8-10 5.5-21.5 8.7-33.8 8.7-10.3 0-20.1-2.2-28.9-6.3-.8-.3-1.6-.7-2.4-1.2-4.9-2.4-9.6-5.5-13.7-9-6.3-5.3-11.6-11.6-15.6-18.8-5.9-10.2-9.2-22.1-9.2-34.7 0-38.7 31.3-70 70-70 38.6.1 69.9 31.4 69.9 70.1z"/><circle transform="rotate(-45.001 834.811 220.003)" class="st8" cx="834.8" cy="220" r="67.9"/><path class="st10" d="m789.7 251.7 6.6-27.2s4.2-3.3 4.4-5.7c.3-2.4-2.6-16.7-4.4-17.5-1.8-.9-12.5 2.9-13 5.9s3.7 15 4.5 16L777 254.8l12.7-3.1z"/><path class="st3" d="m794.9 236.1-3.9 35.8c-6.1-5.1-11.2-11.3-15.2-18.2 2.4-8.6 4.9-16.3 6-19.7.4-1.2.6-1.9.6-1.9l2.3.3 9.3 1.2 1.2.2-.3 2.3zm17.9 23.1-6.1 22.6c-.8-.3-1.6-.7-2.4-1.1-4.8-2.4-9.3-5.3-13.3-8.8.5-1.1 13-29.3 17.6-28.9l4.2 16.2z"/><path class="st11" d="m794.9 236.1-3.9 35.8c-6.1-5.1-11.2-11.3-15.2-18.2 2.4-8.6 4.9-16.3 6-19.7.4-1.2.6-1.9.6-1.9l2.3.3 9.3 1.2 1.2.2-.3 2.3zm17.9 23.1-6.1 22.6c-.8-.3-1.6-.7-2.4-1.1-4.8-2.4-9.3-5.3-13.3-8.8.5-1.1 13-29.3 17.6-28.9l4.2 16.2z"/><path class="st3" d="m797.8 231.4-2.1 4.8-14.9-2.4.3-2.8z"/><path class="st12" d="M876.1 196.6c-1.7 6.7 7.8 25 3.9 58.4s-40.5 31.4-57 20.2c-16.5-11.1-13.6-71.6-8-83.5 5.8-11.8 61.1 4.9 61.1 4.9z"/><path class="st3" d="M885.8 250.6c-.4 1-.7 1.9-1 2.9-.4.9-.7 1.9-1 2.8l-1.8 5.4c-1.2 3.5-2.2 6.8-3.2 9.9-3.4 3-7.2 5.6-11.2 7.8-9.7 5.4-20.9 8.5-32.8 8.5-10 0-19.5-2.2-28.1-6.1-.8-.3-1.6-.7-2.4-1.1v-3.9c0-1.9.1-3.7.2-5.4.1-1.1.1-2.2.1-3.3 0-.5.1-1 .1-1.5.1-1.9.2-3.6.3-5.1 0-.5.1-1 .1-1.5.1-1.5.2-2.8.3-4 .8-7.8 1.8-10.8 2.5-12.1.1-.3.3-.4.4-.5l.3-.3s1-.1 2.7-.2c4.5-.4 13.9-1.1 22.4-1h.5c1.1 0 2.3.1 3.4.2 4.4.2 8.8.6 13.1 1.2 1.6.2 3.2.4 4.8.7 1.7.3 3.5.5 5.2.8.2.1.5.1.7.1 6.4 1.1 12.8 2.5 19.1 4.4 1.8.3 3.6.8 5.3 1.3z"/><path class="st11" d="M885.8 250.6c0 .1 0 .1 0 0-.4 1-.7 1.9-1 2.9-.4.9-.7 1.9-1 2.8l-1.8 5.4c-1.2 3.5-2.2 6.8-3.2 9.9-3.4 3-7.2 5.6-11.2 7.8-9.7 5.4-20.9 8.5-32.8 8.5-10 0-19.5-2.2-28.1-6.1-.8-.3-1.6-.7-2.4-1.1 0-.7 0-1.3.1-2v-1.9c0-1.9.1-3.7.2-5.4.1-1.1.1-2.2.1-3.3 0-.5.1-1 .1-1.5.1-1.9.2-3.6.3-5.1 0-.5.1-1 .1-1.5.1-1.5.2-2.8.3-4 .8-7.8 1.8-10.8 2.5-12.1.1-.3.3-.4.4-.5l.3-.3s1-.1 2.7-.2c4.5-.4 13.9-1.1 22.4-1h.5c1.1 0 2.3.1 3.4.2 4.4.2 8.8.6 13.1 1.2 1.6.2 3.2.4 4.8.7 1.7.3 3.5.5 5.2.8.2.1.5.1.7.1 6.4 1.1 12.8 2.5 19.1 4.4 1.7.3 3.5.8 5.2 1.3z"/><path class="st5" d="M846.5 240c15 1.2 16.8 5.7 15.2 8.1s-21.9 22.2-28 35.5c0 0-22-46.4 12.8-43.6z"/><path class="st10" d="M838.7 255.1c14.8-1.9 19.3-8.2 19.3-8.2-9.4-8.9-1.6-24.3-1.6-24.3l-17.9 3.3c.5 3 .7 5.4.7 7.5.1 10.8-4.8 10.9-4.8 10.9-3 5.9 4.3 10.8 4.3 10.8z"/><path class="st13" d="M838.6 225.9c.5 3 .7 5.4.7 7.5 12.1 0 17.2-10.9 17.2-10.9l-17.9 3.4z"/><path class="st10" d="M848.5 175.9c-15.5-.9-21 7.2-23 23.1-2.5 19.9 1.1 34.4 20.8 31.2 26.6-4.3 27.9-52.8 2.2-54.3z"/><path class="st14" d="M835.5 198.7s-2.4 3.9-4.9 6.2c0 0 1.2 2.2 4 2l.9-8.2z"/><path class="st12" d="M845.1 198c-.1 1.3.5 2.4 1.4 2.4.8.1 1.6-.9 1.7-2.2.1-1.3-.5-2.4-1.4-2.4-.8-.1-1.6.9-1.7 2.2z"/><path class="st12" d="m847.2 195.9-2.7-1.3s1.2 2.4 2.7 1.3zm-17.9.6c-.1 1.3.5 2.4 1.4 2.4.8.1 1.6-.9 1.7-2.2.1-1.3-.5-2.4-1.4-2.4-.8-.1-1.6.9-1.7 2.2z"/><path class="st12" d="m831.4 194.4-2.7-1.3s1.2 2.4 2.7 1.3zm21.1-3.7c-.2 0-.4-.1-.6-.3-1.9-2.7-5.9-2.4-6-2.4-.4 0-.7-.3-.8-.7 0-.4.3-.7.7-.8.2 0 4.8-.3 7.2 3 .2.3.2.8-.2 1 0 .2-.2.2-.3.2zm-24.1-3c-.2 0-.5-.1-.6-.4-.2-.3-.1-.8.3-1 3.8-2.3 6.8-1 6.9-1 .4.2.5.6.4.9-.2.4-.6.5-.9.4-.1 0-2.4-1-5.6.9-.3.1-.4.2-.5.2zm8.2 25.5c.8 1.9 1.5 5.5 1.5 5.5h1c4.5-.2 6.6-1.8 7.5-3.5.5-.9.6-1.9.6-2.7 0-.9-.2-1.6-.2-1.6-2.3 1.5-6.6 2.1-8.8 2.3-1-.1-1.6 0-1.6 0z"/><path class="st5" d="m838.1 213.1.5 1.6c4.3-.2 7.3-.9 8.5-2.3 0-.9-.2-1.6-.2-1.6-2.3 1.5-6.5 2.1-8.8 2.3z"/><path class="st14" d="M839.1 218.6c4.5-.2 6.6-1.8 7.5-3.5-1.5.1-3.4.5-5 1.2-1.2.6-2 1.5-2.5 2.3z"/><path class="st12" d="M864 203s-6.6-13.2-4.9-22.9c0 0-30.1-14.3-33.3 16.9 0 0-1.5-27.9 25.2-27 26.7.8 24.5 39.9 10 50.8 0-.1 7-9.5 3-17.8z"/><path class="st10" d="M861.3 206.2c.2-2.5 3.1-6.6 7.7-5.8 4.8.8 6.5 10.8-5.6 12.5-1.8.2-2.6-1.5-2.1-6.7z"/><path class="st12" d="M854.9 178.5s-2.5 19.2 9.1 36.5c8.7 13.2-1.3 24.7-1.3 24.7s15.5-9.9 16-24.7c0 0 12.8-35.6-13.8-45.2 0 0-.1-8-17.4-6.5-17.3 1.5-31.3 16.4-33.9 35.3-2.6 18.9 7.2 40.1 7.2 40.1s-10.5-67 34.1-60.2z"/><path class="st12" d="M855.9 178.9c-1.2 4.3-1.5 9.1-1.3 13.8.3 4.7 1 9.3 2.2 13.9 1.2 4.6 2.9 9 5.2 13.1s5.1 8 8.8 11c-3.8-2.9-6.8-6.7-9.2-10.8s-4.4-8.5-5.7-13.1c-1.4-4.6-2.4-9.3-2.8-14.1-.3-4.8-.3-9.6.9-14.5l1.9.7z"/><path class="st3" d="M889.2 260.7c-3 4-6.5 7.7-10.3 11-3.4 3-7.2 5.6-11.2 7.8.2-.9.5-1.8.8-2.7 2.7-7.5 7.4-14.4 11.2-19.2 3.2-3.9 5.7-6.5 6.1-6.9l.1-.1c1.5 1.4 2.6 5 3.3 10.1z"/><path class="st11" d="M889.2 260.7c-3 4-6.5 7.7-10.3 11-3.4 3-7.2 5.6-11.2 7.8.2-.9.5-1.8.8-2.7 2.7-7.5 7.4-14.4 11.2-19.2 3.2-3.9 5.7-6.5 6.1-6.9l.1-.1c1.5 1.4 2.6 5 3.3 10.1z"/><circle class="st3" cx="663.4" cy="73.7" r="38.2"/><path class="st7" d="M699.4 73.7c0 9.5-3.7 18.1-9.6 24.5-6.6 7.1-16 11.5-26.4 11.5-11.2 0-21.2-5.1-27.8-13.1-5.2-6.2-8.3-14.2-8.3-22.9 0-19.9 16.1-36 36-36 20 0 36.1 16.1 36.1 36z"/><path class="st3" d="M689.8 98.2c-6.6 7.1-16 11.5-26.4 11.5-11.2 0-21.2-5.1-27.8-13.1.2-.1.4-.1.6-.2.5-.6 1-1.3 1.7-1.8v-.3l.6-.1c1-.6 2.3-1 3.9-1 .4 0 .8 0 1.2.1l2.2-.4v.6c2.8.2 7.2.5 12.1.8 1.1-.9 1.8-1.9 2.2-3.2.4-1.3.5-2.7.4-4.1-1.7-.1-3.5-.5-5-1.3-2.8-1.4-5.1-3.9-6.2-7.1-.2-.4-.3-.9-.4-1.3-.9-3.9-1.2-8.9-.2-13.6h-.4c-.2 0-.3-.2-.3-.4v-.1c0-.2.3-.4.5-.3h.1c-.3-3 .2-6.1.6-8.1-1.3-2.2-1.3-6.5-.1-8.2 1.3-1.9.3-.9 3.8-1.2s1.4-3.4 3.6-3.5c2.2 0 1.8 1.4 4.5 2.4 2.8 1 1.7-2.1 4.9-2.4 3.1-.3 3.6 2.1 5.8 2.7s2.7 0 4.3 0 1.8 4.8 2.5 5.7 1.9-.4 3.3 2c.2.3.3.7.3 1.2 0 3.2-4 9.2-4 9.2-.2 1.4-.4 2.9-.8 4.5 1.2 1.1 1.5 3 .7 4.8-.8 1.6-2 2.9-3.5 3.7-.8 1.6-1.6 3-2.3 4-1 5.5-1.5 12 .4 16.1 6.8.4 12.9 1.2 17.2 2.4z"/><circle class="st15" cx="663.4" cy="73.7" r="38.2"/><circle class="st3" cx="409.3" cy="683.1" r="38.2"/><path class="st16" d="M445.3 683.1c0 10.3-4.3 19.6-11.3 26.1-6.4 6.1-15.2 9.9-24.7 9.9-7.6 0-14.6-2.3-20.4-6.3-9.4-6.5-15.6-17.4-15.6-29.7 0-19.9 16.1-36 36-36s36 16.1 36 36z"/><path class="st3" d="M434 709.3c-6.4 6.1-15.2 9.9-24.7 9.9-7.6 0-14.6-2.3-20.4-6.3 2.6-.4 5.4-.7 8.2-1 2.2-4.7 1.6-12.2.5-18.6-.8-1.2-1.7-2.7-2.6-4.6-1.7-1-3.1-2.5-4-4.3-.9-2-.6-4.2.8-5.5-.7-3.2-1.1-6.2-1.2-8.7l-.2.1s-2.9-11.2 7.9-15.3 21.8 3.2 21.8 3.2 2.3-4.4 5.1-3.2c2.4 1 1.1 4.1.7 5 .3-.5 1-1.5 2.5-2.1 1.9-.9 4.6 1.6-1.4 7.5-.6.6-1.3 1.1-2.1 1.5.3 2.4.6 5.3.2 8.1 1.1 5.4.9 11.2-.2 15.7-.1.5-.3 1-.5 1.5-1.3 3.7-4 6.5-7.2 8.2-1.8.9-3.8 1.5-5.8 1.6-.1 1.7 0 3.3.5 4.8.5 1.4 1.3 2.7 2.6 3.6 5.7-.4 10.7-.7 14-.9 0-.5-.1-.7-.1-.7l2.6.5c1.1-.2 2.1-.2 3 0z"/><circle class="st15" cx="409.3" cy="683.1" r="38.2"/><circle class="st3" cx="235.4" cy="279.5" r="38.2"/><path class="st16" d="M271.4 279.5c0 9.2-3.5 17.6-9.2 24-6.6 7.4-16.2 12-26.9 12-7.9 0-15.3-2.6-21.2-6.9-9-6.6-14.8-17.2-14.8-29.1 0-19.9 16.1-36 36-36s36.1 16.1 36.1 36z"/><path class="st3" d="M262.2 303.5c-6.6 7.4-16.2 12-26.9 12-7.9 0-15.3-2.6-21.2-6.9l14.3-4.4c.3.3.5.6.8 1l1.8-.3c1.1-.2 2.3-.4 3.4-.5.8-1.4 1.3-2.9 1.4-4.4-1.2.1-2 .1-2 .1.4-1.4-1.7-4.4-1.7-4.4l-.7 3.9s-1.4-.2-2.4-.8c-1-.6-2.2-4.9-2.2-4.9s-2.5 4.1-3 5.1c-.6 1-2 0-2 0s-.9-3.6.2-7.3c1.2-3.7-2.5-3.6-2.5-3.6s0 1.6-1 4.1-1 3.8-1 5.3.1 2.6-.9 2.6c-1.1 0-1.2-1-1.1-2.6.1-1.6-1.6-3.2-.6-4.5s.2-4.9.2-4.9c-.6 2.5-3.4 2.4-3.8 4.2-.5 1.8 1.3 4.3.5 5.2-.8.9-2.3 0-2.3 0s1.2-2 .4-3.1-2.2-1.7-1.6-4.1c.6-2.4 1.7-2.3 1.3-4.9s-1.6-2.4 0-3.4 3.6-5.5 3.6-7.5-.8-6.5 2.5-8.1c3.4-1.6 4.2-2.8 3.6-7.1-.6-4.2 2.6-3.9 6.7-3.1 0 0 2-3.2 3.9-2.6s3.4.2 3.8-.8c.4-1.1 5.7-1 6.5 0s3.6 1.7 5.4 1c1.7-.7 6.3 2.2 6.2 4.1s-.1 3 2.4 4.1c2.5 1.1 2.9 1.7 4 6s-.7 6 1.4 7.7c2.2 1.6 1.9 8.3 2 10.3s0 4.3 0 4.3l-.6.2c-.6.2-1.1-2.2-1-4 .1-1.7-3.6-4.1-4-4.3.1.2.8 1.6 1.2 2.8.5 1.2.6 4.4.5 6.4s2.3 3.2 2.3 3.2l-2.6 1.3s-2-4.4-1.3-6.6c.7-2.3-1.3-4.3-1.3-4.3v4.3s-.7 1.5-1.8 3.6c-1.1 2 .8 2.6 1.1 3.7s-2.4 1.1-2.4 1.1l-.5-2.6-.9 2.6c-1 .7-2.9 1.2-5.2 1.6.1 2 .5 3.3 1 4.1.9 0 1.7-.1 2.6-.1 1.7 0 3.5 0 5.1.1 3.4-.3 6.3-.1 8.4.1z"/><circle class="st15" cx="235.4" cy="279.5" r="38.2"/><circle class="st3" cx="385.7" cy="104.7" r="64.1"/><path class="st8" d="M447.7 104.7c0 14.2-4.8 27.3-12.9 37.8-2.2 2.9-4.7 5.6-7.4 8-2.5 2.3-5.1 4.3-8 6.1-.1.1-.2.2-.4.2-2.2 1.4-4.5 2.7-6.9 3.9-8 3.8-17 6-26.5 6-18.9 0-35.8-8.5-47.2-21.8-9.2-10.8-14.8-24.8-14.8-40.1 0-34.2 27.8-62 62-62 34.3-.1 62.1 27.7 62.1 61.9z"/><g id="_x3C_Group_x3E__4_"><path class="st17" d="M400.1 104.7c1.4-3 2.3-1.7 6.3 1.3 3.9 3 4.6 5.8 4.6 9s-.6 9.7-.6 9.7l10.2 11.5-4.6 7-12-13.5s-5.9-4.4-6.9-9.4c-.9-5 3-15.6 3-15.6z"/><path class="st12" d="m398.8 101.2 8.4 15.1c.4.7.3 1.5-.2 2.1l-6.5 7.5c-.8.9-2.3.8-3-.3l-7.5-12.4 8.8-12z"/><path style="opacity:.4;fill:#007cff;enable-background:new" d="m398.3 102.8 7.4 14-7 8.3-7.6-12.3z"/><path class="st3" d="M419.5 156.6c.1.3.1.6.1.9-.2-.2-.3-.4-.5-.7-2.2 1.4-4.5 2.7-6.9 3.9.5-4.3 1.2-8.1 1.7-11.3.5-2.9.9-5.4 1.3-7.1.3-1.7.5-2.7.6-2.9.7.1 1.5.4 2.2.7 3.2 1.6 6.4 5.3 9.5 10.3-2.6 2.3-5.2 4.4-8 6.2z"/><path class="st3" d="M419.6 157.5c-.2-.2-.3-.4-.5-.7-2.2 1.4-4.5 2.7-6.9 3.9-8 3.8-17 6-26.5 6-18.9 0-35.8-8.5-47.2-21.8 1.1-.3 2.2-.5 3.3-.7.1 0 .2 0 .3-.1.2 0 .4-.1.7-.1 2.8-.5 5.7-1 8.6-1.4h.1c1.3-.2 2.5-.4 3.8-.5 1.7-.2 3.4-.4 5-.6h.4c3.8-.4 7.7-.8 11.4-1.1 1.2-.1 2.5-.2 3.7-.2 1.6-.1 3.1-.2 4.7-.3 1.5-.1 3.1-.1 4.5-.2.6 0 1.2 0 1.8-.1 1.8-.1 3.6-.1 5.3-.1 5.5-.1 10.4-.1 14.2-.1h2.6c1.4 0 2.7.1 3.7.1 2.1 0 3.2.1 3.2.1.3.9.5 1.9.7 2.9 1.1 4.3 2.1 9.1 3 14.2 0 .2.1.5.1.8z"/><path class="st13" d="M419.6 157.5c-.2-.2-.3-.4-.5-.7-2.2 1.4-4.5 2.7-6.9 3.9-8 3.8-17 6-26.5 6-18.9 0-35.8-8.5-47.2-21.8l-1.5.3 1.5-.3c1.1-.2 2.2-.5 3.3-.7.1 0 .2 0 .3-.1.2 0 .4-.1.7-.1 2.8-.5 5.7-1 8.6-1.4h.1c1.3-.2 2.5-.4 3.8-.5 1.7-.2 3.4-.4 5-.6h.4c3.8-.4 7.7-.8 11.4-1.1l3.6-.3c1.6-.1 3.1-.2 4.7-.3 1.5-.1 3.1-.1 4.5-.2.6 0 1.2 0 1.8-.1 1.8-.1 3.6-.1 5.2-.2 5.5-.1 10.4-.1 14.3-.1h2.6c1.4 0 2.6.1 3.7.1 2.1.1 3.2.1 3.2.1.3.9.5 1.9.7 2.9 1.1 4.3 2.1 9.1 3 14.2.1.4.2.7.2 1z"/><path class="st17" d="M360.2 141.3c6.8 6.2 23.5 3.9 23.5 3.9s10.4-2.9 8.2-6.1c-6.1-1-9.1-3.9-10.3-7.5-.7-2.1-.8-4.5-.6-7 .1-1.3.3-2.6.5-3.9l-20.6-15.3c2.7 10 6 28.5-.7 35.9z"/><path class="st13" d="M365.6 115c.8 12.4 11 15.8 16 16.5-.7-2.1-.8-4.5-.6-7l-15.4-9.5z"/><path class="st12" d="M401.2 75.9s2.9 19.3-7.3 26.7c-10.2 7.4-10.2-28.5-10.2-28.5l17.5 1.8z"/><path class="st17" d="M364.2 117.9c5 7.1 13.1 9 20.1 6.8 4.5-1.4 8.6-4.6 11.1-9.1.3-.6.6-1.2.9-1.9 5-11.8 6.6-32.4-5.8-40.1-8.8-5.6-20.6-2.9-26.1 5.9-1.6 2.5-2.6 5.4-2.8 8.3-1.5 13.9-3.1 21.9 2.6 30.1z"/><path class="st12" d="M381.7 95.3c-.3 1.1.2 2.1 1 2.2.7.1 1.5-.7 1.7-1.8.2-1.1-.3-2.1-1-2.2-.8-.1-1.5.7-1.7 1.8zm12.5 2.1c-.3 1.1.3 2.1 1 2.2s1.5-.7 1.7-1.8c.2-1.1-.3-2.1-1-2.2s-1.5.8-1.7 1.8z"/><path d="M390.1 97.3c.7 3.6 2 7.1 3.7 10.4-1.7.8-3.8.9-5.5.1l1.8-10.5z" style="fill:#d58745"/><path class="st12" d="M378.5 90.5c.2.1.5 0 .7-.1 1.2-1.2 2.9-1.7 4.6-1.5.4.1.7-.1.8-.5.1-.4-.1-.7-.5-.8-2.1-.4-4.2.3-5.8 1.8-.3.2-.3.7-.1.9.1.1.2.2.3.2zm21.9 3.5c.1.1.2.1.4.1.4-.1.6-.5.5-.8-.5-2.1-2.1-3.7-4.1-4.5-.3-.1-.7.1-.8.4-.1.3.1.7.4.8 1.6.6 2.7 2 3.2 3.6 0 .2.2.4.4.4zm-25.9-21.4v6.2c-2.1.8-3.6 2.9-3 5.4 1.3 5.3-2.5 12.9-6.8 15.6 0 0 .1-2.2-1.8-1.9s-2.8 11.9.1 17.8c0 0-4.9-5.6-6.5-18.1-1.5-11.5-.7-20.9 2.1-24.9l15.9-.1z"/><path class="st17" d="M353.7 98.1c1 3.3 3.3 6.2 6.3 7.8 4.1 2.2 7.1-1.2 6.8-5.6-.3-3.9-2.7-9.8-7.2-10.2-4.5-.2-7.1 3.9-5.9 8z"/><path class="st12" d="M374.5 78.8s4 4 7.9 1.1c0 0 4.4 3.7 8 1.1 0 0 2 3.3 5.2 3.7s3.2-2.9 3.2-2.9 5.1 2.9 7 1.6c1.9-1.4-1-6.8-1-6.8s2.4-1.3.9-5.7-8.6-3.4-8.6-3.4.3-4.1-4.7-8.4c-4.9-4.3-7.9 1-7.9 1s-4.8-6.5-10.7-5.6c-5.9.9-5.3 4.9-5.3 4.9s-6.8-4.3-9.9 0 0 6.3 0 6.3-6.8 2.3-6.5 6.9c.3 4.7 3.8 4 3.8 4s-2 2.2 2.5 4.1S367 78 367 78s-1.7 2.6 1.5 4.4c3 1.8 6-3.6 6-3.6zm13.5 33.1c-1.6 1.3-3.9 4.2-3.9 4.2-.3-.2-.6-.3-.9-.5-3.9-2.3-5-4.6-5-6.6 0-1.1.4-2 .7-2.7.4-.8.9-1.3.9-1.3 1.4 2.5 4.9 4.9 6.8 6.1.9.6 1.4.8 1.4.8z"/><path class="st5" d="m386.7 111.1-1.2 1.2c-3.7-2.2-6-4.2-6.5-6 .4-.8.9-1.3.9-1.3 1.4 2.5 4.9 4.9 6.8 6.1z"/><path class="st14" d="M383.3 115.6c-3.9-2.3-5-4.6-5-6.6 1.3.8 2.8 2 3.9 3.4.8 1.1 1 2.2 1.1 3.2z"/><path class="st3" d="M383.7 145.2s-24.1-16.4-31.7-17.3c-7.7-.9-6.3 8.6-6.3 8.6s-5.9 0-3.6 7.3 35 11.3 47.1 7.7 19.3-10.4 17.3-16.8-7.6-.9-7.6-.9-3.2-6-7.9-4.6c-4.8 1.4-7.3 16-7.3 16zm51.1-2.8c-2.2 2.9-4.7 5.6-7.4 8-2.5 2.3-5.1 4.3-8 6.1.1.3.1.6.1.9-.2-.2-.3-.4-.5-.7-1.6-2.1-3.4-4.7-5.2-7.5-2.2-3.5-4.2-7.1-5.1-10.1-.3-.9-.5-1.8-.5-2.6l-2-2.8.7-.8 5.3-6.2 1.2-1.3 2.3 3s2.9-1 12.3 7c2.4 2.1 4.8 4.7 6.8 7z"/></g><circle class="st3" cx="208.6" cy="499" r="60.6"/><path class="st8" d="M267.1 499c0 14-4.9 26.8-13.1 36.9-2.5 3-5.2 5.8-8.3 8.3-1 .8-2 1.6-3 2.3-2.8 2.1-5.9 3.8-9.1 5.4-7.6 3.6-16 5.6-25 5.6-10.7 0-20.8-2.9-29.4-8-2.2-1.3-4.3-2.7-6.4-4.3l-.3-.3c-2.4-1.8-4.6-3.9-6.6-6.1-9.8-10.4-15.7-24.5-15.7-39.8 0-32.2 26.2-58.5 58.5-58.5 32.2.1 58.4 26.3 58.4 58.5z"/><path class="st12" d="M245.7 544.2c-1 .8-2 1.6-3 2.3-2.8 2.1-5.9 3.8-9.1 5.4-7.6 3.6-16 5.6-25 5.6-10.7 0-20.8-2.9-29.4-8-2.2-1.3-4.3-2.7-6.4-4.3l-.3-.3c0-.1.1-.3.1-.4.5-1.9 1-3.9 1.4-5.9.6-2.8 1.2-5.6 1.7-8.6 1.3-7.8 2-16.2 1.8-24.7-1-31 4.6-42.3 17.3-48.4.6-.3 1.2-.6 1.8-.8 3-1.3 6-1.5 8.9-1.1 10.8 1.5 20.2 11.6 20.2 11.6s2.1 2.9 5 8.4c5.1 9.9 12.7 28.3 14.5 53.4.4 5 .6 10.3.5 15.8z"/><path class="st3" d="M245.2 528.3c-2.3-1.7-4.4-2.9-6.1-3.2 0 0-12.3-1.2-23.1-1.1-1.2 0-2.4.1-3.5.2-5.5.3-11 .9-16.4 1.7-1.6.2-3.2.5-4.8.8-5.2.9-10.4 2-15.6 3.4-2.5.7-4.9 1.4-7.3 2.1-.9 1.1-1.7 3.5-2.5 6.8 2 2.2 4.2 4.3 6.6 6.1l.3.3c2 1.6 4.1 3 6.4 4.3 8.6 5.1 18.7 8 29.4 8 8.9 0 17.4-2 25-5.6 3.2-1.5 6.2-3.3 9.1-5.4 1-.7 2.1-1.5 3-2.3 3-2.5 5.8-5.3 8.3-8.3-2.9-3-6-5.8-8.8-7.8z"/><path class="st16" d="M245.2 528.3c-2.3-1.7-4.4-2.9-6.1-3.2 0 0-12.3-1.2-23.1-1.1-1.2 0-2.4.1-3.5.2-5.5.3-11 .9-16.4 1.7-1.6.2-3.2.5-4.8.8-5.2.9-10.4 2-15.6 3.4-2.5.7-4.9 1.4-7.3 2.1-.9 1.1-1.7 3.5-2.5 6.8 2 2.2 4.2 4.3 6.6 6.1l.3.3c2 1.6 4.1 3 6.4 4.3 8.6 5.1 18.7 8 29.4 8 8.9 0 17.4-2 25-5.6 3.2-1.5 6.2-3.3 9.1-5.4 1-.7 2.1-1.5 3-2.3 3-2.5 5.8-5.3 8.3-8.3-2.9-3-6-5.8-8.8-7.8z"/><path class="st20" d="M211.5 536.2c-13.6-1.7-17.7-7.6-17.7-7.6 5.6-5.2 4.5-13 3.1-17.8-.8-2.7-1.7-4.4-1.7-4.4l16.4 3.1c-.4 2.7-.6 5-.6 6.9 0 2.1.2 3.8.5 5.1 1.1 4.9 3.9 5 3.9 5 2.8 5.2-3.9 9.7-3.9 9.7z"/><path class="st13" d="M211 516.3c0 2.1.2 3.8.5 5.1-6.5-.9-11.4-6.1-14.5-10.6-.8-2.7-1.7-4.4-1.7-4.4l16.4 3.1c-.5 2.6-.7 4.9-.7 6.8z"/><path class="st20" d="M208.3 464.1c14.2.5 18.5 8.3 19 23 .6 18.4-3.9 31.2-21.6 26.7-23.9-6.2-21-50.5 2.6-49.7z"/><path d="M218.2 486s1.8 3.8 3.9 6.1c0 0-1.3 1.9-3.8 1.5l-.1-7.6z" style="fill:#d4827d"/><path class="st12" d="M203.5 477.4c-.2 0-.3-.1-.5-.2-.3-.3-.3-.7-.1-1 2.5-2.9 6.8-2.2 6.9-2.2.4.1.7.4.6.9-.1.4-.4.7-.9.6 0 0-3.6-.6-5.6 1.7 0 .1-.2.2-.4.2zm22.2-.8c-.1 0-.3 0-.4-.1-2.7-1.9-4.9-1.3-5-1.3-.4.1-.8-.1-.9-.5-.1-.4.1-.8.5-.9.1 0 2.9-.9 6.3 1.5.3.2.4.7.2 1-.2.2-.5.3-.7.3zm-9.7 22.5c-.9 1.7-1.8 4.9-1.8 4.9-.3 0-.6-.1-.9-.1-4.1-.6-5.9-2.2-6.5-3.8-.4-.9-.4-1.8-.3-2.5.1-.8.3-1.4.3-1.4 2 1.6 5.8 2.4 7.9 2.8.7 0 1.3.1 1.3.1z"/><path class="st5" d="m214.6 498.8-.6 1.4c-3.9-.5-6.5-1.5-7.6-2.8.1-.8.3-1.4.3-1.4 2 1.7 5.8 2.5 7.9 2.8z"/><path class="st14" d="M213.2 503.8c-4.1-.6-5.9-2.2-6.5-3.8 1.4.2 3.1.7 4.5 1.5 1.1.7 1.7 1.5 2 2.3z"/><path class="st12" d="M191.9 487.5s7.1-11.4 6.4-20.5c0 0 28.6-10.5 29 18.2 0 0 3.7-25.3-20.7-26.8s-25.7 34.3-13.4 45.4c-.1.1-5.7-9.1-1.3-16.3z"/><path class="st20" d="M194.1 490.6c0-2.3-2.2-6.3-6.5-6-4.4.3-6.9 9.3 4 11.9 1.6.4 2.5-1.1 2.5-5.9z"/><path class="st12" d="M200.3 454.7c7.7-2.1 28.2-2.4 33.1 18.8l-2.8 1.4s-6.8-3.7-15.4-4.6c0 0-1.7-3.1-4-5.7 0 0 .3 3.4 0 5.4 0 0-13.4 2-19.4 7.4-9.4 8.5-10 14-10 14s-6.5-29.7 18.5-36.7z"/><path class="st12" d="M235.4 473.3c-.2 0-.4-.1-.5-.4-2.4-7.3-6.6-12.4-12.4-15.3-10.6-5.2-23-1-23.2-.9-.3.1-.6 0-.7-.3-.1-.3 0-.6.3-.7.1 0 13-4.4 23.9 1 6 3 10.4 8.3 12.9 15.9.1.3-.1.6-.3.7.1 0 0 0 0 0zm-29.8 11.2s3.3-2.8 4.9 1c0 0-2.5-1.2-4.9-1zm15.8 2.1s1.8-3.9 4.3-1.1c0 0-2.8.1-4.3 1.1z"/><circle class="st3" cx="793" cy="603.1" r="75.1"/><path class="st8" d="M866 603.1c0 11.8-2.8 22.9-7.8 32.8-1 2-2.1 3.9-3.2 5.8-.9 1.4-1.8 2.9-2.9 4.3-4.3 5.9-9.4 11.1-15.2 15.5-1.3 1-2.7 2-4.1 2.9-5.6 3.7-11.8 6.6-18.3 8.6-6.8 2.1-14 3.2-21.5 3.2-10.7 0-21-2.3-30.2-6.5-1.2-.5-2.4-1.1-3.5-1.7-6.5-3.4-12.5-7.8-17.7-12.9-5.1-5-9.4-10.8-12.9-17.1-1-1.8-1.9-3.7-2.7-5.6-3.9-8.9-6.1-18.8-6.1-29.1 0-40.2 32.7-73 73-73 40.4-.2 73.1 32.6 73.1 72.8z"/><g id="_x3C_Group_x3E__2_"><path class="st22" d="M756.6 600.2c-.9 1.8-4.5 5.5-4.5 5.5l-6.3 29.8-4.1 19.4c-5.1-5-9.4-10.8-12.9-17.1.5-1.6 1-3.2 1.6-4.9 4.5-13.8 9.6-29.8 9.9-31.4.7-2.8-1.8-16.6-1.2-19.1s13.2-5.5 15.9-5.5c2.8.1 2.5 21.5 1.6 23.3z"/><path class="st3" d="m766.5 633-2.6 27.2-.9 9.3c-1.2-.5-2.4-1.1-3.5-1.7-6.5-3.4-12.5-7.8-17.7-12.9-5.1-5-9.4-10.8-12.9-17.1-1-1.8-1.9-3.7-2.7-5.6l4.3.7 15.4 2.5 3.3.5-3.9 18.8c-.1.1 14.1-19.5 21.2-21.7z"/><path class="st11" d="m766.5 633-2.6 27.2-.9 9.3c-1.2-.5-2.4-1.1-3.5-1.7-6.5-3.4-12.5-7.8-17.7-12.9-5.1-5-9.4-10.8-12.9-17.1-1-1.8-1.9-3.7-2.7-5.6l4.3.7 15.4 2.5 3.3.5-3.9 18.8c-.1.1 14.1-19.5 21.2-21.7z"/><path class="st3" d="M858.2 635.9c-1 2-2.1 3.9-3.2 5.8-.9 1.4-1.8 2.9-2.9 4.3-4.3 5.9-9.4 11.1-15.2 15.5-1.3 1-2.7 2-4.1 2.9-5.6 3.7-11.8 6.6-18.3 8.6-6.8 2.1-14 3.2-21.5 3.2-10.7 0-21-2.3-30.2-6.5-1.2-.5-2.4-1.1-3.5-1.7 2.9-21 6.7-33.5 7.1-34.7v-.1c7.6-2.2 15.3-3.7 23.1-4.7h.4c11.2-.9 22.5-1.1 33.8-.7h.1c7.8.2 15.6 1 23.3 2.3 1 .2 6.2 2.4 11.1 5.8z"/><path class="st11" d="M858.2 635.9c-1 2-2.1 3.9-3.2 5.8-.9 1.4-1.8 2.9-2.9 4.3-4.3 5.9-9.4 11.1-15.2 15.5-1.3 1-2.7 2-4.1 2.9-5.6 3.7-11.8 6.6-18.3 8.6-6.8 2.1-14 3.2-21.5 3.2-10.7 0-21-2.3-30.2-6.5-1.2-.5-2.4-1.1-3.5-1.7 2.9-21 6.7-33.5 7.1-34.7v-.1c7.6-2.2 15.3-3.7 23.1-4.7h.4c11.2-.9 22.5-1.1 33.8-.7h.1c7.8.2 15.6 1 23.3 2.3 1 .2 6.2 2.4 11.1 5.8z"/><path class="st9" d="M836.9 661.4c-1.3 1-2.7 2-4.1 2.9-5.6 3.7-11.8 6.6-18.3 8.6-6.8 2.1-14 3.2-21.5 3.2-10.7 0-21-2.3-30.2-6.5-1.2-.5-2.4-1.1-3.5-1.7l.3-1.8c1.2-1.9 2.6-3.8 4.2-5.8 7.5-9.6 18.1-19.3 23.4-23.9 1.5 1.8 4 3.4 8.2 4.2 6.9 1.3 14.8-1.9 21.3-5.8 2.9 2.9 7.4 7.6 11.4 12.6 3.1 3.8 5.9 7.9 7.7 11.6.5.8.8 1.6 1.1 2.4z"/><path class="st22" d="M823.8 627.7s-8.5 10.5-24.9 11.3c-14.1.6-9.4-10.5-9.4-10.5 5.2-1.4 8.1-3.8 9.5-6.7 1.8-3.8 1.3-8.5.1-13.1-.1-.3-.2-.6-.3-1l20.6-18.4c-1.7 11-3.5 31.2 4.4 38.4z"/><path class="st13" d="M816.2 605.4c-1.1 7.1-9.7 14.1-17.1 16.3 1.8-3.8 1.3-8.5.1-13.1l17.1-13.1c.6 3.2.6 6.6-.1 9.9z"/><path class="st12" d="M802.8 565.3c4.9 5.5.5 11.7-15.7 18.9-3.6-8.5-1-22.4 4.2-24.7 5.2-2.4 7.2 1 11.5 5.8z"/><path class="st22" d="M825.5 582.9c-4.3 14.3-6.2 22.9-15.3 28.6-13.7 8.6-30.1-2.3-30.1-17.6 0-13.8 7.1-34.9 22.7-37.3 11.1-1.8 21.6 5.8 23.4 16.9.5 3.1.2 6.3-.7 9.4z"/><path class="st12" d="M802.8 581.7c-.3 1.2-1.1 2-1.9 1.8-.8-.2-1.2-1.3-.9-2.5s1.1-2 1.9-1.8 1.1 1.3.9 2.5zm-13.4-3.2c-.3 1.2-1.1 2-1.9 1.8-.8-.2-1.2-1.3-.9-2.5s1.1-2 1.9-1.8c.8.2 1.2 1.3.9 2.5z"/><path d="M793.6 580.1c-2.3 3.3-5 6.2-8.1 8.8 1.7 2.5 5.4 2.4 5.4 2.4l2.7-11.2z" style="fill:#892b29"/><path class="st12" d="M807.5 578.3c.1.1.3.1.5 0 .4-.2.5-.6.4-.9-.9-2.1-2.7-3.7-5-4.2-.4-.1-.7.2-.8.5 0 .4.2.7.6.8 1.8.4 3.2 1.7 3.9 3.4 0 .2.2.4.4.4zm-23.2-5.8c.3.1.5 0 .7-.2 1.1-1.4 2.8-2.3 4.7-2.2.4 0 .7-.2.8-.6 0-.4-.2-.7-.6-.8-2.3-.1-4.5.9-5.9 2.7-.2.3-.2.7.1 1 0 .1.1.1.2.1zm38.4-3.9c-7.3.7-8.2 8.2-1.3 24.5 8.4-3.7 16-15.7 13.7-21-2.2-5.2-5.9-4.1-12.4-3.5z"/><path class="st22" d="M829.6 596.1c-1.8 3.3-4.9 5.7-8.5 6.7-4.8 1.3-7.2-3-5.8-7.5 1.2-4.1 5.2-9.7 10-9s6.6 5.8 4.3 9.8z"/><path class="st12" d="M808.6 562.6s-1.5 15.1 12.2 19.5c13.7 4.5 18.9-3.4 18.9-3.4s-2.2-.2-3.5-.6c0 0 5.9-6 3.5-13.8-2.3-7.8-14.5-18.5-25.7-17.5 0 0-8.9-6.3-20-3.1s-12.5 15.8-12.5 15.8 1.5-7.5 6.5-8.5c0 0-9.5 13.9-2.2 20.1.1.1 4.7-14.8 22.8-8.5zm-20.2 34.1c1.2 1.7 2.8 5.1 2.8 5.1.3-.1.7-.2 1-.3 4.5-1.3 6.1-3.3 6.6-5.2.3-1 .2-2.1 0-2.8-.2-.9-.6-1.5-.6-1.5-2 2.1-6.1 3.6-8.3 4.3-.9.3-1.5.4-1.5.4z"/><path class="st5" d="m789.9 596.3.9 1.5c4.2-1.2 7-2.6 8-4.3-.2-.9-.6-1.5-.6-1.5-2 2.1-6 3.6-8.3 4.3z"/><path class="st14" d="M792.2 601.6c4.5-1.3 6.1-3.3 6.6-5.2-1.5.5-3.3 1.2-4.7 2.4-1.1.8-1.6 1.8-1.9 2.8z"/></g><path class="st3" d="m574.8 250-36.9-1.8c-2-.1-3.6-1.8-3.5-3.9l1.8-36.9c.1-2 1.8-3.6 3.9-3.5l36.9 1.8c2 .1 3.6 1.8 3.5 3.9l-1.8 36.9c-.2 2-1.9 3.6-3.9 3.5z"/><path d="M570 218.8c-2.9-5.2-8.9-3.6-12.2.2-2.9-4.1-8.8-6.3-12.1-1.4-5.7 8.3 4.8 16.7 9.8 20.1.6.4 1 .7 1.4 1 .4-.2.9-.5 1.5-.8 5.2-2.8 16.4-10.2 11.6-19.1z" style="opacity:.6;fill:#fff;enable-background:new"/><path class="st3" d="M561.3 245.9s-6.4 13-19.6 16.5c0 0 7.4-3.8 7.5-17.7l12.1 1.2z"/></svg>